<?xml version="1.0" encoding="utf-8"?>
<!-- Generator: Adobe Illustrator 21.0.0, SVG Export Plug-In . SVG Version: 6.00 Build 0)  -->
<svg version="1.1" id="圖層_1" xmlns="http://www.w3.org/2000/svg" xmlns:xlink="http://www.w3.org/1999/xlink" x="0px" y="0px"
	 viewBox="0 0 1857 200" style="enable-background:new 0 0 1857 200;" xml:space="preserve">
<style type="text/css">
	.st0{fill:#6D0008;}
	.st1{fill:#880020;}
	.st2{fill:#96000F;}
	.st3{fill:#AD000D;}
	.st4{fill:#640014;}
	.st5{fill:#AD0031;}
	.st6{fill:#711A00;}
</style>
<polygon class="st0" points="32.5,31 128.5,7 153.5,34 41.5,38 "/>
<polygon class="st1" points="381.5,101 418.5,89 442.5,98 464.5,121 399.5,111 "/>
<polygon class="st2" points="258.5,63 289.5,49 327.5,59 373.5,62 388.5,66 "/>
<polygon class="st3" points="105.5,29 129.5,21 160.5,44 142.5,45 101.5,29 "/>
<polygon class="st4" points="81.5,167 154.5,143 197.5,144 223.5,153 260.5,160 284.5,172 212.5,172 156.5,172 100.5,177 36.5,176 
	"/>
<polygon class="st5" points="701.5,145 721.5,133.4 733.1,133 748.8,140.6 763.7,143.5 735.7,143.2 731.7,140.3 717.1,141 "/>
<polygon class="st6" points="875.8,20.9 917.5,1 966.5,0 978.5,22 "/>
<path class="st6" d="M1856,16l-537,4l-39-10l-50,8h-212.5l-1051,6l18,200l1051-3l823.5-8L1856,16z M262.5,56l26,13l-137-1L262.5,56z
	 M360.5,169l-89-5l-91,2l-94-13l-89-4l75-13l72-20l33,12l58-4l38,14l83,4l47,14l129,6l21,8L360.5,169z M395.5,107l-26,6l-84-7l53-11
	l74-23l46,10h52l24,10l92,11L395.5,107z M726.8,127.9l-73.1,1.1l-15.2-5.3l18-4.3l58.4-13.4l16.2,14.4l38-12.3l9.5,12.3l38.9,6.4
	L726.8,127.9z M759.5,56l-76-3l-31,1l-23-8l-79,1l76-12l50,9l48-1l49,7l79-2L759.5,56z M893,75l108-12l73,12H893z M1454,174l-96-3
	l-107-10l-165,16l161-32l109,13l115,8l72,18L1454,174z M1663,162l-67-11l-34-10l-124-7l126-8l49,14l86,8l103,9L1663,162z"/>
</svg>
