<?xml version="1.0" encoding="utf-8"?>
<!-- Generator: Adobe Illustrator 21.0.0, SVG Export Plug-In . SVG Version: 6.00 Build 0)  -->
<svg version="1.1" xmlns="http://www.w3.org/2000/svg" xmlns:xlink="http://www.w3.org/1999/xlink" x="0px" y="0px"
	 viewBox="0 0 1857 199" style="enable-background:new 0 0 1857 199;" xml:space="preserve">
<style type="text/css">
	.st0{display:none;}
	.st1{display:inline;fill:#6D0008;}
	.st2{display:inline;fill:#880020;}
	.st3{display:inline;fill:#96000F;}
	.st4{display:inline;fill:#AD000D;}
	.st5{display:inline;fill:#640014;}
	.st6{display:inline;fill:#AD0031;}
	.st7{display:inline;fill:#711A00;}
	.st8{fill:#711A00;}
	.st9{fill:#DF4500;}
</style>
<g id="圖層_1" class="st0">
	<polygon class="st1" points="32.5,30 128.5,6 153.5,33 41.5,37 	"/>
	<polygon class="st2" points="381.5,100 418.5,88 442.5,97 464.5,120 399.5,110 	"/>
	<polygon class="st3" points="258.5,62 289.5,48 327.5,58 373.5,61 388.5,65 	"/>
	<polygon class="st4" points="105.5,28 129.5,20 160.5,43 142.5,44 101.5,28 	"/>
	<polygon class="st5" points="81.5,166 154.5,142 197.5,143 223.5,152 260.5,159 284.5,171 212.5,171 156.5,171 100.5,176 36.5,175 
			"/>
	<polygon class="st6" points="701.5,144 721.5,132.4 733.1,132 748.8,139.6 763.7,142.5 735.7,142.2 731.7,139.3 717.1,140 	"/>
	<polygon class="st7" points="875.8,19.9 917.5,0 966.5,-1 978.5,21 	"/>
	<path class="st7" d="M1856,15l-537,4l-39-10l-50,8h-212.5l-1051,6l18,200l1051-3l823.5-8L1856,15z M262.5,55l26,13l-137-1L262.5,55
		z M360.5,168l-89-5l-91,2l-94-13l-89-4l75-13l72-20l33,12l58-4l38,14l83,4l47,14l129,6l21,8L360.5,168z M395.5,106l-26,6l-84-7
		l53-11l74-23l46,10h52l24,10l92,11L395.5,106z M726.8,126.9l-73.1,1.1l-15.2-5.3l18-4.3l58.4-13.4l16.2,14.4l38-12.3l9.5,12.3
		l38.9,6.4L726.8,126.9z M759.5,55l-76-3l-31,1l-23-8l-79,1l76-12l50,9l48-1l49,7l79-2L759.5,55z M893,74l108-12l73,12H893z
		 M1454,173l-96-3l-107-10l-165,16l161-32l109,13l115,8l72,18L1454,173z M1663,161l-67-11l-34-10l-124-7l126-8l49,14l86,8l103,9
		L1663,161z"/>
</g>
<g id="圖層_2">
	<polygon class="st8" points="90,113 167,53 190,51 234,7 272,6 299,65 322,64 361,117 389,130 416,175 443,187 483,133 503,128 
		540,64 560,56 596,9 622,10 640,63 683,83 709,139 740,166 775,137 807,86 870,34 891,30 907,91 930,96 957,151 978,173 1053,120 
		1103,65 1158,14 1187,20 1231,79 1296,138 1362,167 1427,130 1463,62 1489,51 1499,21 1546,14 1586,21 1595,66 1628,84 1635,129 
		1680,160 1722,159 1769,73 1785,68 1817,24 1873,-16 1878,291 -103,303 -15,-6 9,5 39,75 	"/>
	<polygon class="st9" points="3,20 18,89 79,123 26,79 	"/>
	<polygon class="st9" points="108,117 176,63 204,61 241,18 266,17 240,25 201,75 174,76 	"/>
	<polygon class="st9" points="275,31 295,76 320,76 350,117 384,135 408,178 441,194 398,182 368,136 333,121 308,86 277,86 	"/>
	<polygon class="st9" points="455,185 490,139 511,133 544,70 564,64 597,16 614,16 569,69 546,75 510,145 490,146 460,193 	"/>
	<polygon class="st9" points="613,36 620,75 648,107 666,156 708,192 743,191 708,183 678,144 654,105 634,70 	"/>
	<polygon class="st9" points="754,164 784,136 812,89 860,48 876,37 836,81 790,141 	"/>
	<polygon class="st9" points="891,75 901,113 918,115 941,164 977,181 951,149 926,97 907,91 	"/>
	<polygon class="st9" points="999,171 1068,116 1151,33 1168,26 1086,118 	"/>
	<polygon class="st9" points="1174,67 1185,142 1216,182 1251,181 	"/>
	<path class="st9" d="M1378,172c3,0,56-31,56-31l25,36l-31-24L1378,172z"/>
	<polygon class="st9" points="1443,131 1476,64 1499,58 1505,34 1546,21 1579,34 1546,36 1519,44 1507,73 1484,78 1458,139 
		1469,172 	"/>
	<polygon class="st9" points="1576,73 1608,95 1618,146 1675,180 1740,178 1675,167 1624,139 1618,88 	"/>
	<polygon class="st9" points="1738,159 1776,84 1796,73 1822,34 1865,-2 1827,50 1794,92 1779,100 	"/>
	<polygon class="st9" points="1547,78 1511,110 1513,153 1536,182 1593,188 1616,182 1629,162 1606,176 1584,177 1544,171 1522,146 
		1523,113 	"/>
	<polygon class="st9" points="1069,161 1163,127 1173,142 	"/>
	<polygon class="st9" points="1237,123 1258,143 1331,169 	"/>
	<polygon class="st9" points="861,87 809,183 835,171 	"/>
	<polygon class="st9" points="595,90 569,147 548,156 528,195 547,191 567,155 590,142 	"/>
	<polygon class="st9" points="252,47 202,142 145,196 191,193 222,131 	"/>
	<polygon class="st9" points="267,108 302,107 329,143 360,153 387,193 348,194 324,155 300,150 	"/>
	<polygon class="st9" points="29,129 42,179 87,186 	"/>
</g>
</svg>
