<?xml version="1.0" encoding="utf-8"?>
<!-- Generator: Adobe Illustrator 21.0.0, SVG Export Plug-In . SVG Version: 6.00 Build 0)  -->
<svg version="1.1" xmlns="http://www.w3.org/2000/svg" xmlns:xlink="http://www.w3.org/1999/xlink" x="0px" y="0px"
	 viewBox="0 0 1000 1000" style="enable-background:new 0 0 1000 1000;" xml:space="preserve">
<style type="text/css">
	.st0{fill:#3B0C00;stroke:#000000;stroke-miterlimit:10;}
	.st1{fill:#961000;stroke:#000000;stroke-miterlimit:10;}
	.st2{opacity:0.97;fill:#E83900;stroke:#000000;stroke-miterlimit:10;}
	.st3{fill:#BF3900;}
	.st4{fill:#C84C00;stroke:#000000;stroke-miterlimit:10;}
	.st5{opacity:0.63;fill:#E83900;}
	.st6{fill:#EC5A00;stroke:#000000;stroke-miterlimit:10;}
	.st7{fill:#9F1E00;stroke:#000000;stroke-miterlimit:10;}
	.st8{fill:#B13500;}
	.st9{fill:#FF8E76;stroke:#000000;stroke-miterlimit:10;}
	.st10{fill:#FFAA76;}
	.st11{fill:#BF3900;stroke:#000000;stroke-miterlimit:10;}
	.st12{opacity:0.61;fill:#7A1900;}
	.st13{opacity:0.64;fill:#7A1900;}
	.st14{fill:#7A1900;}
	.st15{opacity:0.56;fill:#DA2700;}
	.st16{fill:#CC5400;}
	.st17{fill:#C1272D;stroke:#000000;stroke-miterlimit:10;}
	.st18{fill:#FF0000;stroke:#000000;stroke-miterlimit:10;}
	.st19{fill:#FF0000;}
</style>
<g id="圖層_1">
	<g>
		<path class="st0" d="M23.8,80c0,0,19.6-7.1,36.7-8.6c17.1-1.5,33.1-2.8,41.3-2.5s32.5,1.2,40.2,2.8c7.7,1.5,25.2,8.3,25.2,8.3
			l12.5,1.8l-0.1,9.5c0,0-9.3,23-10.8,26.4c-1.5,3.4-21.2,19-21.2,19L137.1,164l-24.5,7.7l-7.6-6.7l-3.3-12.9l-34.9-12.3l-7.6,1.5
			l-13.9-6.4l-1.8-12L26.4,98.1h-6.3l-9.3-19.3l9.3-1.5L23.8,80z"/>
		<polygon class="st1" points="10.7,78.7 22.1,94 37.6,99.5 20.1,98.6 		"/>
		<polygon class="st2" points="33.5,98.5 68.8,103.4 72,118.1 75.5,104 107.7,105.5 136.8,102.8 136.2,131.6 144.2,101.3 
			159.4,98.5 163.8,100 179.5,91.4 168.7,117.8 147.5,136.8 137.1,164.1 112.6,171.8 105,165 101.7,152.2 66.8,139.9 59.2,141.4 
			45.3,135 43.5,123 26.4,98.2 		"/>
		<polygon class="st3" points="102.9,138.2 110.7,138.2 113.8,124.1 103.4,124.1 		"/>
		<polygon class="st4" points="45.5,111.2 28.2,116.4 33.1,120.9 49.4,132.1 55.8,133.9 61.8,114.3 		"/>
		<polygon class="st5" points="116.2,120.9 136.4,122.6 113.1,127.5 113.8,124.1 113.1,120.3 		"/>
		<polygon class="st6" points="173,108.2 179.6,111.2 176.8,117.7 179.2,120.9 167.3,131.2 152.8,137 149.1,136 168.7,118.3 		"/>
		<polygon class="st7" points="59.2,141.9 70.5,168.3 81,175 95.2,179 99.7,160.4 102.9,157.5 101.7,152.6 66.8,140.4 		"/>
		<polygon class="st3" points="28.2,116.4 46.8,119.2 61.8,114.3 45.5,111.2 		"/>
		<polygon class="st3" points="52.2,129.9 45.5,120.9 33.5,125.4 		"/>
		<polygon class="st5" points="92.9,116.4 113.8,116.4 113.8,124.1 103.4,124.1 92.9,120.3 		"/>
		<polygon class="st5" points="77.6,108.2 72.8,122.6 73.5,140.4 101.5,149.6 99.7,138.2 87.2,122.6 89.8,113.4 		"/>
		<polygon class="st3" points="147.5,104.2 159.4,101.7 142,128.9 		"/>
		<polygon class="st5" points="95.2,179 76.8,145.9 66.8,140.4 95.2,150.3 		"/>
		<polygon class="st5" points="113.8,168.6 120.8,146.8 132.7,137 		"/>
		<polygon class="st3" points="124.7,163.4 145.7,137 137.1,164.6 118.9,170.3 		"/>
		<polygon class="st5" points="148.6,131.6 161.8,115.2 168.8,111.4 178.3,96.7 168.6,118.4 		"/>
		<polygon class="st8" points="105,140.4 132.7,137 120.8,146.8 		"/>
		<polygon class="st9" points="10.7,78.7 20.1,77.2 23.8,80 43.5,74.3 89.8,68.9 124.7,70 145.7,72.6 161.8,78 176.8,81.4 
			179.6,81.8 179.5,91.4 163.8,100 159.4,98.5 144.2,101.3 136.2,131.6 136.8,102.8 107.7,105.5 75.5,104 72,118.1 68.8,103.4 
			32.3,97.7 22.1,94 		"/>
		<polygon class="st10" points="24.1,82.1 42.8,76.4 82.2,72.1 92.9,70.7 105,70.7 154.2,78.7 172,84.8 172,91.8 161.8,96.7 
			154.2,96.7 142,99.5 136.4,96.7 136.4,99.5 107,101.7 76.8,101.7 78,96.7 70.5,101.7 33.5,95.3 23.8,91.4 17.7,81.2 		"/>
		<polygon class="st11" points="99.4,75.3 105,83.6 127,86.1 139.3,83.3 150.7,77.5 140.2,65.5 136.4,53.9 138,49.3 132.7,35.2 
			123.2,22.3 120.2,14 106.4,14 101.5,24.7 110.7,29.3 113.1,50 111.6,60.3 		"/>
		<polygon class="st11" points="155.4,92.8 163.4,96.7 176.8,89.1 176.8,81.4 172,47.4 166.1,50 159.4,77.1 155.2,81.5 		"/>
		<polygon class="st11" points="95.2,20.1 99.4,22 97.3,28.7 88.6,28.7 83.1,36.7 78.7,47.4 82.2,52.9 78.7,64.3 81.4,77.2 
			87.2,82.1 89,86.1 79.8,91.4 59.2,89.1 46.8,82.4 41.6,74.7 52.2,59.1 63.7,47.4 78,31.8 85.9,25 87.2,20.1 		"/>
		<polygon class="st10" points="75.5,39.1 60.5,55.8 46.8,73.5 46.8,78.7 59.2,86.1 66.8,81.8 70.2,73.4 68.1,66.1 76.7,44.7 		"/>
		<polygon class="st12" points="82.2,52.9 77.2,58.5 75.5,65.2 78.7,78.7 84.5,88.7 89,86.1 87.2,82.1 81.4,77.2 78.7,64.3 		"/>
		<polygon class="st13" points="101.5,75.3 105,81.5 126.7,84.2 145.7,77.3 136.4,67.4 132.7,51.4 132.7,46.2 123.6,28.1 
			113.1,20.1 105,24.1 113.8,29.9 113.8,47.4 116.2,52.2 113.8,62.6 		"/>
		<polygon class="st14" points="73.1,45 57.7,68.9 54.3,80.9 59.2,84.2 64.8,80.2 67.9,73.7 66.8,64.6 73.5,47.4 		"/>
		<polygon class="st15" points="159.4,80.5 159.4,91.4 164.4,93.4 174.6,88.7 171.3,52.2 164.4,78.5 		"/>
		<polygon class="st16" points="57.7,80.6 59.2,70.7 69,59.1 66.8,64.6 67.9,73.7 64.8,80.2 59.2,84.2 		"/>
		<polygon class="st17" points="32.5,84.5 37.5,83.5 41.5,85.5 42.5,89.5 44.5,91.5 39.5,92.5 33.5,91.5 30.5,90.5 32.5,87.5 		"/>
		<polygon class="st17" points="108.5,98.5 120.5,98.5 131.5,97.5 133.5,94.5 137.5,94.5 141.5,96.5 149.5,95.5 148.5,92.5 
			146.5,94.5 141.5,94.5 135.5,92.5 130.5,92.5 127.5,95.5 113.5,96.5 		"/>
		<polygon class="st18" points="33.5,85.5 37.5,87.5 40.5,86.5 36.5,84.5 		"/>
	</g>
	<g>
		<path class="st0" d="M223.8,80c0,0,19.6-7.1,36.7-8.6c17.1-1.5,33.1-2.8,41.3-2.5s32.5,1.2,40.2,2.8s25.2,8.3,25.2,8.3l12.5,1.8
			l-0.1,9.5c0,0-9.3,23-10.8,26.4c-1.5,3.4-21.2,19-21.2,19L337.1,164l-24.5,7.7l-7.6-6.7l-3.3-12.9l-34.9-12.3l-7.6,1.5l-13.9-6.4
			l-1.8-12l-17.1-24.8h-6.3l-9.3-19.3l9.3-1.5L223.8,80z"/>
		<polygon class="st1" points="210.7,78.7 222.1,94 237.6,99.5 220.1,98.6 		"/>
		<polygon class="st2" points="233.5,98.5 268.8,103.4 272,118.1 275.5,104 307.7,105.5 336.8,102.8 336.2,131.6 344.2,101.3 
			359.4,98.5 363.8,100 379.5,91.4 368.7,117.8 347.5,136.8 337.1,164.1 312.6,171.8 305,165 301.7,152.2 266.8,139.9 259.2,141.4 
			245.3,135 243.5,123 226.4,98.2 		"/>
		<polygon class="st3" points="302.9,138.2 310.7,138.2 313.8,124.1 303.4,124.1 		"/>
		<polygon class="st4" points="245.5,111.2 228.2,116.4 233.1,120.9 249.4,132.1 255.8,133.9 261.8,114.3 		"/>
		<polygon class="st5" points="316.2,120.9 336.4,122.6 313.1,127.5 313.8,124.1 313.1,120.3 		"/>
		<polygon class="st6" points="373,108.2 379.6,111.2 376.8,117.7 379.2,120.9 367.3,131.2 352.8,137 349.1,136 368.7,118.3 		"/>
		<polygon class="st7" points="259.2,141.9 270.5,168.3 281,175 295.2,179 299.7,160.4 302.9,157.5 301.7,152.6 266.8,140.4 		"/>
		<polygon class="st3" points="228.2,116.4 246.8,119.2 261.8,114.3 245.5,111.2 		"/>
		<polygon class="st3" points="252.2,129.9 245.5,120.9 233.5,125.4 		"/>
		<polygon class="st5" points="292.9,116.4 313.8,116.4 313.8,124.1 303.4,124.1 292.9,120.3 		"/>
		<polygon class="st5" points="277.6,108.2 272.8,122.6 273.5,140.4 301.5,149.6 299.7,138.2 287.2,122.6 289.8,113.4 		"/>
		<polygon class="st3" points="347.5,104.2 359.4,101.7 342,128.9 		"/>
		<polygon class="st5" points="295.2,179 276.8,145.9 266.8,140.4 295.2,150.3 		"/>
		<polygon class="st5" points="313.8,168.6 320.8,146.8 332.7,137 		"/>
		<polygon class="st3" points="324.7,163.4 345.7,137 337.1,164.6 318.9,170.3 		"/>
		<polygon class="st5" points="348.6,131.6 361.8,115.2 368.8,111.4 378.3,96.7 368.6,118.4 		"/>
		<polygon class="st8" points="305,140.4 332.7,137 320.8,146.8 		"/>
		<polygon class="st9" points="210.7,78.7 220.1,77.2 223.8,80 243.5,74.3 289.8,68.9 324.7,70 345.7,72.6 361.8,78 376.8,81.4 
			379.6,81.8 379.5,91.4 363.8,100 359.4,98.5 344.2,101.3 336.2,131.6 336.8,102.8 307.7,105.5 275.5,104 272,118.1 268.8,103.4 
			232.3,97.7 222.1,94 		"/>
		<polygon class="st10" points="224.1,82.1 242.8,76.4 282.2,72.1 292.9,70.7 305,70.7 354.2,78.7 372,84.8 372,91.8 361.8,96.7 
			354.2,96.7 342,99.5 336.4,96.7 336.4,99.5 307,101.7 276.8,101.7 278,96.7 270.5,101.7 233.5,95.3 223.8,91.4 217.7,81.2 		"/>
		<polygon class="st11" points="299.4,75.3 305,83.6 327,86.1 339.3,83.3 350.7,77.5 340.2,65.5 336.4,53.9 338,49.3 332.7,35.2 
			323.2,22.3 320.2,14 306.4,14 301.5,24.7 310.7,29.3 313.1,50 311.6,60.3 		"/>
		<polygon class="st11" points="355.4,92.8 363.4,96.7 376.8,89.1 376.8,81.4 372,47.4 366.1,50 359.4,77.1 355.2,81.5 		"/>
		<polygon class="st11" points="295.2,20.1 299.4,22 297.3,28.7 288.6,28.7 283.1,36.7 278.7,47.4 282.2,52.9 278.7,64.3 
			281.4,77.2 287.2,82.1 289,86.1 279.8,91.4 259.2,89.1 246.8,82.4 241.6,74.7 252.2,59.1 263.7,47.4 278,31.8 285.9,25 
			287.2,20.1 		"/>
		<polygon class="st10" points="275.5,39.1 260.5,55.8 246.8,73.5 246.8,78.7 259.2,86.1 266.8,81.8 270.2,73.4 268.1,66.1 
			276.7,44.7 		"/>
		<polygon class="st12" points="282.2,52.9 277.2,58.5 275.5,65.2 278.7,78.7 284.5,88.7 289,86.1 287.2,82.1 281.4,77.2 
			278.7,64.3 		"/>
		<polygon class="st13" points="301.5,75.3 305,81.5 326.7,84.2 345.7,77.3 336.4,67.4 332.7,51.4 332.7,46.2 323.6,28.1 
			313.1,20.1 305,24.1 313.8,29.9 313.8,47.4 316.2,52.2 313.8,62.6 		"/>
		<polygon class="st14" points="273.1,45 257.7,68.9 254.3,80.9 259.2,84.2 264.8,80.2 267.9,73.7 266.8,64.6 273.5,47.4 		"/>
		<polygon class="st15" points="359.4,80.5 359.4,91.4 364.4,93.4 374.6,88.7 371.3,52.2 364.4,78.5 		"/>
		<polygon class="st16" points="257.7,80.6 259.2,70.7 269,59.1 266.8,64.6 267.9,73.7 264.8,80.2 259.2,84.2 		"/>
		<polygon class="st17" points="232.5,84.5 237.5,83.5 241.5,85.5 242.5,89.5 244.5,91.5 239.5,92.5 233.5,91.5 230.5,90.5 
			232.5,87.5 		"/>
		<polygon class="st17" points="308.5,98.5 320.5,98.5 331.5,97.5 333.5,94.5 337.5,94.5 341.5,96.5 349.5,95.5 348.5,92.5 
			346.5,94.5 341.5,94.5 335.5,92.5 330.5,92.5 327.5,95.5 313.5,96.5 		"/>
		<polygon class="st18" points="233.5,85.5 237.5,87.5 240.5,86.5 236.5,84.5 		"/>
	</g>
	<g>
		<path class="st0" d="M423.8,80c0,0,19.6-7.1,36.7-8.6c17.1-1.5,33.1-2.8,41.3-2.5s32.5,1.2,40.2,2.8c7.7,1.5,25.2,8.3,25.2,8.3
			l12.5,1.8l-0.1,9.5c0,0-9.3,23-10.8,26.4s-21.2,19-21.2,19L537.1,164l-24.5,7.7l-7.6-6.7l-3.3-12.9l-34.9-12.3l-7.6,1.5l-13.9-6.4
			l-1.8-12l-17.1-24.8h-6.3l-9.3-19.3l9.3-1.5L423.8,80z"/>
		<polygon class="st1" points="410.7,78.7 422.1,94 437.6,99.5 420.1,98.6 		"/>
		<polygon class="st2" points="433.5,98.5 468.8,103.4 472,118.1 475.5,104 507.7,105.5 536.8,102.8 536.2,131.6 544.2,101.3 
			559.4,98.5 563.8,100 579.5,91.4 568.7,117.8 547.5,136.8 537.1,164.1 512.6,171.8 505,165 501.7,152.2 466.8,139.9 459.2,141.4 
			445.3,135 443.5,123 426.4,98.2 		"/>
		<polygon class="st3" points="502.9,138.2 510.7,138.2 513.8,124.1 503.4,124.1 		"/>
		<polygon class="st4" points="445.5,111.2 428.2,116.4 433.1,120.9 449.4,132.1 455.8,133.9 461.8,114.3 		"/>
		<polygon class="st5" points="516.2,120.9 536.4,122.6 513.1,127.5 513.8,124.1 513.1,120.3 		"/>
		<polygon class="st6" points="573,108.2 579.6,111.2 576.8,117.7 579.2,120.9 567.3,131.2 552.8,137 549.1,136 568.7,118.3 		"/>
		<polygon class="st7" points="459.2,141.9 470.5,168.3 481,175 495.2,179 499.7,160.4 502.9,157.5 501.7,152.6 466.8,140.4 		"/>
		<polygon class="st3" points="428.2,116.4 446.8,119.2 461.8,114.3 445.5,111.2 		"/>
		<polygon class="st3" points="452.2,129.9 445.5,120.9 433.5,125.4 		"/>
		<polygon class="st5" points="492.9,116.4 513.8,116.4 513.8,124.1 503.4,124.1 492.9,120.3 		"/>
		<polygon class="st5" points="477.6,108.2 472.8,122.6 473.5,140.4 501.5,149.6 499.7,138.2 487.2,122.6 489.8,113.4 		"/>
		<polygon class="st3" points="547.5,104.2 559.4,101.7 542,128.9 		"/>
		<polygon class="st5" points="495.2,179 476.8,145.9 466.8,140.4 495.2,150.3 		"/>
		<polygon class="st5" points="513.8,168.6 520.8,146.8 532.7,137 		"/>
		<polygon class="st3" points="524.7,163.4 545.7,137 537.1,164.6 518.9,170.3 		"/>
		<polygon class="st5" points="548.6,131.6 561.8,115.2 568.8,111.4 578.3,96.7 568.6,118.4 		"/>
		<polygon class="st8" points="505,140.4 532.7,137 520.8,146.8 		"/>
		<polygon class="st9" points="410.7,78.7 420.1,77.2 423.8,80 443.5,74.3 489.8,68.9 524.7,70 545.7,72.6 561.8,78 576.8,81.4 
			579.6,81.8 579.5,91.4 563.8,100 559.4,98.5 544.2,101.3 536.2,131.6 536.8,102.8 507.7,105.5 475.5,104 472,118.1 468.8,103.4 
			432.3,97.7 422.1,94 		"/>
		<polygon class="st10" points="424.1,82.1 442.8,76.4 482.2,72.1 492.9,70.7 505,70.7 554.2,78.7 572,84.8 572,91.8 561.8,96.7 
			554.2,96.7 542,99.5 536.4,96.7 536.4,99.5 507,101.7 476.8,101.7 478,96.7 470.5,101.7 433.5,95.3 423.8,91.4 417.7,81.2 		"/>
		<polygon class="st11" points="499.4,75.3 505,83.6 527,86.1 539.3,83.3 550.7,77.5 540.2,65.5 536.4,53.9 538,49.3 532.7,35.2 
			523.2,22.3 520.2,14 506.4,14 501.5,24.7 510.7,29.3 513.1,50 511.6,60.3 		"/>
		<polygon class="st11" points="555.4,92.8 563.4,96.7 576.8,89.1 576.8,81.4 572,47.4 566.1,50 559.4,77.1 555.2,81.5 		"/>
		<polygon class="st11" points="495.2,20.1 499.4,22 497.3,28.7 488.6,28.7 483.1,36.7 478.7,47.4 482.2,52.9 478.7,64.3 
			481.4,77.2 487.2,82.1 489,86.1 479.8,91.4 459.2,89.1 446.8,82.4 441.6,74.7 452.2,59.1 463.7,47.4 478,31.8 485.9,25 
			487.2,20.1 		"/>
		<polygon class="st10" points="475.5,39.1 460.5,55.8 446.8,73.5 446.8,78.7 459.2,86.1 466.8,81.8 470.2,73.4 468.1,66.1 
			476.7,44.7 		"/>
		<polygon class="st12" points="482.2,52.9 477.2,58.5 475.5,65.2 478.7,78.7 484.5,88.7 489,86.1 487.2,82.1 481.4,77.2 
			478.7,64.3 		"/>
		<polygon class="st13" points="501.5,75.3 505,81.5 526.7,84.2 545.7,77.3 536.4,67.4 532.7,51.4 532.7,46.2 523.6,28.1 
			513.1,20.1 505,24.1 513.8,29.9 513.8,47.4 516.2,52.2 513.8,62.6 		"/>
		<polygon class="st14" points="473.1,45 457.7,68.9 454.3,80.9 459.2,84.2 464.8,80.2 467.9,73.7 466.8,64.6 473.5,47.4 		"/>
		<polygon class="st15" points="559.4,80.5 559.4,91.4 564.4,93.4 574.6,88.7 571.3,52.2 564.4,78.5 		"/>
		<polygon class="st16" points="457.7,80.6 459.2,70.7 469,59.1 466.8,64.6 467.9,73.7 464.8,80.2 459.2,84.2 		"/>
		<polygon class="st17" points="432.5,84.5 437.5,83.5 441.5,85.5 442.5,89.5 444.5,91.5 439.5,92.5 433.5,91.5 430.5,90.5 
			432.5,87.5 		"/>
		<polygon class="st17" points="508.5,98.5 520.5,98.5 531.5,97.5 533.5,94.5 537.5,94.5 541.5,96.5 549.5,95.5 548.5,92.5 
			546.5,94.5 541.5,94.5 535.5,92.5 530.5,92.5 527.5,95.5 513.5,96.5 		"/>
		<polygon class="st18" points="433.5,85.5 437.5,87.5 440.5,86.5 436.5,84.5 		"/>
	</g>
	<g>
		<path class="st0" d="M623.8,80c0,0,19.6-7.1,36.7-8.6c17.1-1.5,33.1-2.8,41.3-2.5c8.3,0.3,32.5,1.2,40.2,2.8
			c7.7,1.5,25.2,8.3,25.2,8.3l12.5,1.8l-0.1,9.5c0,0-9.3,23-10.8,26.4s-21.2,19-21.2,19L737.1,164l-24.5,7.7l-7.6-6.7l-3.3-12.9
			l-34.9-12.3l-7.6,1.5l-13.9-6.4l-1.8-12l-17.1-24.8h-6.3l-9.3-19.3l9.3-1.5L623.8,80z"/>
		<polygon class="st1" points="610.7,78.7 622.1,94 637.6,99.5 620.1,98.6 		"/>
		<polygon class="st2" points="633.5,98.5 668.8,103.4 672,118.1 675.5,104 707.7,105.5 736.8,102.8 736.2,131.6 744.2,101.3 
			759.4,98.5 763.8,100 779.5,91.4 768.7,117.8 747.5,136.8 737.1,164.1 712.6,171.8 705,165 701.7,152.2 666.8,139.9 659.2,141.4 
			645.3,135 643.5,123 626.4,98.2 		"/>
		<polygon class="st3" points="702.9,138.2 710.7,138.2 713.8,124.1 703.4,124.1 		"/>
		<polygon class="st4" points="645.5,111.2 628.2,116.4 633.1,120.9 649.4,132.1 655.8,133.9 661.8,114.3 		"/>
		<polygon class="st5" points="716.2,120.9 736.4,122.6 713.1,127.5 713.8,124.1 713.1,120.3 		"/>
		<polygon class="st6" points="773,108.2 779.6,111.2 776.8,117.7 779.2,120.9 767.3,131.2 752.8,137 749.1,136 768.7,118.3 		"/>
		<polygon class="st7" points="659.2,141.9 670.5,168.3 681,175 695.2,179 699.7,160.4 702.9,157.5 701.7,152.6 666.8,140.4 		"/>
		<polygon class="st3" points="628.2,116.4 646.8,119.2 661.8,114.3 645.5,111.2 		"/>
		<polygon class="st3" points="652.2,129.9 645.5,120.9 633.5,125.4 		"/>
		<polygon class="st5" points="692.9,116.4 713.8,116.4 713.8,124.1 703.4,124.1 692.9,120.3 		"/>
		<polygon class="st5" points="677.6,108.2 672.8,122.6 673.5,140.4 701.5,149.6 699.7,138.2 687.2,122.6 689.8,113.4 		"/>
		<polygon class="st3" points="747.5,104.2 759.4,101.7 742,128.9 		"/>
		<polygon class="st5" points="695.2,179 676.8,145.9 666.8,140.4 695.2,150.3 		"/>
		<polygon class="st5" points="713.8,168.6 720.8,146.8 732.7,137 		"/>
		<polygon class="st3" points="724.7,163.4 745.7,137 737.1,164.6 718.9,170.3 		"/>
		<polygon class="st5" points="748.6,131.6 761.8,115.2 768.8,111.4 778.3,96.7 768.6,118.4 		"/>
		<polygon class="st8" points="705,140.4 732.7,137 720.8,146.8 		"/>
		<polygon class="st9" points="610.7,78.7 620.1,77.2 623.8,80 643.5,74.3 689.8,68.9 724.7,70 745.7,72.6 761.8,78 776.8,81.4 
			779.6,81.8 779.5,91.4 763.8,100 759.4,98.5 744.2,101.3 736.2,131.6 736.8,102.8 707.7,105.5 675.5,104 672,118.1 668.8,103.4 
			632.3,97.7 622.1,94 		"/>
		<polygon class="st10" points="624.1,82.1 642.8,76.4 682.2,72.1 692.9,70.7 705,70.7 754.2,78.7 772,84.8 772,91.8 761.8,96.7 
			754.2,96.7 742,99.5 736.4,96.7 736.4,99.5 707,101.7 676.8,101.7 678,96.7 670.5,101.7 633.5,95.3 623.8,91.4 617.7,81.2 		"/>
		<polygon class="st11" points="699.4,75.3 705,83.6 727,86.1 739.3,83.3 750.7,77.5 740.2,65.5 736.4,53.9 738,49.3 732.7,35.2 
			723.2,22.3 720.2,14 706.4,14 701.5,24.7 710.7,29.3 713.1,50 711.6,60.3 		"/>
		<polygon class="st11" points="755.4,92.8 763.4,96.7 776.8,89.1 776.8,81.4 772,47.4 766.1,50 759.4,77.1 755.2,81.5 		"/>
		<polygon class="st11" points="695.2,20.1 699.4,22 697.3,28.7 688.6,28.7 683.1,36.7 678.7,47.4 682.2,52.9 678.7,64.3 
			681.4,77.2 687.2,82.1 689,86.1 679.8,91.4 659.2,89.1 646.8,82.4 641.6,74.7 652.2,59.1 663.7,47.4 678,31.8 685.9,25 
			687.2,20.1 		"/>
		<polygon class="st10" points="675.5,39.1 660.5,55.8 646.8,73.5 646.8,78.7 659.2,86.1 666.8,81.8 670.2,73.4 668.1,66.1 
			676.7,44.7 		"/>
		<polygon class="st12" points="682.2,52.9 677.2,58.5 675.5,65.2 678.7,78.7 684.5,88.7 689,86.1 687.2,82.1 681.4,77.2 
			678.7,64.3 		"/>
		<polygon class="st13" points="701.5,75.3 705,81.5 726.7,84.2 745.7,77.3 736.4,67.4 732.7,51.4 732.7,46.2 723.6,28.1 
			713.1,20.1 705,24.1 713.8,29.9 713.8,47.4 716.2,52.2 713.8,62.6 		"/>
		<polygon class="st14" points="673.1,45 657.7,68.9 654.3,80.9 659.2,84.2 664.8,80.2 667.9,73.7 666.8,64.6 673.5,47.4 		"/>
		<polygon class="st15" points="759.4,80.5 759.4,91.4 764.4,93.4 774.6,88.7 771.3,52.2 764.4,78.5 		"/>
		<polygon class="st16" points="657.7,80.6 659.2,70.7 669,59.1 666.8,64.6 667.9,73.7 664.8,80.2 659.2,84.2 		"/>
		<polygon class="st17" points="632.5,84.5 637.5,83.5 641.5,85.5 642.5,89.5 644.5,91.5 639.5,92.5 633.5,91.5 630.5,90.5 
			632.5,87.5 		"/>
		<polygon class="st17" points="708.5,98.5 720.5,98.5 731.5,97.5 733.5,94.5 737.5,94.5 741.5,96.5 749.5,95.5 748.5,92.5 
			746.5,94.5 741.5,94.5 735.5,92.5 730.5,92.5 727.5,95.5 713.5,96.5 		"/>
		<polygon class="st18" points="633.5,85.5 637.5,87.5 640.5,86.5 636.5,84.5 		"/>
	</g>
	<g>
		<path class="st0" d="M823.8,80c0,0,19.6-7.1,36.7-8.6c17.1-1.5,33.1-2.8,41.3-2.5c8.3,0.3,32.5,1.2,40.2,2.8
			c7.7,1.5,25.2,8.3,25.2,8.3l12.5,1.8l-0.1,9.5c0,0-9.3,23-10.8,26.4s-21.2,19-21.2,19L937.1,164l-24.5,7.7l-7.6-6.7l-3.3-12.9
			l-34.9-12.3l-7.6,1.5l-13.9-6.4l-1.8-12l-17.1-24.8h-6.3l-9.3-19.3l9.3-1.5L823.8,80z"/>
		<polygon class="st1" points="810.7,78.7 822.1,94 837.6,99.5 820.1,98.6 		"/>
		<polygon class="st2" points="833.5,98.5 868.8,103.4 872,118.1 875.5,104 907.7,105.5 936.8,102.8 936.2,131.6 944.2,101.3 
			959.4,98.5 963.8,100 979.5,91.4 968.7,117.8 947.5,136.8 937.1,164.1 912.6,171.8 905,165 901.7,152.2 866.8,139.9 859.2,141.4 
			845.3,135 843.5,123 826.4,98.2 		"/>
		<polygon class="st3" points="902.9,138.2 910.7,138.2 913.8,124.1 903.4,124.1 		"/>
		<polygon class="st4" points="845.5,111.2 828.2,116.4 833.1,120.9 849.4,132.1 855.8,133.9 861.8,114.3 		"/>
		<polygon class="st5" points="916.2,120.9 936.4,122.6 913.1,127.5 913.8,124.1 913.1,120.3 		"/>
		<polygon class="st6" points="973,108.2 979.6,111.2 976.8,117.7 979.2,120.9 967.3,131.2 952.8,137 949.1,136 968.7,118.3 		"/>
		<polygon class="st7" points="859.2,141.9 870.5,168.3 881,175 895.2,179 899.7,160.4 902.9,157.5 901.7,152.6 866.8,140.4 		"/>
		<polygon class="st3" points="828.2,116.4 846.8,119.2 861.8,114.3 845.5,111.2 		"/>
		<polygon class="st3" points="852.2,129.9 845.5,120.9 833.5,125.4 		"/>
		<polygon class="st5" points="892.9,116.4 913.8,116.4 913.8,124.1 903.4,124.1 892.9,120.3 		"/>
		<polygon class="st5" points="877.6,108.2 872.8,122.6 873.5,140.4 901.5,149.6 899.7,138.2 887.2,122.6 889.8,113.4 		"/>
		<polygon class="st3" points="947.5,104.2 959.4,101.7 942,128.9 		"/>
		<polygon class="st5" points="895.2,179 876.8,145.9 866.8,140.4 895.2,150.3 		"/>
		<polygon class="st5" points="913.8,168.6 920.8,146.8 932.7,137 		"/>
		<polygon class="st3" points="924.7,163.4 945.7,137 937.1,164.6 918.9,170.3 		"/>
		<polygon class="st5" points="948.6,131.6 961.8,115.2 968.8,111.4 978.3,96.7 968.6,118.4 		"/>
		<polygon class="st8" points="905,140.4 932.7,137 920.8,146.8 		"/>
		<polygon class="st9" points="810.7,78.7 820.1,77.2 823.8,80 843.5,74.3 889.8,68.9 924.7,70 945.7,72.6 961.8,78 976.8,81.4 
			979.6,81.8 979.5,91.4 963.8,100 959.4,98.5 944.2,101.3 936.2,131.6 936.8,102.8 907.7,105.5 875.5,104 872,118.1 868.8,103.4 
			832.3,97.7 822.1,94 		"/>
		<polygon class="st10" points="824.1,82.1 842.8,76.4 882.2,72.1 892.9,70.7 905,70.7 954.2,78.7 972,84.8 972,91.8 961.8,96.7 
			954.2,96.7 942,99.5 936.4,96.7 936.4,99.5 907,101.7 876.8,101.7 878,96.7 870.5,101.7 833.5,95.3 823.8,91.4 817.7,81.2 		"/>
		<polygon class="st11" points="899.4,75.3 905,83.6 927,86.1 939.3,83.3 950.7,77.5 940.2,65.5 936.4,53.9 938,49.3 932.7,35.2 
			923.2,22.3 920.2,14 906.4,14 901.5,24.7 910.7,29.3 913.1,50 911.6,60.3 		"/>
		<polygon class="st11" points="955.4,92.8 963.4,96.7 976.8,89.1 976.8,81.4 972,47.4 966.1,50 959.4,77.1 955.2,81.5 		"/>
		<polygon class="st11" points="895.2,20.1 899.4,22 897.3,28.7 888.6,28.7 883.1,36.7 878.7,47.4 882.2,52.9 878.7,64.3 
			881.4,77.2 887.2,82.1 889,86.1 879.8,91.4 859.2,89.1 846.8,82.4 841.6,74.7 852.2,59.1 863.7,47.4 878,31.8 885.9,25 
			887.2,20.1 		"/>
		<polygon class="st10" points="875.5,39.1 860.5,55.8 846.8,73.5 846.8,78.7 859.2,86.1 866.8,81.8 870.2,73.4 868.1,66.1 
			876.7,44.7 		"/>
		<polygon class="st12" points="882.2,52.9 877.2,58.5 875.5,65.2 878.7,78.7 884.5,88.7 889,86.1 887.2,82.1 881.4,77.2 
			878.7,64.3 		"/>
		<polygon class="st13" points="901.5,75.3 905,81.5 926.7,84.2 945.7,77.3 936.4,67.4 932.7,51.4 932.7,46.2 923.6,28.1 
			913.1,20.1 905,24.1 913.8,29.9 913.8,47.4 916.2,52.2 913.8,62.6 		"/>
		<polygon class="st14" points="873.1,45 857.7,68.9 854.3,80.9 859.2,84.2 864.8,80.2 867.9,73.7 866.8,64.6 873.5,47.4 		"/>
		<polygon class="st15" points="959.4,80.5 959.4,91.4 964.4,93.4 974.6,88.7 971.3,52.2 964.4,78.5 		"/>
		<polygon class="st16" points="857.7,80.6 859.2,70.7 869,59.1 866.8,64.6 867.9,73.7 864.8,80.2 859.2,84.2 		"/>
		<polygon class="st17" points="832.5,84.5 837.5,83.5 841.5,85.5 842.5,89.5 844.5,91.5 839.5,92.5 833.5,91.5 830.5,90.5 
			832.5,87.5 		"/>
		<polygon class="st17" points="908.5,98.5 920.5,98.5 931.5,97.5 933.5,94.5 937.5,94.5 941.5,96.5 949.5,95.5 948.5,92.5 
			946.5,94.5 941.5,94.5 935.5,92.5 930.5,92.5 927.5,95.5 913.5,96.5 		"/>
		<polygon class="st18" points="833.5,85.5 837.5,87.5 840.5,86.5 836.5,84.5 		"/>
	</g>
</g>
<g id="圖層_2">
	<polygon class="st19" points="236.5,85.5 233.5,82.5 233.5,79.5 235.5,79.5 	"/>
	<polygon class="st19" points="315,97 313,93 315,92 316,95 317,92 318,94 319,91 320,94 321,92 322,95 323,91 325,91 324,94 
		326,96 327,97 318,98 	"/>
	<polygon class="st19" points="331,94 334,89 334,91 341,87 338,91 342,90 341,93 346,92 345,95 342,96 336,93 334,93 	"/>
	<polygon class="st19" points="238,85 240,80 243,81 238,86 	"/>
	<polygon class="st19" points="431,77 426,74 422,73 424,71 426,70 428,73 	"/>
	<polygon class="st19" points="442,81 447,77 451,76 452,78 447,80 	"/>
	<polygon class="st19" points="437,86 432,81 435,78 	"/>
	<polygon class="st19" points="515,97 510,95 506,96 507,94 511,93 514,94 512,90 514,90 516,92 517,97 518,92 519,92 519,96 
		521,91 523,91 522,96 525,90 527,90 524,96 528,93 529,96 	"/>
	<polygon class="st19" points="533,93 535,89 536,92 542,89 539,93 543,92 543,94 548,85 547,94 543,96 537,94 	"/>
	<polygon class="st19" points="628,82 624,87 628,88 	"/>
	<polygon class="st19" points="630,77 634,75 636,78 637,85 633,79 	"/>
	<polygon class="st19" points="641,81 646,77 650,77 650,80 646,79 	"/>
	<polygon class="st19" points="644,85 648,85 651,89 	"/>
	<polygon class="st19" points="713,97 713,93 716,95 717,93 720,94 723,92 726,95 727,92 731,96 729,97 712,98 	"/>
	<polygon class="st19" points="732,93 735,91 741,91 740,92 743,94 746,93 748,95 742,96 736,94 733,94 	"/>
	<polygon class="st19" points="828,85 825,86 827,90 	"/>
	<polygon class="st19" points="847,93 843,94 848,96 	"/>
	<polygon class="st19" points="834,79 832,74 829,77 	"/>
	<polygon class="st19" points="837,81 841,80 837,86 	"/>
	<polygon class="st19" points="845,84 849,83 850,86 	"/>
	<polygon class="st19" points="912,97 922,96 926,90 924,97 930,95 932,92 937,93 941,95 946,88 945,95 949,93 949,95 941,96 
		934,94 933,94 931,97 917,98 	"/>
</g>
</svg>
