<?xml version="1.0" encoding="UTF-8" standalone="no"?><!DOCTYPE svg PUBLIC "-//W3C//DTD SVG 1.1//EN" "http://www.w3.org/Graphics/SVG/1.1/DTD/svg11.dtd"><svg width="100%" height="100%" viewBox="0 0 250 300" version="1.1" xmlns="http://www.w3.org/2000/svg" xmlns:xlink="http://www.w3.org/1999/xlink" xml:space="preserve" xmlns:serif="http://www.serif.com/" style="fill-rule:evenodd;clip-rule:evenodd;stroke-linejoin:round;stroke-miterlimit:1.41421;"><path d="M1.419,12.245l12.205,-9.957l146.449,0l8.258,6.289l72.83,0l7.068,7.069l0,274.095l-7.432,7.432l-231.105,0l-8.265,-8.265l-0.008,-276.663Z" style="fill:#0093ff;"/><path d="M9.947,296.841l6.055,-8.652l85.751,0l6.248,8.927l-98.054,-0.275Z" style="fill:#0052a5;"/><g><path d="M22.501,16.291l-6.535,-0.105l-3.788,-6.606l-2.747,-0.105l1.372,2.532l-0.614,1.767l2.652,4.613l-0.38,4.089l1.894,3.145l3.978,0.629l1.043,-1.154l-0.853,-1.571l-3.315,-0.629l0.413,-4.405l5.554,0.42l1.231,1.678l-1.799,3.249l0.094,2.204l1.895,-0.107l2.557,-5.764l-2.652,-3.88Z" style="fill:#00fff8;fill-rule:nonzero;"/><path d="M13.977,10.314l2.652,5.138l2.084,0.105l-2.842,-4.824l-1.894,-0.419Z" style="fill:#00fff8;fill-rule:nonzero;"/><path d="M16.818,10.838l2.749,4.719l2.082,0.103l-2.462,-4.506l-2.369,-0.316Z" style="fill:#00fff8;fill-rule:nonzero;"/></g><text x="30.461px" y="23.238px" style="font-family:'Arial-Black', 'Arial Black', sans-serif;font-weight:900;font-size:12px;fill:#ffe700;">REP<tspan x="56.107px 65.441px " y="23.238px 23.238px ">AI</tspan>R SKILL</text></svg>