<?xml version="1.0" encoding="utf-8"?>
<!-- Generator: Adobe Illustrator 21.0.0, SVG Export Plug-In . SVG Version: 6.00 Build 0)  -->
<svg version="1.1" xmlns="http://www.w3.org/2000/svg" xmlns:xlink="http://www.w3.org/1999/xlink" x="0px" y="0px"
	 viewBox="0 0 200 400" style="enable-background:new 0 0 200 400;" xml:space="preserve">
<style type="text/css">
	.st0{fill:#5B65AD;stroke:#231815;stroke-miterlimit:10;}
	.st1{fill:#D77DB0;stroke:#231815;stroke-miterlimit:10;}
	.st2{fill:#6DC19E;}
	.st3{font-family:'FZCCHFW--GB1-0';}
	.st4{font-size:9.5113px;}
	.st5{fill:#612C16;stroke:#000000;stroke-miterlimit:10;}
	.st6{fill:#9D5924;stroke:#000000;stroke-miterlimit:10;}
	.st7{fill:#8B4022;stroke:#000000;stroke-miterlimit:10;}
	.st8{fill:#6E5324;stroke:#000000;stroke-miterlimit:10;}
	.st9{fill:#F8C4AE;stroke:#000000;stroke-miterlimit:10;}
	.st10{fill:#A76623;stroke:#090103;stroke-miterlimit:10;}
	.st11{fill:none;}
	.st12{opacity:0.68;fill:#231815;}
	.st13{fill:#231815;}
	.st14{opacity:0.36;fill:#231815;}
	.st15{opacity:0.43;fill:#231815;}
	.st16{fill:#F8DB83;}
	.st17{fill:#DE2C8A;stroke:#000000;stroke-miterlimit:10;}
	.st18{fill:#F8C294;stroke:#000000;stroke-miterlimit:10;}
	.st19{fill:#E83B13;stroke:#000000;stroke-miterlimit:10;}
	.st20{fill:#F7C5C0;stroke:#000000;stroke-miterlimit:10;}
	.st21{fill:#FBDBD4;stroke:#000000;stroke-miterlimit:10;}
	.st22{fill:#E44310;stroke:#000000;stroke-miterlimit:10;}
	.st23{fill:#EC6A22;stroke:#000000;stroke-miterlimit:10;}
	.st24{fill:#F8BE86;stroke:#000000;stroke-miterlimit:10;}
	.st25{fill:#E782B1;}
	.st26{opacity:0.66;fill:#8D1D22;}
	.st27{opacity:0.58;fill:#8B3C22;}
	.st28{opacity:0.5;fill:#8B3C22;}
	.st29{opacity:0.28;fill:#D91621;}
	.st30{opacity:0.5;fill:#D91621;}
	.st31{fill:#FFA67A;stroke:#511600;stroke-width:0.25;stroke-miterlimit:10;}
	.st32{font-family:'Impact';}
	.st33{font-size:9px;}
	.st34{fill:#D4145A;stroke:#000000;stroke-miterlimit:10;}
	.st35{fill:none;stroke:#000000;stroke-miterlimit:10;}
	.st36{fill:#8B3C22;stroke:#000000;stroke-miterlimit:10;}
	.st37{opacity:0.53;fill:#8B3C22;}
</style>
<g id="圖層_1">
	<polygon class="st0" points="24.9,36.9 30,44.7 36.6,44.7 47.9,28.1 41.5,23.6 32.4,37.4 29.5,31.6 	"/>
	<circle class="st1" cx="16.5" cy="37.8" r="6.7"/>
	<text transform="matrix(1 0 0 1 9.7501 26.3504)" class="st2 st3 st4">TODO</text>
	<path class="st5" d="M10,84.6l0.2-15.4c0,0,8.8-5.2,10.4-5.8c1.7-0.6,6.3-2.4,7.6-2.7c1.3-0.3,6.2-1.5,7.3-1.6
		c1.1-0.1,5.5,0.5,6.2,1.2c0.7,0.7,1.6,3.1,1.6,3.9c0.1,0.8,0,9.2-0.1,11c0,1.8-0.9,13.3-1.2,13.9c-0.3,0.6-19.4,6.2-20.9,6.5
		c-1.4,0.3-7.4,0-10.6-2.8C9.9,92.3,10,84.6,10,84.6z"/>
	<path class="st6" d="M11,70c0,0,0.8-0.7,3-0.2s3.1,0.9,3.7,1.6c0.6,0.7,0.5,2.7,0.4,4.6c-0.2,1.9-0.8,14.2-0.4,15.3
		c0.4,1.1,1.3,3.5,2.1,4c0.8,0.4,1.4,0.5,2.5,0.2c1.1-0.3,19.7-6.2,19.7-6.2l1.1-5.6l0.1-19.2c0,0,0.3-2-1.6-3.9
		c-1.9-1.9-7.1-1.1-7.1-1.1S21.3,63,18.4,64.6c-2.9,1.6-8.2,4.7-8.2,4.7L11,70z"/>
	<path class="st7" d="M23.6,76.5c0,0,4.3-1.7,8-2.9c3.7-1.2,9.2-2,9.2-2l-0.6,2.4c0,0-5.5,0.9-7.7,1.7c-2.2,0.8-8.8,3.4-8.8,3.4
		L23.6,76.5z"/>
	<path class="st8" d="M27.3,78.1c0,0,4.4-2.1,6.8-2.7c2.4-0.6,4.2-0.3,4.2-0.3l-0.5,13.1l-11,4.1c0,0-0.6-3-0.4-5.6
		c0.2-2.7,0.4-6.9,0.5-7.3C26.9,79,27.3,78.1,27.3,78.1z"/>
	<path class="st9" d="M30.3,89.6c0,0,1.5-1.2,3-1.7c1.5-0.5,2.4-0.2,2.4-0.2l0.1,5.5c0,0-0.4,0.3-1.8,0.8c-1.5,0.5-2.8,0.9-2.8,0.9
		l-1-0.6L30.3,89.6z"/>
	<path class="st10" d="M21.8,65.9c0,0-0.2,0.6,0.6,0.9c0.7,0.3,1.8,0.5,2.4-0.2c0.7-0.6,0.2-3.2,0.4-4.2s0.3-2.5,1.8-3.6
		c1-0.8,3-0.6,3.6-0.3c0.6,0.3,1.1,0.9,1.2,1.5c0.2,1.6,0.2,2.6,0.2,2.6s-0.4,0.3,0.7,0.8s1.9-0.5,2.1-1c0.2-0.5-1.4-3.5-1.9-4.2
		c-0.5-0.7-1.3-1.5-2.6-1.9c-1.3-0.4-2.7-0.4-4.8,0.5c-1.4,0.6-2.8,3-3.1,4C22.2,62,21.8,65.9,21.8,65.9z"/>
	<path id="SVGID_x5F_1_x5F_" class="st11" d="M25.8,72.9c0,0,4.9-2,8.4-2.8c3.5-0.8,11.1-1,11.1-1"/>
	<text>	<textPath  xlink:href="#SVGID_x5F_1_x5F_" startOffset="20.3125%">
<tspan  class="st32" style="font-size:3.254px;">GITHUB</tspan>	</textPath>
</text>
	<path class="st12" d="M10.2,71.1c0,0,3.1-0.8,4.7,1.9c1.6,2.7,2.9,9,2.9,9s1.3-8,0.6-10.3s-5.3-2.1-6-2
		C11.7,69.7,10.2,71.1,10.2,71.1z"/>
	<polygon class="st13" points="31.3,61.6 25.1,64.8 24.8,66.6 33.7,64.1 31.7,63 	"/>
	<polygon class="st13" points="38.3,75.1 40.3,74.1 39.3,87.6 37.8,88.2 	"/>
	<polygon class="st14" points="31.3,76.4 36.8,77.5 37.8,88.2 38.3,75.1 35.1,75.1 	"/>
	<polyline class="st15" points="20.4,81.2 20.4,89.6 21.7,92.4 24.8,93.2 26.8,92.4 23,90.1 	"/>
	<polyline class="st16" points="33,89.3 35.3,88.4 34.5,93.2 	"/>
	<g>
		<path class="st17" d="M16.7,148.1c0,0-0.3-2.3,0.6-3.4c0.9-1.1,1.9-2,3.6-2.4c1.7-0.4,1.6-0.6,2.9-1.2c1.2-0.6,2.2,0,2.2,0
			l8.1,0.1c0,0,2.4,1.2,3.2,1.4c0.8,0.2,1.6,0.1,2.5,0.7c1,0.6,2.5,2.1,2.6,3c0.1,0.9,0.4,2.2,0.4,2.2H16.6L16.7,148.1z"/>
		<path class="st18" d="M26.6,138l-0.7,3.2c0,0-2.3,0.8-1,2c1.3,1.1,4.3,2.5,5.8,2.5c1.5,0,3.6-1,4.3-1.8c0.7-0.8-1.4-1.3-1.4-2.7
			s-0.4-3.5-0.4-3.5s0.1,1.7-2.7,1.7S26.6,138,26.6,138z"/>
		<path class="st18" d="M19.5,118.2v16.1c0,0,1.6,2.4,5,4s3.8,1.8,7.1,1.4c3.4-0.4,6.9-3,7.7-4.4s1.2-17,1.2-17H19.5z"/>
		<path class="st19" d="M19.5,137.6v-19.4h21l-1.2,17c0,0,4-0.4,5-2.8c1-2.4,1.6-5,1.6-8.5s-0.4-7.7-1.6-10.7
			c-1.2-3-2.4-5.7-5.7-7.5c-3.4-1.8-8.9-2.6-11.7-2.2c-2.8,0.4-7.3,2-9.1,4.4c-1.8,2.4-4.2,4.2-5.2,8.7s-1.4,9.7,0,12.4
			C14,131.7,19.5,137.6,19.5,137.6z"/>
		<line class="st18" x1="21.5" y1="120.5" x2="28.8" y2="123.7"/>
		<line class="st18" x1="31.6" y1="123.7" x2="38.4" y2="120.5"/>
		<path class="st20" d="M22.7,124.2c0,0,1.9-0.7,3.3,0c1.4,0.7,2.4,2.7,2.4,2.7s-3.5,0.9-4.5,0.6c-0.9-0.3-3-4-3-4L22.7,124.2z"/>
		<path class="st21" d="M37.6,124.5c0,0-1.8-0.7-3.1,0c-1.3,0.7-2.3,2.7-2.3,2.7s3.4,0.9,4.3,0.6c0.9-0.3,2.8-4,2.8-4L37.6,124.5z"
			/>
		<ellipse transform="matrix(0.824 -0.5666 0.5666 0.824 -66.8085 36.3903)" class="st22" cx="25.2" cy="125.7" rx="1.1" ry="1.1"/>
		<ellipse transform="matrix(0.824 -0.5666 0.5666 0.824 -65.3893 42.058)" class="st23" cx="35" cy="126.3" rx="1.1" ry="1.1"/>
		<path class="st24" d="M31.2,128.4c0,0-0.2,0.7,0,1.2c0.2,0.4,0.7,1.2,1,1.3c0.3,0.1,0.5,0.8,0.5,0.8s-1,0.7-2.2,0.7
			c-1.3,0-1.6-1.1-1.6-1.1"/>
		<path class="st24" d="M27.6,135.3c0,0,0.2,0.2,2,0.2c1.8,0,1.9-0.1,2.3-0.2c0.8-0.2,1.1-0.4,1.1-0.4"/>
		<circle class="st25" cx="23.7" cy="131.2" r="2.2"/>
		<circle class="st25" cx="36.7" cy="131.2" r="2.2"/>
		<path class="st26" d="M19.5,135.5c0,0-4.4-3.5-5.4-6.5c-1-3.1-1.4-2.7-0.8-6.9s0.7-4.3,2.2-6.9c1.5-2.6,5.6-7.1,8.1-7.9
			s7-1.4,9.7-0.8c2.7,0.6,5.9,3,7.1,4.4c1.2,1.4,3.6,5.5,3.7,8.5c0.1,3,0.7,6.5,0,9c-0.7,2.5-4.6,6.1-4.6,6.1s1-4.6,1-8.2
			c0-3.6,0.1-6.9-0.4-8.1s-5.8-0.2-8,0s-7.2-0.4-10.4,0c-2.7,0.4-2.4,3.9-2.9,7.6C18.6,127.5,19.5,135.5,19.5,135.5z"/>
		<polygon class="st27" points="30,139.8 28.3,143.2 28.8,148.6 16.6,148.6 17.3,144.7 21.8,142.1 26,140.9 26.6,139.2 		"/>
		<polygon class="st28" points="28.3,118.2 25.3,122.1 24.6,123.7 22.7,124.2 21.5,124.5 23.9,127.4 27.3,127.4 23.7,132.5 
			23.7,135.5 26.6,139.2 19.5,135.5 19.2,122.1 19.9,118 		"/>
		<path class="st29" d="M27.6,135c0,0,0.5-0.6,0.9-0.9c0.4-0.3,0.9-0.5,1.3-0.5c0.5,0,1.3-0.2,1.8,0c0.5,0.2,0.8,0.6,1,0.9
			s-2.2,0.6-3,0.5C28.9,134.9,27.6,135,27.6,135z"/>
		<path class="st30" d="M27.6,135.5c0,0,0.1,0.6,0.5,0.9c0.4,0.3,0.5,0.4,1.1,0.6s1,0.1,1.5,0s1-0.1,1.4-0.4
			c0.4-0.4,1.1-1.2,1.1-1.2s-0.9,0.4-1.6,0.6C31,135.9,27.6,135.5,27.6,135.5z"/>
		<text transform="matrix(1 0 0 1 3.6613 114.3538)" class="st31 st32 st33">ShanLi</text>
	</g>
</g>
<g id="圖層_2">
	<path class="st17" d="M64.9,148.1c0,0-0.3-2.3,0.6-3.4s1.9-2,3.6-2.4s1.6-0.6,2.9-1.2c1.2-0.6,2.2,0,2.2,0l8.1,0.1
		c0,0,2.4,1.2,3.2,1.4c0.8,0.2,1.6,0.1,2.5,0.7c1,0.6,2.5,2.1,2.6,3c0.1,0.9,0.4,2.2,0.4,2.2H64.8L64.9,148.1z"/>
	<path class="st18" d="M74.8,138l-0.7,3.2c0,0-2.3,0.8-1,2c1.3,1.1,4.3,2.5,5.8,2.5s3.6-1,4.3-1.8c0.7-0.8-1.4-1.3-1.4-2.7
		s-0.4-3.5-0.4-3.5s0.1,1.7-2.7,1.7S74.8,138,74.8,138z"/>
	<path class="st18" d="M67.7,118.2v16.1c0,0,1.6,2.4,5,4c3.4,1.6,3.8,1.8,7.1,1.4c3.4-0.4,6.9-3,7.7-4.4c0.8-1.4,1.2-17,1.2-17H67.7
		z"/>
	<path class="st19" d="M67.7,137.6v-19.4h21l-1.2,17c0,0,4-0.4,5-2.8c1-2.4,1.6-5,1.6-8.5s-0.4-7.7-1.6-10.7c-1.2-3-2.4-5.7-5.7-7.5
		c-3.4-1.8-8.9-2.6-11.7-2.2c-2.8,0.4-7.3,2-9.1,4.4c-1.8,2.4-4.2,4.2-5.2,8.7c-1,4.6-1.4,9.7,0,12.4
		C62.2,131.7,67.7,137.6,67.7,137.6z"/>
	<line class="st18" x1="69.7" y1="120.5" x2="77" y2="123.7"/>
	<line class="st18" x1="79.8" y1="123.7" x2="86.5" y2="120.5"/>
	<path class="st20" d="M70.8,124.2c0,0,1.9-0.7,3.3,0c1.4,0.7,2.4,2.7,2.4,2.7s-3.5,0.9-4.5,0.6c-0.9-0.3-3-4-3-4L70.8,124.2z"/>
	<path class="st21" d="M85.7,124.5c0,0-1.8-0.7-3.1,0c-1.3,0.7-2.3,2.7-2.3,2.7s3.4,0.9,4.3,0.6c0.9-0.3,2.8-4,2.8-4L85.7,124.5z"/>
	<ellipse transform="matrix(0.824 -0.5666 0.5666 0.824 -58.329 63.685)" class="st22" cx="73.3" cy="125.7" rx="1.1" ry="1.1"/>
	<ellipse transform="matrix(0.824 -0.5666 0.5666 0.824 -56.9098 69.3526)" class="st23" cx="83.2" cy="126.3" rx="1.1" ry="1.1"/>
	<path class="st24" d="M79.4,128.4c0,0-0.2,0.7,0,1.2c0.2,0.4,0.7,1.2,1,1.3c0.3,0.1,0.5,0.8,0.5,0.8s-1,0.7-2.2,0.7
		c-1.3,0-1.6-1.1-1.6-1.1"/>
	<circle class="st25" cx="71.9" cy="131.2" r="2.2"/>
	<circle class="st25" cx="84.8" cy="131.2" r="2.2"/>
	<path class="st26" d="M67.7,135.5c0,0-4.4-3.5-5.4-6.5c-1-3.1-1.4-2.7-0.8-6.9c0.6-4.1,0.7-4.3,2.2-6.9c1.5-2.6,5.6-7.1,8.1-7.9
		s7-1.4,9.7-0.8c2.7,0.6,5.9,3,7.1,4.4c1.2,1.4,3.6,5.5,3.7,8.5c0.1,3,0.7,6.5,0,9c-0.7,2.5-4.6,6.1-4.6,6.1s1-4.6,1-8.2
		c0-3.6,0.1-6.9-0.4-8.1s-5.8-0.2-8,0c-2.2,0.2-7.2-0.4-10.4,0c-2.7,0.4-2.4,3.9-2.9,7.6C66.8,127.5,67.7,135.5,67.7,135.5z"/>
	<polygon class="st27" points="78.2,139.8 76.5,143.2 77,148.6 64.8,148.6 65.5,144.7 69.9,142.1 74.2,140.9 74.8,139.2 	"/>
	<polygon class="st28" points="76.5,118.2 73.4,122.1 72.8,123.7 70.8,124.2 69.7,124.5 72,127.4 75.4,127.4 71.9,132.5 71.9,135.5 
		74.8,139.2 67.7,135.5 67.4,122.1 68.1,118 	"/>
	<path class="st29" d="M76,134.5c0,0,0.5-0.6,0.9-0.9c0.4-0.3,0.9-0.5,1.3-0.5s1.3-0.2,1.8,0c0.5,0.2,0.8,0.6,1,0.9
		c0.3,0.3-2.2,0.6-3,0.5S76,134.5,76,134.5z"/>
	<path class="st30" d="M76,135.1c0,0-0.3,1.5,0.1,1.8c0.4,0.3,0.5,0.4,1.1,0.6c0.6,0.2,1,0.1,1.5,0c0.5-0.1,1-0.1,1.4-0.4
		c0.4-0.4,0.1-1.6,0.1-1.6s-0.5,0.7-1.2,0.8C78.5,136.4,76,135.1,76,135.1z"/>
	<text transform="matrix(1 0 0 1 51.8307 114.3538)" class="st31 st32 st33">ShanLi</text>
	<path class="st17" d="M117.4,148.1c0,0-0.3-2.3,0.6-3.4s1.9-2,3.6-2.4c1.7-0.4,1.6-0.6,2.9-1.2c1.2-0.6,2.2,0,2.2,0l8.1,0.1
		c0,0,2.4,1.2,3.2,1.4c0.8,0.2,1.6,0.1,2.5,0.7c1,0.6,2.5,2.1,2.6,3c0.1,0.9,0.4,2.2,0.4,2.2h-26.1L117.4,148.1z"/>
	<path class="st18" d="M127.4,138l-0.7,3.2c0,0-2.3,0.8-1,2c1.3,1.1,4.3,2.5,5.8,2.5s3.6-1,4.3-1.8c0.7-0.8-1.4-1.3-1.4-2.7
		s-0.4-3.5-0.4-3.5s0.1,1.7-2.7,1.7S127.4,138,127.4,138z"/>
	<path class="st18" d="M120.3,118.2v16.1c0,0,1.6,2.4,5,4s3.8,1.8,7.1,1.4c3.4-0.4,6.9-3,7.7-4.4c0.8-1.4,1.2-17,1.2-17H120.3z"/>
	<path class="st19" d="M120.3,137.6v-19.4h21l-1.2,17c0,0,4-0.4,5-2.8c1-2.4,1.6-5,1.6-8.5s-0.4-7.7-1.6-10.7
		c-1.2-3-2.4-5.7-5.7-7.5c-3.4-1.8-8.9-2.6-11.7-2.2c-2.8,0.4-7.3,2-9.1,4.4c-1.8,2.4-4.2,4.2-5.2,8.7c-1,4.6-1.4,9.7,0,12.4
		C114.7,131.7,120.3,137.6,120.3,137.6z"/>
	<line class="st18" x1="122.2" y1="120.5" x2="129.5" y2="123.7"/>
	<line class="st18" x1="132.3" y1="123.7" x2="139.1" y2="120.5"/>
	<path class="st20" d="M123.5,125c0,0,1.8-0.9,3.2-0.4c1.5,0.5,2.7,2.4,2.7,2.4s-1.7-1.8-2.6-2c-1-0.2-5.2-0.5-5.2-0.5L123.5,125z"
		/>
	<path class="st21" d="M138.3,124.5c0,0-1.8-0.7-3.1,0c-1.3,0.7-2.3,2.7-2.3,2.7s3.4,0.9,4.3,0.6c0.9-0.3,2.8-4,2.8-4L138.3,124.5z"
		/>
	<ellipse transform="matrix(0.824 -0.5666 0.5666 0.824 -47.6588 99.1311)" class="st23" cx="135.7" cy="126.3" rx="1.1" ry="1.1"/>
	<path class="st24" d="M131.9,128.4c0,0-0.2,0.7,0,1.2c0.2,0.4,0.7,1.2,1,1.3c0.3,0.1,0.5,0.8,0.5,0.8s-1,0.7-2.2,0.7
		c-1.3,0-1.6-1.1-1.6-1.1"/>
	<circle class="st25" cx="124.5" cy="131.2" r="2.2"/>
	<circle class="st25" cx="137.4" cy="131.2" r="2.2"/>
	<path class="st26" d="M120.3,135.5c0,0-4.4-3.5-5.4-6.5c-1-3.1-1.4-2.7-0.8-6.9c0.6-4.1,0.7-4.3,2.2-6.9c1.5-2.6,5.6-7.1,8.1-7.9
		c2.5-0.8,7-1.4,9.7-0.8c2.7,0.6,5.9,3,7.1,4.4c1.2,1.4,3.6,5.5,3.7,8.5c0.1,3,0.7,6.5,0,9c-0.7,2.5-4.6,6.1-4.6,6.1s1-4.6,1-8.2
		c0-3.6,0.1-6.9-0.4-8.1c-0.5-1.2-5.8-0.2-8,0c-2.2,0.2-7.2-0.4-10.4,0c-2.7,0.4-2.4,3.9-2.9,7.6
		C119.3,127.5,120.3,135.5,120.3,135.5z"/>
	<polygon class="st27" points="130.8,139.8 129,143.2 129.6,148.6 117.4,148.6 118,144.7 122.5,142.1 126.7,140.9 127.4,139.2 	"/>
	<polygon class="st28" points="129,118.2 126,122.1 125.3,123.7 123.4,124.2 127.8,125.1 129,126.3 124.5,126.8 124.5,132.5 
		124.5,135.5 127.4,139.2 120.3,135.5 120,122.1 120.7,118 	"/>
	<text transform="matrix(1 0 0 1 104.3835 114.3538)" class="st31 st32 st33">ShanLi</text>
	<g>
		<path class="st17" d="M165.7,148.1c0,0-0.3-2.3,0.6-3.4c0.9-1.1,1.9-2,3.6-2.4s1.6-0.6,2.9-1.2c1.2-0.6,2.2,0,2.2,0l8.1,0.1
			c0,0,2.4,1.2,3.2,1.4c0.8,0.2,1.6,0.1,2.5,0.7c1,0.6,2.5,2.1,2.6,3c0.1,0.9,0.4,2.2,0.4,2.2h-26.1L165.7,148.1z"/>
		<path class="st18" d="M175.7,138l-0.7,3.2c0,0-2.3,0.8-1,2c1.3,1.1,4.3,2.5,5.8,2.5c1.5,0,3.6-1,4.3-1.8c0.7-0.8-1.4-1.3-1.4-2.7
			s-0.4-3.5-0.4-3.5s0.1,1.7-2.7,1.7S175.7,138,175.7,138z"/>
		<path class="st18" d="M168.5,118.2v16.1c0,0,1.6,2.4,5,4c3.4,1.6,3.8,1.8,7.1,1.4c3.4-0.4,6.9-3,7.7-4.4c0.8-1.4,1.2-17,1.2-17
			H168.5z"/>
		<path class="st19" d="M168.5,137.6v-19.4h21l-1.2,17c0,0,4-0.4,5-2.8c1-2.4,1.6-5,1.6-8.5s-0.4-7.7-1.6-10.7
			c-1.2-3-2.4-5.7-5.7-7.5c-3.4-1.8-8.9-2.6-11.7-2.2c-2.8,0.4-7.3,2-9.1,4.4c-1.8,2.4-4.2,4.2-5.2,8.7s-1.4,9.7,0,12.4
			C163,131.7,168.5,137.6,168.5,137.6z"/>
		<line class="st18" x1="170.5" y1="120.5" x2="177.8" y2="123.7"/>
		<line class="st18" x1="180.6" y1="123.7" x2="187.4" y2="120.5"/>
		<path class="st20" d="M171.7,124.2c0,0,1.9-0.7,3.3,0c1.4,0.7,2.4,2.7,2.4,2.7s-3.5,0.9-4.5,0.6c-0.9-0.3-3-4-3-4L171.7,124.2z"/>
		<path class="st21" d="M186.6,124.5c0,0-1.8-0.7-3.1,0c-1.3,0.7-2.3,2.7-2.3,2.7s3.4,0.9,4.3,0.6c0.9-0.3,2.8-4,2.8-4L186.6,124.5z
			"/>
		
			<ellipse transform="matrix(0.824 -0.5666 0.5666 0.824 -40.5787 120.8219)" class="st22" cx="174.2" cy="125.7" rx="1.1" ry="1.1"/>
		<ellipse transform="matrix(0.824 -0.5666 0.5666 0.824 -39.1595 126.4895)" class="st23" cx="184" cy="126.3" rx="1.1" ry="1.1"/>
		<path class="st24" d="M180.2,128.4c0,0-0.2,0.7,0,1.2c0.2,0.4,0.7,1.2,1,1.3c0.3,0.1,0.5,0.8,0.5,0.8s-1,0.7-2.2,0.7
			c-1.3,0-1.6-1.1-1.6-1.1"/>
		<path class="st24" d="M176.6,135.3c0,0,0.2,0.2,2,0.2s1.9-0.1,2.3-0.2c0.8-0.2,1.1-0.4,1.1-0.4"/>
		<circle class="st25" cx="172.7" cy="131.2" r="2.2"/>
		<circle class="st25" cx="185.7" cy="131.2" r="2.2"/>
		<path class="st26" d="M168.5,135.5c0,0-4.4-3.5-5.4-6.5c-1-3.1-1.4-2.7-0.8-6.9c0.6-4.1,0.7-4.3,2.2-6.9c1.5-2.6,5.6-7.1,8.1-7.9
			s7-1.4,9.7-0.8c2.7,0.6,5.9,3,7.1,4.4c1.2,1.4,3.6,5.5,3.7,8.5s0.7,6.5,0,9c-0.7,2.5-4.6,6.1-4.6,6.1s1-4.6,1-8.2
			c0-3.6,0.1-6.9-0.4-8.1c-0.5-1.2-5.8-0.2-8,0c-2.2,0.2-7.2-0.4-10.4,0c-2.7,0.4-2.4,3.9-2.9,7.6
			C167.6,127.5,168.5,135.5,168.5,135.5z"/>
		<polygon class="st27" points="179,139.8 177.3,143.2 177.8,148.6 165.6,148.6 166.3,144.7 170.8,142.1 175,140.9 175.7,139.2 		
			"/>
		<polygon class="st28" points="177.3,118.2 174.3,122.1 173.6,123.7 171.7,124.2 170.5,124.5 172.9,127.4 176.3,127.4 172.7,132.5 
			172.7,135.5 175.7,139.2 168.5,135.5 168.2,122.1 168.9,118 		"/>
		<path class="st29" d="M176.6,135c0,0,0.5-0.6,0.9-0.9s0.9-0.5,1.3-0.5s1.3-0.2,1.8,0c0.5,0.2,0.8,0.6,1,0.9c0.3,0.3-2.2,0.6-3,0.5
			C177.9,134.9,176.6,135,176.6,135z"/>
		<path class="st30" d="M176.6,135.5c0,0,0.1,0.6,0.5,0.9c0.4,0.3,0.5,0.4,1.1,0.6s1,0.1,1.5,0c0.5-0.1,1-0.1,1.4-0.4
			s1.1-1.2,1.1-1.2s-0.9,0.4-1.6,0.6C180,135.9,176.6,135.5,176.6,135.5z"/>
		<text transform="matrix(1 0 0 1 152.6654 114.3538)" class="st31 st32 st33">ShanLi</text>
	</g>
	<path class="st34" d="M80.3,134.9c0,0-0.5,0.2-1,0.9c-0.2,0.4-0.4,0.4-1.2,0.5c-0.7,0.1-0.7,0.2-1.4-0.3c-0.1-0.1-0.7-1.2-0.7-1.2"
		/>
	<path class="st35" d="M127.5,134.1c0,0,0.8,0.6,2.5,0c0.7-0.2,2.2-0.4,2.7,0c0.7,0.6,1.7,0.1,1.7,0.1"/>
	<path class="st29" d="M128.5,134.5c0,0,0.5-0.6,0.9-0.9c0.4-0.3,0.9-0.5,1.3-0.5s1.3-0.2,1.8,0c0.5,0.2,0.8,0.6,1,0.9
		s-2.2,0.6-3,0.5C129.9,134.4,128.5,134.5,128.5,134.5z"/>
	<path class="st30" d="M128.8,135.8c0,0-0.3,1.5,0.1,1.8c0.4,0.3,0.5,0.4,1.1,0.6c0.6,0.2,1,0.1,1.5,0s1-0.1,1.4-0.4
		c0.4-0.4,0.1-1.6,0.1-1.6s-1,1.1-1.7,1.2C130.8,137.5,128.8,135.8,128.8,135.8z"/>
	<path class="st34" d="M133.4,134.6c0,0-0.6,1.1-1,1.7c-0.2,0.4-0.4,0.6-1.2,0.7c-0.7,0.1-1,0-1.5-0.8c-0.3-0.5-1.1-1.8-1.1-1.8"/>
	<path class="st35" d="M75.8,135.3c0,0,0.1-0.3,1.8-0.8c0.7-0.2,2.2-0.4,2.7,0c0.7,0.6,0.5,1,0.5,1"/>
</g>
<g id="圖層_3">
	<path class="st18" d="M136.3,140.4c0,0-0.1,1.3,0,1.8c0.1,0.4,0.5,1.2,0.5,1.6c0,0.4,0.4,1.6,0.4,1.9s0,1.5,0,1.5l-0.3,1.3l4.9,0.2
		v-1.9l-3-4.2v-2.7"/>
	<path class="st18" d="M136.3,140.9c0,0-0.3-0.5,0-1.1c0.3-0.6,1-1.8,2-1.9c1-0.1,2.7-0.3,3.6-0.3c0.9,0.1,2.2,0.3,2.6,0.5
		c0.5,0.2,2.1,0.7,2.4,1.1c0.3,0.4,1,1,1.3,1.3s0.7,1.4,0.7,1.4s-1.6,0.4-2.1,0.4s0.3,0.1,0.6,0.7c0.3,0.6,0.3,1.1,0.3,1.4
		c0,0.3-0.3,1.1-0.4,1.5s-5.1,0.8-5.5,0.7s-2.7-3.1-2.8-3.9s0-2.4,0-2.4"/>
	<path class="st18" d="M84.2,140.6c0,0,0.1,0.7,0.7,1.2s4.4,0.8,4.9,0.3c0.5-0.4,1.2-1.1,1.4-1.5c0.2-0.4,0.9-1.5,0.9-2.1
		c0-0.5,0.1-1.4,0.1-1.9c0-0.5-0.4-1.8-0.4-1.8s-1.3,0.1-1.6,0.3c-0.3,0.2,0.1-0.2-0.1-1c-0.2-0.7-0.4-1.3-0.6-1.6
		c-0.2-0.3-0.5-0.6-0.8-1.1c-0.4-0.5-4.5,1.7-4.7,1.9c-0.2,0.3-0.8,4.4-0.4,5.3C83.8,139.6,84.2,140.6,84.2,140.6"/>
	<path class="st18" d="M84.3,140.5c0,0-0.1,1.3,0,1.8c0.1,0.4,0.5,1.2,0.5,1.6c0,0.4,0.4,1.6,0.4,1.9c0,0.3,0,1.5,0,1.5l-0.3,1.3
		l4.9,0.2v-1.9l-0.3-4.1l0.3-0.5"/>
	<path class="st18" d="M141.3,142.5c0,0,1,0.7,1.3,1.3c0.3,0.6,0.4,1.3,0.4,1.7s-0.3,1.3-0.3,1.3"/>
	<path class="st18" d="M143.9,142.7c0.4,0.5,0.5,0.9,0.6,1.2c0.1,0.3,0.1,0.8,0.1,1.3s-0.1,0.6-0.2,1"/>
	<path class="st18" d="M145.7,142.9c0,0,0.2,0.4,0.4,0.9s0,0.4,0,0.7c0,0.4-0.1,1.4-0.2,1.6"/>
	<path class="st18" d="M147.2,142.4c0,0-1.5-0.8-1.7-1c-0.2-0.2-0.6-0.8-0.7-1"/>
	<line class="st36" x1="85.4" y1="136.9" x2="85.2" y2="133.5"/>
	<line class="st18" x1="86.5" y1="132.5" x2="87" y2="136.9"/>
	<line class="st18" x1="88.1" y1="131.5" x2="88.7" y2="135.8"/>
	<polygon class="st28" points="86.2,148.6 86.2,143.4 85.5,140.8 84.5,139.3 83.5,137.3 	"/>
</g>
<g id="圖層_4">
	<polygon class="st37" points="138.6,142.2 139.3,146.2 140.5,148.5 142.1,148.5 141.8,146.7 	"/>
</g>
</svg>
