<?xml version="1.0" encoding="utf-8"?>
<!-- Generator: Adobe Illustrator 21.0.0, SVG Export Plug-In . SVG Version: 6.00 Build 0)  -->
<svg version="1.1" xmlns="http://www.w3.org/2000/svg" xmlns:xlink="http://www.w3.org/1999/xlink" x="0px" y="0px"
	 viewBox="0 0 200 400" style="enable-background:new 0 0 200 400;" xml:space="preserve">
<style type="text/css">
	.st0{fill:#5B65AD;stroke:#231815;stroke-miterlimit:10;}
	.st1{fill:#D77DB0;stroke:#231815;stroke-miterlimit:10;}
	.st2{fill:#6DC19E;}
	.st3{font-family:'FZCCHFW--GB1-0';}
	.st4{font-size:9.5113px;}
	.st5{fill:#EC6526;stroke:#231815;stroke-miterlimit:10;}
	.st6{fill:#75C4A9;stroke:#231815;stroke-miterlimit:10;}
	.st7{fill:#E7291D;}
	.st8{opacity:0.68;fill:#231815;}
	.st9{fill:#612C16;stroke:#000000;stroke-miterlimit:10;}
	.st10{fill:#9D5924;stroke:#000000;stroke-miterlimit:10;}
	.st11{fill:#8B4022;stroke:#000000;stroke-miterlimit:10;}
	.st12{fill:#6E5324;stroke:#000000;stroke-miterlimit:10;}
	.st13{fill:#F8C4AE;stroke:#000000;stroke-miterlimit:10;}
	.st14{fill:#A76623;stroke:#090103;stroke-miterlimit:10;}
	.st15{fill:none;}
	.st16{fill:#231815;}
	.st17{opacity:0.36;fill:#231815;}
	.st18{opacity:0.43;fill:#231815;}
	.st19{fill:#F8DB83;}
	.st20{fill:#DE2C8A;stroke:#000000;stroke-miterlimit:10;}
	.st21{fill:#F8C294;stroke:#000000;stroke-miterlimit:10;}
	.st22{fill:#E83B13;stroke:#000000;stroke-miterlimit:10;}
	.st23{fill:#F7C5C0;stroke:#000000;stroke-miterlimit:10;}
	.st24{fill:#FBDBD4;stroke:#000000;stroke-miterlimit:10;}
	.st25{fill:#E44310;stroke:#000000;stroke-miterlimit:10;}
	.st26{fill:#EC6A22;stroke:#000000;stroke-miterlimit:10;}
	.st27{fill:#F8BE86;stroke:#000000;stroke-miterlimit:10;}
	.st28{fill:#E782B1;}
	.st29{opacity:0.66;fill:#8D1D22;}
	.st30{opacity:0.58;fill:#8B3C22;}
	.st31{opacity:0.5;fill:#8B3C22;}
	.st32{opacity:0.28;fill:#D91621;}
	.st33{opacity:0.5;fill:#D91621;}
	.st34{fill:#FCEE21;stroke:#FF0000;stroke-width:0.25;stroke-miterlimit:10;}
	.st35{font-family:'PoplarStd';}
	.st36{font-size:10.3272px;}
	.st37{font-size:9px;}
	.st38{fill:#D4145A;stroke:#000000;stroke-miterlimit:10;}
	.st39{fill:none;stroke:#000000;stroke-miterlimit:10;}
	.st40{font-size:5.8484px;}
	.st41{fill:#8B3C22;stroke:#000000;stroke-miterlimit:10;}
	.st42{fill:#81C58E;stroke:#000000;stroke-miterlimit:10;}
	.st43{fill:#FF0000;stroke:#000000;stroke-miterlimit:10;}
	.st44{opacity:0.53;fill:#8B3C22;}
	.st45{fill:#FCEE21;}
</style>
<g id="圖層_1">
	<polygon class="st0" points="24.9,36.9 30,44.7 36.6,44.7 47.9,28.1 41.5,23.6 32.4,37.4 29.5,31.6 	"/>
	<circle class="st1" cx="16.5" cy="37.8" r="6.7"/>
	<text transform="matrix(1 0 0 1 9.7501 26.3504)" class="st2 st3 st4">TODO</text>
	<polygon class="st0" points="74.6,36.9 79.7,44.7 86.3,44.7 97.6,28.1 91.2,23.6 82.1,37.4 79.2,31.6 	"/>
	<circle class="st1" cx="66.2" cy="37.8" r="6.7"/>
	<text transform="matrix(1 0 0 1 59.4497 26.3504)" class="st2 st3 st4">TODO</text>
	<polygon class="st0" points="125.4,36.9 130.6,44.7 137.2,44.7 148.5,28.1 142.1,23.6 133,37.4 130.1,31.6 	"/>
	<circle class="st1" cx="117" cy="37.8" r="6.7"/>
	<text transform="matrix(1 0 0 1 110.3146 26.3504)" class="st2 st3 st4">TODO</text>
	<polygon class="st5" points="175.2,36.9 180.4,44.7 186.9,44.7 198.2,28.1 191.8,23.6 182.8,37.4 179.9,31.6 	"/>
	<circle class="st6" cx="166.8" cy="37.8" r="6.7"/>
	<text transform="matrix(1 0 0 1 160.0761 26.3504)" class="st7 st3 st4">TODO</text>
	<path class="st8" d="M10.2,71.1c0,0,3.1-0.8,4.7,1.9c1.6,2.7,2.9,9,2.9,9s1.3-8,0.6-10.3s-5.3-2.1-6-2
		C11.7,69.7,10.2,71.1,10.2,71.1z"/>
	<g>
		<path class="st9" d="M10,84.4L10.2,69c0,0,8.8-5.2,10.4-5.8c1.7-0.6,6.3-2.4,7.6-2.7c1.3-0.3,6.2-1.5,7.3-1.6s5.5,0.5,6.2,1.2
			c0.7,0.7,1.6,3.1,1.6,3.9c0.1,0.8,0,9.2-0.1,11c0,1.8-0.9,13.3-1.2,13.9c-0.3,0.6-19.4,6.2-20.9,6.5c-1.4,0.3-7.4,0-10.6-2.8
			C9.9,92,10,84.4,10,84.4z"/>
		<path class="st10" d="M11,69.7c0,0,0.8-0.7,3-0.2c2.3,0.4,3.1,0.9,3.7,1.6c0.6,0.7,0.5,2.7,0.4,4.6c-0.2,1.9-0.8,14.2-0.4,15.3
			c0.4,1.1,1.3,3.5,2.1,4c0.8,0.4,1.4,0.5,2.5,0.2C23.5,94.9,42,89,42,89l1.1-5.6l0.1-19.2c0,0,0.3-2-1.6-3.9
			c-1.9-1.9-7.1-1.1-7.1-1.1s-13.3,3.7-16.2,5.3C15.4,66,10.2,69,10.2,69L11,69.7z"/>
		<path class="st11" d="M23.6,76.2c0,0,4.3-1.7,8-2.9c3.7-1.2,9.2-2,9.2-2l-0.6,2.4c0,0-5.5,0.9-7.7,1.7S23.8,79,23.8,79L23.6,76.2z
			"/>
		<path class="st12" d="M27.3,77.9c0,0,4.4-2.1,6.8-2.7c2.4-0.6,4.2-0.3,4.2-0.3L37.8,88l-11,4.1c0,0-0.6-3-0.4-5.6
			c0.2-2.7,0.4-6.9,0.5-7.3S27.3,77.9,27.3,77.9z"/>
		<path class="st13" d="M30.3,89.3c0,0,1.5-1.2,3-1.7c1.5-0.5,2.4-0.2,2.4-0.2l0.1,5.5c0,0-0.4,0.3-1.8,0.8
			c-1.5,0.5-2.8,0.9-2.8,0.9l-1-0.6L30.3,89.3z"/>
		<path class="st14" d="M21.8,65.6c0,0-0.2,0.6,0.6,0.9c0.7,0.3,1.8,0.5,2.4-0.2c0.7-0.6,0.2-3.2,0.4-4.2c0.2-1,0.3-2.5,1.8-3.6
			c1-0.8,3-0.6,3.6-0.3c0.6,0.3,1.1,0.9,1.2,1.5c0.2,1.6,0.2,2.6,0.2,2.6s-0.4,0.3,0.7,0.8s1.9-0.5,2.1-1c0.2-0.5-1.4-3.5-1.9-4.2
			c-0.5-0.7-1.3-1.5-2.6-1.9c-1.3-0.4-2.7-0.4-4.8,0.5c-1.4,0.6-2.8,3-3.1,4C22.2,61.7,21.8,65.6,21.8,65.6z"/>
		<path id="SVGID_x5F_1_x5F_" class="st15" d="M25.8,72.7c0,0,4.9-2,8.4-2.8c3.5-0.8,11.1-1,11.1-1"/>
		<text>		<textPath  xlink:href="#SVGID_x5F_1_x5F_" startOffset="20.3125%">
<tspan  style="font-family:'Impact'; font-size:3.254px;">GITHUB</tspan>		</textPath>
</text>
		<polygon class="st16" points="31.3,61.4 25.1,64.6 24.8,66.4 33.7,63.9 31.7,62.8 		"/>
		<polygon class="st16" points="38.3,74.9 40.3,73.8 39.3,87.3 37.8,88 		"/>
		<polygon class="st17" points="31.3,76.1 36.8,77.3 37.8,88 38.3,74.9 35.1,74.8 		"/>
		<polyline class="st18" points="20.4,80.9 20.4,89.3 21.7,92.1 24.8,92.9 26.8,92.1 23,89.9 		"/>
		<polyline class="st19" points="33,89.1 35.3,88.2 34.5,92.9 		"/>
	</g>
	<path class="st20" d="M16.7,148.1c0,0-0.3-2.3,0.6-3.4c0.9-1.1,1.9-2,3.6-2.4c1.7-0.4,1.6-0.6,2.9-1.2c1.2-0.6,2.2,0,2.2,0l8.1,0.1
		c0,0,2.4,1.2,3.2,1.4c0.8,0.2,1.6,0.1,2.5,0.7c1,0.6,2.5,2.1,2.6,3c0.1,0.9,0.4,2.2,0.4,2.2H16.6L16.7,148.1z"/>
	<path class="st21" d="M26.6,138l-0.7,3.2c0,0-2.3,0.8-1,2c1.3,1.1,4.3,2.5,5.8,2.5c1.5,0,3.6-1,4.3-1.8c0.7-0.8-1.4-1.3-1.4-2.7
		s-0.4-3.5-0.4-3.5s0.1,1.7-2.7,1.7S26.6,138,26.6,138z"/>
	<path class="st21" d="M19.5,118.2v16.1c0,0,1.6,2.4,5,4s3.8,1.8,7.1,1.4c3.4-0.4,6.9-3,7.7-4.4s1.2-17,1.2-17H19.5z"/>
	<path class="st22" d="M19.5,137.6v-19.4h21l-1.2,17c0,0,4-0.4,5-2.8c1-2.4,1.6-5,1.6-8.5s-0.4-7.7-1.6-10.7c-1.2-3-2.4-5.7-5.7-7.5
		c-3.4-1.8-8.9-2.6-11.7-2.2c-2.8,0.4-7.3,2-9.1,4.4c-1.8,2.4-4.2,4.2-5.2,8.7s-1.4,9.7,0,12.4C14,131.7,19.5,137.6,19.5,137.6z"/>
	<line class="st21" x1="21.5" y1="120.5" x2="28.8" y2="123.7"/>
	<line class="st21" x1="31.6" y1="123.7" x2="38.4" y2="120.5"/>
	<path class="st23" d="M22.7,124.2c0,0,1.9-0.7,3.3,0c1.4,0.7,2.4,2.7,2.4,2.7s-3.5,0.9-4.5,0.6c-0.9-0.3-3-4-3-4L22.7,124.2z"/>
	<path class="st24" d="M37.6,124.5c0,0-1.8-0.7-3.1,0c-1.3,0.7-2.3,2.7-2.3,2.7s3.4,0.9,4.3,0.6c0.9-0.3,2.8-4,2.8-4L37.6,124.5z"/>
	<ellipse transform="matrix(0.824 -0.5666 0.5666 0.824 -66.8085 36.3903)" class="st25" cx="25.2" cy="125.7" rx="1.1" ry="1.1"/>
	<ellipse transform="matrix(0.824 -0.5666 0.5666 0.824 -65.3893 42.058)" class="st26" cx="35" cy="126.3" rx="1.1" ry="1.1"/>
	<path class="st27" d="M31.2,128.4c0,0-0.2,0.7,0,1.2c0.2,0.4,0.7,1.2,1,1.3c0.3,0.1,0.5,0.8,0.5,0.8s-1,0.7-2.2,0.7
		c-1.3,0-1.6-1.1-1.6-1.1"/>
	<path class="st27" d="M27.6,135.3c0,0,0.2,0.2,2,0.2c1.8,0,1.9-0.1,2.3-0.2c0.8-0.2,1.1-0.4,1.1-0.4"/>
	<circle class="st28" cx="23.7" cy="131.2" r="2.2"/>
	<circle class="st28" cx="36.7" cy="131.2" r="2.2"/>
	<path class="st29" d="M19.5,135.5c0,0-4.4-3.5-5.4-6.5c-1-3.1-1.4-2.7-0.8-6.9s0.7-4.3,2.2-6.9c1.5-2.6,5.6-7.1,8.1-7.9
		s7-1.4,9.7-0.8c2.7,0.6,5.9,3,7.1,4.4c1.2,1.4,3.6,5.5,3.7,8.5c0.1,3,0.7,6.5,0,9c-0.7,2.5-4.6,6.1-4.6,6.1s1-4.6,1-8.2
		c0-3.6,0.1-6.9-0.4-8.1s-5.8-0.2-8,0s-7.2-0.4-10.4,0c-2.7,0.4-2.4,3.9-2.9,7.6C18.6,127.5,19.5,135.5,19.5,135.5z"/>
	<polygon class="st30" points="30,139.8 28.3,143.2 28.8,148.6 16.6,148.6 17.3,144.7 21.8,142.1 26,140.9 26.6,139.2 	"/>
	<polygon class="st31" points="28.3,118.2 25.3,122.1 24.6,123.7 22.7,124.2 21.5,124.5 23.9,127.4 27.3,127.4 23.7,132.5 
		23.7,135.5 26.6,139.2 19.5,135.5 19.2,122.1 19.9,118 	"/>
	<path class="st32" d="M27.6,135c0,0,0.5-0.6,0.9-0.9c0.4-0.3,0.9-0.5,1.3-0.5c0.5,0,1.3-0.2,1.8,0c0.5,0.2,0.8,0.6,1,0.9
		s-2.2,0.6-3,0.5C28.9,134.9,27.6,135,27.6,135z"/>
	<path class="st33" d="M27.6,135.5c0,0,0.1,0.6,0.5,0.9c0.4,0.3,0.5,0.4,1.1,0.6s1,0.1,1.5,0s1-0.1,1.4-0.4c0.4-0.4,1.1-1.2,1.1-1.2
		s-0.9,0.4-1.6,0.6C31,135.9,27.6,135.5,27.6,135.5z"/>
</g>
<g id="圖層_2">
	<path class="st20" d="M64.9,148.1c0,0-0.3-2.3,0.6-3.4s1.9-2,3.6-2.4s1.6-0.6,2.9-1.2c1.2-0.6,2.2,0,2.2,0l8.1,0.1
		c0,0,2.4,1.2,3.2,1.4c0.8,0.2,1.6,0.1,2.5,0.7c1,0.6,2.5,2.1,2.6,3c0.1,0.9,0.4,2.2,0.4,2.2H64.8L64.9,148.1z"/>
	<path class="st21" d="M74.8,138l-0.7,3.2c0,0-2.3,0.8-1,2c1.3,1.1,4.3,2.5,5.8,2.5s3.6-1,4.3-1.8c0.7-0.8-1.4-1.3-1.4-2.7
		s-0.4-3.5-0.4-3.5s0.1,1.7-2.7,1.7S74.8,138,74.8,138z"/>
	<path class="st21" d="M67.7,118.2v16.1c0,0,1.6,2.4,5,4c3.4,1.6,3.8,1.8,7.1,1.4c3.4-0.4,6.9-3,7.7-4.4c0.8-1.4,1.2-17,1.2-17H67.7
		z"/>
	<path class="st22" d="M67.7,137.6v-19.4h21l-1.2,17c0,0,4-0.4,5-2.8c1-2.4,1.6-5,1.6-8.5s-0.4-7.7-1.6-10.7c-1.2-3-2.4-5.7-5.7-7.5
		c-3.4-1.8-8.9-2.6-11.7-2.2c-2.8,0.4-7.3,2-9.1,4.4c-1.8,2.4-4.2,4.2-5.2,8.7c-1,4.6-1.4,9.7,0,12.4
		C62.2,131.7,67.7,137.6,67.7,137.6z"/>
	<line class="st21" x1="69.7" y1="120.5" x2="77" y2="123.7"/>
	<line class="st21" x1="79.8" y1="123.7" x2="86.5" y2="120.5"/>
	<path class="st23" d="M70.8,124.2c0,0,1.9-0.7,3.3,0c1.4,0.7,2.4,2.7,2.4,2.7s-3.5,0.9-4.5,0.6c-0.9-0.3-3-4-3-4L70.8,124.2z"/>
	<path class="st24" d="M85.7,124.5c0,0-1.8-0.7-3.1,0c-1.3,0.7-2.3,2.7-2.3,2.7s3.4,0.9,4.3,0.6c0.9-0.3,2.8-4,2.8-4L85.7,124.5z"/>
	<ellipse transform="matrix(0.824 -0.5666 0.5666 0.824 -58.329 63.685)" class="st25" cx="73.3" cy="125.7" rx="1.1" ry="1.1"/>
	<ellipse transform="matrix(0.824 -0.5666 0.5666 0.824 -56.9098 69.3526)" class="st26" cx="83.2" cy="126.3" rx="1.1" ry="1.1"/>
	<path class="st27" d="M79.4,128.4c0,0-0.2,0.7,0,1.2c0.2,0.4,0.7,1.2,1,1.3c0.3,0.1,0.5,0.8,0.5,0.8s-1,0.7-2.2,0.7
		c-1.3,0-1.6-1.1-1.6-1.1"/>
	<circle class="st28" cx="71.9" cy="131.2" r="2.2"/>
	<circle class="st28" cx="84.8" cy="131.2" r="2.2"/>
	<path class="st29" d="M67.7,135.5c0,0-4.4-3.5-5.4-6.5c-1-3.1-1.4-2.7-0.8-6.9c0.6-4.1,0.7-4.3,2.2-6.9c1.5-2.6,5.6-7.1,8.1-7.9
		s7-1.4,9.7-0.8c2.7,0.6,5.9,3,7.1,4.4c1.2,1.4,3.6,5.5,3.7,8.5c0.1,3,0.7,6.5,0,9c-0.7,2.5-4.6,6.1-4.6,6.1s1-4.6,1-8.2
		c0-3.6,0.1-6.9-0.4-8.1s-5.8-0.2-8,0c-2.2,0.2-7.2-0.4-10.4,0c-2.7,0.4-2.4,3.9-2.9,7.6C66.8,127.5,67.7,135.5,67.7,135.5z"/>
	<polygon class="st30" points="78.2,139.8 76.5,143.2 77,148.6 64.8,148.6 65.5,144.7 69.9,142.1 74.2,140.9 74.8,139.2 	"/>
	<polygon class="st31" points="76.5,118.2 73.4,122.1 72.8,123.7 70.8,124.2 69.7,124.5 72,127.4 75.4,127.4 71.9,132.5 71.9,135.5 
		74.8,139.2 67.7,135.5 67.4,122.1 68.1,118 	"/>
	<path class="st32" d="M76,134.5c0,0,0.5-0.6,0.9-0.9c0.4-0.3,0.9-0.5,1.3-0.5s1.3-0.2,1.8,0c0.5,0.2,0.8,0.6,1,0.9
		c0.3,0.3-2.2,0.6-3,0.5S76,134.5,76,134.5z"/>
	<path class="st33" d="M76,135.1c0,0-0.3,1.5,0.1,1.8c0.4,0.3,0.5,0.4,1.1,0.6c0.6,0.2,1,0.1,1.5,0c0.5-0.1,1-0.1,1.4-0.4
		c0.4-0.4,0.1-1.6,0.1-1.6s-0.5,0.7-1.2,0.8C78.5,136.4,76,135.1,76,135.1z"/>
	<path class="st20" d="M117.4,148.1c0,0-0.3-2.3,0.6-3.4s1.9-2,3.6-2.4c1.7-0.4,1.6-0.6,2.9-1.2c1.2-0.6,2.2,0,2.2,0l8.1,0.1
		c0,0,2.4,1.2,3.2,1.4c0.8,0.2,1.6,0.1,2.5,0.7c1,0.6,2.5,2.1,2.6,3c0.1,0.9,0.4,2.2,0.4,2.2h-26.1L117.4,148.1z"/>
	<path class="st21" d="M127.4,138l-0.7,3.2c0,0-2.3,0.8-1,2c1.3,1.1,4.3,2.5,5.8,2.5s3.6-1,4.3-1.8c0.7-0.8-1.4-1.3-1.4-2.7
		s-0.4-3.5-0.4-3.5s0.1,1.7-2.7,1.7S127.4,138,127.4,138z"/>
	<path class="st21" d="M120.3,118.2v16.1c0,0,1.6,2.4,5,4s3.8,1.8,7.1,1.4c3.4-0.4,6.9-3,7.7-4.4c0.8-1.4,1.2-17,1.2-17H120.3z"/>
	<path class="st22" d="M120.3,137.6v-19.4h21l-1.2,17c0,0,4-0.4,5-2.8c1-2.4,1.6-5,1.6-8.5s-0.4-7.7-1.6-10.7
		c-1.2-3-2.4-5.7-5.7-7.5c-3.4-1.8-8.9-2.6-11.7-2.2c-2.8,0.4-7.3,2-9.1,4.4c-1.8,2.4-4.2,4.2-5.2,8.7c-1,4.6-1.4,9.7,0,12.4
		C114.7,131.7,120.3,137.6,120.3,137.6z"/>
	<line class="st21" x1="122.2" y1="120.5" x2="129.5" y2="123.7"/>
	<line class="st21" x1="132.3" y1="123.7" x2="139.1" y2="120.5"/>
	<path class="st23" d="M123.5,125c0,0,1.8-0.9,3.2-0.4c1.5,0.5,2.7,2.4,2.7,2.4s-1.7-1.8-2.6-2c-1-0.2-5.2-0.5-5.2-0.5L123.5,125z"
		/>
	<path class="st24" d="M138.3,124.5c0,0-1.8-0.7-3.1,0c-1.3,0.7-2.3,2.7-2.3,2.7s3.4,0.9,4.3,0.6c0.9-0.3,2.8-4,2.8-4L138.3,124.5z"
		/>
	<ellipse transform="matrix(0.824 -0.5666 0.5666 0.824 -47.6588 99.1311)" class="st26" cx="135.7" cy="126.3" rx="1.1" ry="1.1"/>
	<path class="st27" d="M131.9,128.4c0,0-0.2,0.7,0,1.2c0.2,0.4,0.7,1.2,1,1.3c0.3,0.1,0.5,0.8,0.5,0.8s-1,0.7-2.2,0.7
		c-1.3,0-1.6-1.1-1.6-1.1"/>
	<circle class="st28" cx="124.5" cy="131.2" r="2.2"/>
	<circle class="st28" cx="137.4" cy="131.2" r="2.2"/>
	<path class="st29" d="M120.3,135.5c0,0-4.4-3.5-5.4-6.5c-1-3.1-1.4-2.7-0.8-6.9c0.6-4.1,0.7-4.3,2.2-6.9c1.5-2.6,5.6-7.1,8.1-7.9
		c2.5-0.8,7-1.4,9.7-0.8c2.7,0.6,5.9,3,7.1,4.4c1.2,1.4,3.6,5.5,3.7,8.5c0.1,3,0.7,6.5,0,9c-0.7,2.5-4.6,6.1-4.6,6.1s1-4.6,1-8.2
		c0-3.6,0.1-6.9-0.4-8.1c-0.5-1.2-5.8-0.2-8,0c-2.2,0.2-7.2-0.4-10.4,0c-2.7,0.4-2.4,3.9-2.9,7.6
		C119.3,127.5,120.3,135.5,120.3,135.5z"/>
	<polygon class="st30" points="130.8,139.8 129,143.2 129.6,148.6 117.4,148.6 118,144.7 122.5,142.1 126.7,140.9 127.4,139.2 	"/>
	<polygon class="st31" points="129,118.2 126,122.1 125.3,123.7 123.4,124.2 127.8,125.1 129,126.3 124.5,126.8 124.5,132.5 
		124.5,135.5 127.4,139.2 120.3,135.5 120,122.1 120.7,118 	"/>
	<path class="st20" d="M165.7,148.1c0,0-0.3-2.3,0.6-3.4c0.9-1.1,1.9-2,3.6-2.4s1.6-0.6,2.9-1.2c1.2-0.6,2.2,0,2.2,0l8.1,0.1
		c0,0,2.4,1.2,3.2,1.4c0.8,0.2,1.6,0.1,2.5,0.7c1,0.6,2.5,2.1,2.6,3c0.1,0.9,0.4,2.2,0.4,2.2h-26.1L165.7,148.1z"/>
	<path class="st21" d="M175.7,138l-0.7,3.2c0,0-2.3,0.8-1,2c1.3,1.1,4.3,2.5,5.8,2.5c1.5,0,3.6-1,4.3-1.8c0.7-0.8-1.4-1.3-1.4-2.7
		s-0.4-3.5-0.4-3.5s0.1,1.7-2.7,1.7S175.7,138,175.7,138z"/>
	<path class="st21" d="M168.5,118.2v16.1c0,0,1.6,2.4,5,4c3.4,1.6,3.8,1.8,7.1,1.4c3.4-0.4,6.9-3,7.7-4.4c0.8-1.4,1.2-17,1.2-17
		H168.5z"/>
	<path class="st22" d="M168.5,137.6v-19.4h21l-1.2,17c0,0,4-0.4,5-2.8c1-2.4,1.6-5,1.6-8.5s-0.4-7.7-1.6-10.7
		c-1.2-3-2.4-5.7-5.7-7.5c-3.4-1.8-8.9-2.6-11.7-2.2c-2.8,0.4-7.3,2-9.1,4.4c-1.8,2.4-4.2,4.2-5.2,8.7s-1.4,9.7,0,12.4
		C163,131.7,168.5,137.6,168.5,137.6z"/>
	<line class="st21" x1="170.5" y1="120.5" x2="177.8" y2="123.7"/>
	<line class="st21" x1="180.6" y1="123.7" x2="187.4" y2="120.5"/>
	<path class="st23" d="M171.6,125.4c0,0,1.7-1.1,3.2-0.7c1.5,0.3,2,1.1,2,1.1s-1.3-0.7-2.2-0.8c-1-0.1-4.8,0.1-4.8,0.1L171.6,125.4z
		"/>
	<path class="st24" d="M186.6,124.6c0,0-1.8-0.2-3.1,0.5c-1.3,0.7-1.5,1.5-1.5,1.5s2.1-1.3,3-1.3c2-0.1,3.2-1,3.2-1L186.6,124.6z"/>
	<path class="st27" d="M180.2,128.4c0,0-0.2,0.7,0,1.2c0.2,0.4,0.7,1.2,1,1.3c0.3,0.1,0.5,0.8,0.5,0.8s-1,0.7-2.2,0.7
		c-1.3,0-1.6-1.1-1.6-1.1"/>
	<path class="st27" d="M175.7,135.1c0,0,2-1.1,3.8-1.1c1.8,0,1.4,0.5,1.9,0.7c0.9,0.3,1.4-0.3,1.3-0.2"/>
	<circle class="st28" cx="172.7" cy="131.2" r="2.2"/>
	<circle class="st28" cx="185.7" cy="131.2" r="2.2"/>
	<path class="st29" d="M168.5,135.5c0,0-4.4-3.5-5.4-6.5c-1-3.1-1.4-2.7-0.8-6.9c0.6-4.1,0.7-4.3,2.2-6.9c1.5-2.6,5.6-7.1,8.1-7.9
		s7-1.4,9.7-0.8c2.7,0.6,5.9,3,7.1,4.4c1.2,1.4,3.6,5.5,3.7,8.5s0.7,6.5,0,9c-0.7,2.5-4.6,6.1-4.6,6.1s1-4.6,1-8.2
		c0-3.6,0.1-6.9-0.4-8.1c-0.5-1.2-5.8-0.2-8,0c-2.2,0.2-7.2-0.4-10.4,0c-2.7,0.4-2.4,3.9-2.9,7.6
		C167.6,127.5,168.5,135.5,168.5,135.5z"/>
	<polygon class="st30" points="179,139.8 177.3,143.2 177.8,148.6 165.6,148.6 166.3,144.7 170.8,142.1 175,140.9 175.7,139.2 	"/>
	<polygon class="st31" points="177.3,118.2 174.3,122.1 173.6,123.7 171.7,124.2 174.4,124.6 172.9,127.4 172.3,128.8 172.7,132.5 
		172.7,135.5 175.7,139.2 168.5,135.5 168.2,122.1 168.9,118 	"/>
	<path class="st33" d="M176.6,135.5c0,0,0.1,0.6,0.5,0.9c0.4,0.3,0.5,0.4,1.1,0.6s1,0.1,1.5,0c0.5-0.1,1-0.1,1.4-0.4
		s1.1-1.2,1.1-1.2s-0.9,0.4-1.6,0.6C180,135.9,176.6,135.5,176.6,135.5z"/>
	<text transform="matrix(0.9681 0.2504 -0.2504 0.9681 159.354 107.6313)" class="st34 st35 st36">ShanLi</text>
	<text transform="matrix(0.9921 -0.1256 0.1256 0.9921 104.9168 122.1235)" class="st34 st35 st37">ShanLi</text>
	<path class="st38" d="M80.3,134.9c0,0-0.5,0.2-1,0.9c-0.2,0.4-0.4,0.4-1.2,0.5c-0.7,0.1-0.7,0.2-1.4-0.3c-0.1-0.1-0.7-1.2-0.7-1.2"
		/>
	<path class="st39" d="M127.5,134.1c0,0,0.8,0.6,2.5,0c0.7-0.2,2.2-0.4,2.7,0c0.7,0.6,1.7,0.1,1.7,0.1"/>
	<path class="st32" d="M128.5,134.5c0,0,0.5-0.6,0.9-0.9c0.4-0.3,0.9-0.5,1.3-0.5s1.3-0.2,1.8,0c0.5,0.2,0.8,0.6,1,0.9
		s-2.2,0.6-3,0.5C129.9,134.4,128.5,134.5,128.5,134.5z"/>
	<path class="st33" d="M128.8,135.8c0,0-0.3,1.5,0.1,1.8c0.4,0.3,0.5,0.4,1.1,0.6c0.6,0.2,1,0.1,1.5,0s1-0.1,1.4-0.4
		c0.4-0.4,0.1-1.6,0.1-1.6s-1,1.1-1.7,1.2C130.8,137.5,128.8,135.8,128.8,135.8z"/>
	<path class="st33" d="M177.3,136.3c0,0-0.3,1.5,0.1,1.8s0.5,0.4,1.1,0.6c0.6,0.2,1,0.1,1.5,0c0.5-0.1,1-0.1,1.4-0.4
		c0.4-0.4,0.1-1.6,0.1-1.6s-1,1.1-1.7,1.2C179.2,138.1,177.3,136.3,177.3,136.3z"/>
	<path class="st38" d="M133.4,134.6c0,0-0.6,1.1-1,1.7c-0.2,0.4-0.4,0.6-1.2,0.7c-0.7,0.1-1,0-1.5-0.8c-0.3-0.5-1.1-1.8-1.1-1.8"/>
	<path class="st39" d="M75.8,135.3c0,0,0.1-0.3,1.8-0.8c0.7-0.2,2.2-0.4,2.7,0c0.7,0.6,0.5,1,0.5,1"/>
	<path class="st38" d="M176.6,135c0,0,0.2,0.4,0.7,1.2c0.5,0.9,0.9,1.5,2.1,1.4c1.4-0.1,1.5-0.9,1.7-1.4c0.3-0.6,0.3-1.2,0.3-1.2"/>
	<path class="st27" d="M179.7,134.9"/>
	<path class="st32" d="M176.6,134.2c0,0,0.5-0.6,0.9-0.9c0.4-0.3,0.9-0.5,1.3-0.5s1.3-0.2,1.8,0c0.5,0.2,0.8,0.6,1,0.9
		c0.3,0.3-2.2,0.6-3,0.5C177.9,134.2,176.6,134.2,176.6,134.2z"/>
	<polygon class="st38" points="114.4,124.8 112.3,124.6 110.9,126.2 110.5,124.1 108.5,123.3 110.4,122.2 110.5,120.1 112.1,121.5 
		114.2,121 113.3,123 	"/>
	<polygon class="st38" points="113.6,114 112.5,112.3 110.5,112.3 111.7,110.7 111.1,108.8 113,109.5 114.6,108.3 114.6,110.3 
		116.2,111.5 114.3,112.1 	"/>
	<polygon class="st38" points="164.7,112.4 162.4,112.5 161.3,114.5 160.4,112.3 158.1,111.7 159.8,110.2 159.6,107.9 161.5,109.2 
		163.6,108.3 163.1,110.6 	"/>
	<polygon class="st38" points="175.1,105.1 174,103.9 172.3,104.3 173.1,102.7 172.3,101.2 173.9,101.4 175.1,100.1 175.3,101.8 
		176.8,102.5 175.4,103.4 	"/>
	<polygon class="st38" points="174.7,116 174.2,114.2 172.4,113.5 174.1,112.5 174.2,110.6 175.6,111.9 177.4,111.4 176.7,113.1 
		177.8,114.7 175.9,114.6 	"/>
	<text transform="matrix(0.8993 -0.4374 0.4374 0.8993 58.9523 138.0229)" class="st34 st35 st40">ShanLi</text>
</g>
<g id="圖層_3">
	<g>
		<path class="st21" d="M136.3,140.4c0,0-0.1,1.3,0,1.8c0.1,0.4,0.5,1.2,0.5,1.6c0,0.4,0.4,1.6,0.4,1.9s0,1.5,0,1.5l-0.3,1.3
			l4.9,0.2v-1.9l-3-4.2v-2.7"/>
		<path class="st21" d="M136.3,140.9c0,0-0.3-0.5,0-1.1c0.3-0.6,1-1.8,2-1.9c1-0.1,2.7-0.3,3.6-0.3c0.9,0.1,2.2,0.3,2.6,0.5
			c0.5,0.2,2.1,0.7,2.4,1.1c0.3,0.4,1,1,1.3,1.3s0.7,1.4,0.7,1.4s-1.6,0.4-2.1,0.4s0.3,0.1,0.6,0.7c0.3,0.6,0.3,1.1,0.3,1.4
			c0,0.3-0.3,1.1-0.4,1.5s-5.1,0.8-5.5,0.7s-2.7-3.1-2.8-3.9s0-2.4,0-2.4"/>
		<path class="st21" d="M141.3,142.5c0,0,1,0.7,1.3,1.3c0.3,0.6,0.4,1.3,0.4,1.7s-0.3,1.3-0.3,1.3"/>
		<path class="st21" d="M143.9,142.7c0.4,0.5,0.5,0.9,0.6,1.2c0.1,0.3,0.1,0.8,0.1,1.3s-0.1,0.6-0.2,1"/>
		<path class="st21" d="M145.7,142.9c0,0,0.2,0.4,0.4,0.9s0,0.4,0,0.7c0,0.4-0.1,1.4-0.2,1.6"/>
		<path class="st21" d="M147.2,142.4c0,0-1.5-0.8-1.7-1c-0.2-0.2-0.6-0.8-0.7-1"/>
	</g>
	<g>
		<path class="st21" d="M126.2,140.5c0,0,0.1,1.3,0,1.8c-0.1,0.4-0.5,1.2-0.5,1.6c0,0.4-0.3,1.6-0.3,1.9s0,1.5,0,1.5l0.2,1.3
			l-4.4,0.2v-1.9l2.7-4.2v-2.7"/>
		<path class="st21" d="M126.2,141c0,0,0.3-0.5,0-1.1c-0.3-0.6-0.9-1.8-1.8-1.9c-0.9-0.1-2.4-0.3-3.2-0.3c-0.8,0.1-1.9,0.3-2.3,0.5
			c-0.4,0.2-1.9,0.7-2.2,1.1c-0.3,0.4-0.9,1-1.2,1.3s-0.6,1.4-0.6,1.4s1.5,0.4,1.9,0.4s-0.3,0.1-0.5,0.7c-0.3,0.6-0.3,1.1-0.3,1.4
			c0,0.3,0.3,1.1,0.4,1.5s4.5,0.8,4.9,0.7c0.3-0.1,2.4-3.1,2.5-3.9s0-2.4,0-2.4"/>
		<path class="st21" d="M121.7,142.6c0,0-0.9,0.7-1.1,1.3s-0.4,1.3-0.4,1.7s0.3,1.3,0.3,1.3"/>
		<path class="st21" d="M119.3,142.8c-0.4,0.5-0.4,0.9-0.5,1.2c-0.1,0.3-0.1,0.8-0.1,1.3s0.1,0.6,0.2,1"/>
		<path class="st21" d="M117.7,143c0,0-0.2,0.4-0.4,0.9s0,0.4,0,0.7c0,0.4,0.1,1.4,0.2,1.6"/>
		<path class="st21" d="M116.4,142.5c0,0,1.4-0.8,1.5-1s0.5-0.8,0.6-1"/>
	</g>
	<g>
		<path class="st21" d="M84.4,141.3c0,0,0.2,0.7,0.9,1.1c0.7,0.4,4.4-0.2,4.9-0.7c0.4-0.5,1-1.3,1.1-1.7c0.1-0.4,0.6-1.7,0.4-2.2
			c-0.1-0.5-0.2-1.4-0.4-1.9c-0.1-0.5-0.8-1.7-0.8-1.7s-1.2,0.4-1.5,0.6c-0.3,0.2,0.1-0.3-0.3-1c-0.3-0.7-0.7-1.2-0.9-1.5
			c-0.2-0.3-0.6-0.5-1.1-0.9c-0.4-0.4-4.1,2.6-4.2,2.9c-0.1,0.3,0.2,4.5,0.7,5.3S84.4,141.3,84.4,141.3"/>
		<path class="st21" d="M84.5,141.2c0,0,0.2,1.3,0.4,1.7c0.2,0.4,0.7,1.1,0.9,1.4c0.1,0.3,0.7,1.5,0.8,1.8c0.1,0.3,0.3,1.5,0.3,1.5
			l0,1.3l4.8-0.9l-0.4-1.8l-1.2-3.9l0.2-0.6"/>
		<line class="st41" x1="84.8" y1="137.5" x2="83.9" y2="134.2"/>
		<line class="st21" x1="85" y1="132.9" x2="86.4" y2="137.1"/>
		<line class="st21" x1="86.3" y1="131.6" x2="87.8" y2="135.7"/>
	</g>
	<path class="st21" d="M71.7,141.9c0,0-0.4,0.6-1.2,0.8s-4.3-1.3-4.7-1.9c-0.3-0.6-0.6-1.5-0.6-2c0-0.4-0.1-1.8,0.1-2.3
		c0.3-0.5,0.6-1.3,0.8-1.8c0.3-0.4,1.2-1.4,1.2-1.4s1.1,0.7,1.4,1c0.2,0.3,0-0.3,0.5-0.9c0.5-0.6,1-1,1.3-1.2
		c0.3-0.2,0.7-0.3,1.3-0.6c0.5-0.2,3.4,3.6,3.5,3.9c0,0.3-1.2,4.3-2,5C72.5,141.2,71.7,141.9,71.7,141.9"/>
	<path class="st21" d="M71.7,141.7c0,0-0.5,1.3-0.8,1.6c-0.3,0.3-1,0.9-1.2,1.2c-0.2,0.3-1.1,1.3-1.2,1.6c-0.1,0.3-0.7,1.3-0.7,1.3
		l-0.3,1.2l-4.6-2.1l0.8-1.7l2.1-3.5l-0.1-0.6"/>
	<line class="st41" x1="72.2" y1="138" x2="74" y2="135.1"/>
	<line class="st21" x1="73.2" y1="133.5" x2="70.7" y2="137.3"/>
	<line class="st21" x1="72.2" y1="131.9" x2="69.7" y2="135.5"/>
	<polygon class="st31" points="86.2,148.6 86.2,143.4 85.5,140.8 84.5,139.3 83.5,137.3 	"/>
</g>
<g id="圖層_5">
	<g>
		<polygon class="st42" points="47.4,162.1 35.9,172.6 33.7,174.8 30,178.4 23.8,174.9 21.6,176.4 21.9,181.9 18.3,186.1 
			18.8,173.9 23.9,170.4 29,172.9 43.8,158.9 		"/>
		<polygon class="st42" points="46,160.9 30.8,177.5 30.2,178.4 34.1,184.2 32.9,186.6 27.5,186.8 23.8,190.9 35.6,189.2 
			38.5,183.7 35.6,178.9 47.8,162.6 		"/>
	</g>
	<g>
		<polygon class="st42" points="93.1,158.5 85,171.9 83.5,174.6 81,179.1 74.1,177.6 72.4,179.6 74.3,184.8 72,189.8 69,178 
			72.9,173.2 78.5,174.2 88.7,156.5 		"/>
		<polygon class="st42" points="91.4,157.8 81.5,178 81.2,179 86.7,183.5 86.1,186.2 81,187.9 78.6,192.8 89.5,187.8 90.7,181.8 
			86.5,178 93.6,158.9 		"/>
	</g>
	<g>
		<polygon class="st42" points="144.5,160.3 134.7,172.5 132.8,174.9 129.7,179 123,176.6 121.1,178.4 122.3,183.8 119.3,188.5 
			118,176.4 122.4,172.1 127.9,173.8 140.4,157.8 		"/>
		<polygon class="st42" points="142.9,159.3 130.4,178 129.9,179 134.7,184.2 133.8,186.8 128.5,187.8 125.4,192.3 136.9,188.9 
			139,183.1 135.3,178.7 144.9,160.7 		"/>
	</g>
	<g>
		<polygon class="st42" points="200.6,167.8 186.2,173.7 183.4,175 178.7,177.1 174,171.8 171.5,172.4 169.9,177.7 165.1,180.4 
			169.7,169.1 175.6,167.6 179.6,171.7 198.3,163.6 		"/>
		<polygon class="st42" points="199.7,166.1 179.8,176.6 178.9,177.2 180.6,184.1 178.6,185.9 173.4,184.2 168.6,186.7 180.3,189.2 
			184.9,185.1 183.8,179.5 200.8,168.4 		"/>
	</g>
	<g>
		<g>
			<path class="st21" d="M185.1,135c0,0,1.4-0.7,2.2,0.1s1.1,2.4,1.1,2.4s0.9-1.6,2.1-3.1c1.3-1.5,2.6-1.3,2.6-1.3s1.9,0.1,2.6,0.8
				c0.7,0.7,0.3,3.1,0.3,3.1s-3.4,4.3-3.7,4.9s-1.2,0.4-1.7,1c-0.5,0.6-0.8,1.8-1,3.3c-0.1,1.4-0.1,4.1-0.1,4.1h-5.4
				c0,0,1.4-4.5,2.3-6c1-1.7,0.4-3.7-0.1-4.9C185.8,138.2,185.1,135,185.1,135z"/>
		</g>
		<line class="st21" x1="192.9" y1="133.7" x2="190.5" y2="136.6"/>
		<line class="st21" x1="194.3" y1="134.3" x2="192.1" y2="136.8"/>
		<line class="st21" x1="195.3" y1="135.5" x2="193" y2="137.7"/>
	</g>
	<g>
		<path class="st21" d="M174.3,135.4c0,0-1.5-0.6-2.3,0.1c-0.8,0.8-1.2,2.3-1.2,2.3s-0.9-1.5-2.2-2.9s-2.7-1.2-2.7-1.2
			s-2,0.1-2.8,0.8c-0.7,0.6-0.3,2.9-0.3,2.9s3.5,4,3.8,4.5c0.4,0.5,1.3,0.3,1.8,0.9c0.5,0.6,0.8,1.7,1,3c0.1,1.3-1.1,5.7-1.1,5.7
			l5.9-1.2c0,0-0.6-4.9-1.5-6.4c-1-1.6-0.4-3.5,0.2-4.6C173.5,138.3,174.3,135.4,174.3,135.4z"/>
		<line class="st21" x1="166.1" y1="134.2" x2="168.6" y2="136.9"/>
		<line class="st21" x1="164.7" y1="134.8" x2="166.9" y2="137"/>
		<line class="st21" x1="163.6" y1="135.9" x2="166" y2="137.9"/>
	</g>
	<polygon class="st43" points="65.2,188.5 63.2,187.7 61.4,189 61.5,186.8 59.7,185.5 61.8,184.9 62.5,182.9 63.7,184.7 65.9,184.7 
		64.6,186.4 	"/>
	<polygon class="st43" points="114.9,180.4 112.6,179.5 110.6,180.8 110.8,178.4 108.9,176.9 111.2,176.3 112.1,174 113.4,176.1 
		115.8,176.2 114.2,178 	"/>
	<polygon class="st43" points="117.3,169.3 115.9,167.7 113.7,167.9 114.8,166.1 113.9,164.1 116,164.6 117.6,163.1 117.8,165.2 
		119.7,166.3 117.7,167.2 	"/>
	<polygon class="st43" points="164.7,175.9 160.9,175.2 158.3,177.9 157.8,174.2 154.4,172.5 157.8,170.8 158.3,167.1 161,169.8 
		164.7,169.2 162.9,172.5 	"/>
	<polygon class="st43" points="169.7,166.1 166.7,163.7 163.1,164.7 164.5,161.2 162.3,158 166.2,158.2 168.5,155.2 169.5,158.9 
		173.1,160.3 169.8,162.3 	"/>
	<polygon class="st43" points="164.7,186.1 163,185.6 161.6,186.8 161.5,185 160,184.1 161.7,183.5 162.1,181.7 163.2,183.1 
		164.9,183 164,184.5 	"/>
</g>
<g id="圖層_4">
	<polygon class="st44" points="138.6,142.2 139.3,146.2 140.5,148.5 142.1,148.5 141.8,146.7 	"/>
	<polygon class="st44" points="124.5,142.6 123.8,146.6 122.4,149 120.7,149 121,147.1 	"/>
</g>
<g id="圖層_6">
	<g>
		<g>
			<path class="st45" d="M70.1,29c-2-1.3-2.7-3-3-5.4c0,1.1,0,2.1,0,3.2c0-0.4,0-0.9,0-1.3c0,0.6,0,1.2,0,1.8
				c0.5-5.2,2.7-10.2,8.7-10.4c4.8-0.2,10.5,3.6,11.4,8.5c-0.3-1.6,0.3-3.4,0-5c-1.6-9-16.3-12.1-19.3-2.4c-1.4,4.5-2.2,13,2.2,15.9
				C69.3,33.5,70.9,29.5,70.1,29L70.1,29z"/>
		</g>
	</g>
	<g>
		<g>
			<path class="st45" d="M167.3,11.1c-4.6,5.9-6,12.3-5.9,19.6c0.1,7.1,2.7,16.1,11.6,14.6c0.3,0-0.2-5,0-5
				c-5.7,0.9-10-3.1-11.1-8.6c-1.1-5.5,2.1-11.5,5.4-15.6C168.1,15.1,166.5,12.1,167.3,11.1L167.3,11.1z"/>
		</g>
	</g>
	<g>
		<g>
			<path class="st45" d="M134.5,38.2c-3,2.9-7.6,2.1-11.4,1.4c-4.4-0.8-9.1-3.2-9.4-8.3c0,1.6,0,3.3,0,4.9c0.3-2.5,1.5-4.4,4-5.1
				c0.5-0.1-0.4-4.9,0-5c-4.5,1.3-4.8,7.7-3.8,11.6c1,4.2,5.4,6.1,9.2,6.8c3.7,0.7,8.4,1.5,11.4-1.4C135.3,42.4,133.6,39,134.5,38.2
				L134.5,38.2z"/>
		</g>
	</g>
</g>
</svg>
