<?xml version="1.0" encoding="utf-8"?>
<!-- Generator: Adobe Illustrator 21.0.0, SVG Export Plug-In . SVG Version: 6.00 Build 0)  -->
<svg version="1.1" xmlns="http://www.w3.org/2000/svg" xmlns:xlink="http://www.w3.org/1999/xlink" x="0px" y="0px"
	 viewBox="0 0 691 400" style="enable-background:new 0 0 691 400;" xml:space="preserve">
<style type="text/css">
	.st0{fill:#5B65AD;stroke:#231815;stroke-miterlimit:10;}
	.st1{fill:#D77DB0;stroke:#231815;stroke-miterlimit:10;}
	.st2{fill:#6DC19E;}
	.st3{font-family:'FZCCHFW--GB1-0';}
	.st4{font-size:9.5113px;}
	.st5{fill:#EC6526;stroke:#231815;stroke-miterlimit:10;}
	.st6{fill:#75C4A9;stroke:#231815;stroke-miterlimit:10;}
	.st7{fill:#E7291D;}
	.st8{opacity:0.68;fill:#231815;enable-background:new    ;}
	.st9{fill:#612C16;stroke:#000000;stroke-miterlimit:10;}
	.st10{fill:#9D5924;stroke:#000000;stroke-miterlimit:10;}
	.st11{fill:#8B4022;stroke:#000000;stroke-miterlimit:10;}
	.st12{fill:#6E5324;stroke:#000000;stroke-miterlimit:10;}
	.st13{fill:#F8C4AE;stroke:#000000;stroke-miterlimit:10;}
	.st14{fill:#A76623;stroke:#090103;stroke-miterlimit:10;}
	.st15{fill:none;}
	.st16{font-family:'ArialMT';}
	.st17{font-size:12px;}
	.st18{font-family:'Impact';}
	.st19{font-size:3.254px;}
	.st20{fill:#231815;}
	.st21{opacity:0.36;fill:#231815;enable-background:new    ;}
	.st22{opacity:0.43;fill:#231815;enable-background:new    ;}
	.st23{fill:#F8DB83;}
	.st24{fill:#DE2C8A;stroke:#000000;stroke-miterlimit:10;}
	.st25{fill:#F8C294;stroke:#000000;stroke-miterlimit:10;}
	.st26{fill:#E83B13;stroke:#000000;stroke-miterlimit:10;}
	.st27{fill:none;stroke:#000000;stroke-miterlimit:10;}
	.st28{fill:#F7C5C0;stroke:#000000;stroke-miterlimit:10;}
	.st29{fill:#FBDBD4;stroke:#000000;stroke-miterlimit:10;}
	.st30{fill:#E44310;stroke:#000000;stroke-miterlimit:10;}
	.st31{fill:#EC6A22;stroke:#000000;stroke-miterlimit:10;}
	.st32{fill:#F8BE86;stroke:#000000;stroke-miterlimit:10;}
	.st33{fill:#E782B1;}
	.st34{opacity:0.66;fill:#8D1D22;enable-background:new    ;}
	.st35{opacity:0.58;fill:#8B3C22;enable-background:new    ;}
	.st36{opacity:0.5;fill:#8B3C22;enable-background:new    ;}
	.st37{opacity:0.28;fill:#D91621;enable-background:new    ;}
	.st38{opacity:0.5;fill:#D91621;enable-background:new    ;}
	.st39{fill:#FCEE21;}
	.st40{font-family:'PoplarStd';}
	.st41{font-size:10.3264px;}
	.st42{fill:none;stroke:#FF0000;stroke-width:0.25;stroke-miterlimit:10;}
	.st43{font-size:9px;}
	.st44{fill:#D4145A;stroke:#000000;stroke-miterlimit:10;}
	.st45{font-size:5.8484px;}
	.st46{fill:#81C58E;stroke:#000000;stroke-miterlimit:10;}
	.st47{opacity:0.53;fill:#8B3C22;enable-background:new    ;}
	.st48{fill:#FFFFFF;stroke:#FFFFFF;stroke-miterlimit:10;}
	.st49{fill:#FFFFFF;stroke:#F8FFE8;stroke-miterlimit:10;}
	.st50{fill:#FFB051;stroke:#D67B00;stroke-miterlimit:10;}
	.st51{fill:#BF1A00;stroke:#7A0600;stroke-miterlimit:10;}
	.st52{fill:#EC2600;}
	.st53{fill:none;stroke:#7A0D00;stroke-miterlimit:10;}
	.st54{fill:none;stroke:#DA6500;stroke-miterlimit:10;}
	.st55{fill:#EC2600;stroke:#FF7A7A;stroke-miterlimit:10;}
	.st56{fill:#EC2600;stroke:#FF9F9F;stroke-miterlimit:10;}
	.st57{fill:#FFB051;}
</style>
<g id="圖層_1">
	<g id="圖層_1_2_">
		<g id="圖層_1_1_">
			<polygon class="st0" points="24.9,36.9 30,44.7 36.6,44.7 47.9,28.1 41.5,23.6 32.4,37.4 29.5,31.6 			"/>
			<circle class="st1" cx="16.5" cy="37.8" r="6.7"/>
			<text transform="matrix(1 0 0 1 9.7501 26.3504)" class="st2 st3 st4">TODO</text>
			<polygon class="st0" points="74.6,36.9 79.7,44.7 86.3,44.7 97.6,28.1 91.2,23.6 82.1,37.4 79.2,31.6 			"/>
			<circle class="st1" cx="66.2" cy="37.8" r="6.7"/>
			<text transform="matrix(1 0 0 1 59.4497 26.3504)" class="st2 st3 st4">TODO</text>
			<polygon class="st0" points="125.4,36.9 130.6,44.7 137.2,44.7 148.5,28.1 142.1,23.6 133,37.4 130.1,31.6 			"/>
			<circle class="st1" cx="117" cy="37.8" r="6.7"/>
			<text transform="matrix(1 0 0 1 110.3146 26.3504)" class="st2 st3 st4">TODO</text>
			<polygon class="st5" points="175.2,36.9 180.4,44.7 186.9,44.7 198.2,28.1 191.8,23.6 182.8,37.4 179.9,31.6 			"/>
			<circle class="st6" cx="166.8" cy="37.8" r="6.7"/>
			<text transform="matrix(1 0 0 1 160.0761 26.3504)" class="st7 st3 st4">TODO</text>
			<path class="st8" d="M10.2,71.1c0,0,3.1-0.8,4.7,1.9c1.6,2.7,2.9,9,2.9,9s1.3-8,0.6-10.3s-5.3-2.1-6-2
				C11.7,69.7,10.2,71.1,10.2,71.1z"/>
			<g>
				<path class="st9" d="M10,84.4L10.2,69c0,0,8.8-5.2,10.4-5.8c1.7-0.6,6.3-2.4,7.6-2.7c1.3-0.3,6.2-1.5,7.3-1.6s5.5,0.5,6.2,1.2
					s1.6,3.1,1.6,3.9c0.1,0.8,0,9.2-0.1,11c0,1.8-0.9,13.3-1.2,13.9s-19.4,6.2-20.9,6.5c-1.4,0.3-7.4,0-10.6-2.8
					C9.9,92,10,84.4,10,84.4z"/>
				<path class="st10" d="M11,69.7c0,0,0.8-0.7,3-0.2c2.3,0.4,3.1,0.9,3.7,1.6s0.5,2.7,0.4,4.6c-0.2,1.9-0.8,14.2-0.4,15.3
					c0.4,1.1,1.3,3.5,2.1,4c0.8,0.4,1.4,0.5,2.5,0.2C23.5,94.9,42,89,42,89l1.1-5.6l0.1-19.2c0,0,0.3-2-1.6-3.9
					c-1.9-1.9-7.1-1.1-7.1-1.1s-13.3,3.7-16.2,5.3C15.4,66,10.2,69,10.2,69L11,69.7z"/>
				<path class="st11" d="M23.6,76.2c0,0,4.3-1.7,8-2.9c3.7-1.2,9.2-2,9.2-2l-0.6,2.4c0,0-5.5,0.9-7.7,1.7S23.8,79,23.8,79
					L23.6,76.2z"/>
				<path class="st12" d="M27.3,77.9c0,0,4.4-2.1,6.8-2.7s4.2-0.3,4.2-0.3L37.8,88l-11,4.1c0,0-0.6-3-0.4-5.6
					c0.2-2.7,0.4-6.9,0.5-7.3S27.3,77.9,27.3,77.9z"/>
				<path class="st13" d="M30.3,89.3c0,0,1.5-1.2,3-1.7s2.4-0.2,2.4-0.2l0.1,5.5c0,0-0.4,0.3-1.8,0.8c-1.5,0.5-2.8,0.9-2.8,0.9
					l-1-0.6L30.3,89.3z"/>
				<path class="st14" d="M21.8,65.6c0,0-0.2,0.6,0.6,0.9c0.7,0.3,1.8,0.5,2.4-0.2c0.7-0.6,0.2-3.2,0.4-4.2c0.2-1,0.3-2.5,1.8-3.6
					c1-0.8,3-0.6,3.6-0.3s1.1,0.9,1.2,1.5c0.2,1.6,0.2,2.6,0.2,2.6s-0.4,0.3,0.7,0.8c1.1,0.5,1.9-0.5,2.1-1c0.2-0.5-1.4-3.5-1.9-4.2
					s-1.3-1.5-2.6-1.9c-1.3-0.4-2.7-0.4-4.8,0.5c-1.4,0.6-2.8,3-3.1,4C22.2,61.7,21.8,65.6,21.8,65.6z"/>
				<path id="SVGID_x5F_1_x5F_" class="st15" d="M25.8,72.7c0,0,4.9-2,8.4-2.8s11.1-1,11.1-1"/>
				<text class="st16 st17">  </text>
				<text transform="matrix(1 0 0 1 29.601 71.2534)" class="st16 st17"> </text>
				<text transform="matrix(1 0 0 1 32.7813 70.2515)" class="st18 st19">G</text>
				<text transform="matrix(1 0 0 1 34.5237 69.8244)" class="st18 st19">I</text>
				<text transform="matrix(1 0 0 1 35.4461 69.6556)" class="st18 st19">T</text>
				<text transform="matrix(1 0 0 1 36.9325 69.4535)" class="st18 st19">H</text>
				<text transform="matrix(1 0 0 1 38.7299 69.272)" class="st18 st19">U</text>
				<text transform="matrix(1 0 0 1 40.5041 69.1337)" class="st18 st19">B</text>
				<text transform="matrix(1 0 0 1 42.2975 69.0167)" class="st16 st17"> </text>
				<text class="st16 st17"> </text>
				<polygon class="st20" points="31.3,61.4 25.1,64.6 24.8,66.4 33.7,63.9 31.7,62.8 				"/>
				<polygon class="st20" points="38.3,74.9 40.3,73.8 39.3,87.3 37.8,88 				"/>
				<polygon class="st21" points="31.3,76.1 36.8,77.3 37.8,88 38.3,74.9 35.1,74.8 				"/>
				<polyline class="st22" points="20.4,80.9 20.4,89.3 21.7,92.1 24.8,92.9 26.8,92.1 23,89.9 				"/>
				<polyline class="st23" points="33,89.1 35.3,88.2 34.5,92.9 				"/>
			</g>
			<path class="st24" d="M16.7,148.1c0,0-0.3-2.3,0.6-3.4c0.9-1.1,1.9-2,3.6-2.4s1.6-0.6,2.9-1.2c1.2-0.6,2.2,0,2.2,0l8.1,0.1
				c0,0,2.4,1.2,3.2,1.4s1.6,0.1,2.5,0.7c1,0.6,2.5,2.1,2.6,3s0.4,2.2,0.4,2.2H16.6L16.7,148.1z"/>
			<path class="st25" d="M26.6,138l-0.7,3.2c0,0-2.3,0.8-1,2c1.3,1.1,4.3,2.5,5.8,2.5s3.6-1,4.3-1.8s-1.4-1.3-1.4-2.7
				s-0.4-3.5-0.4-3.5s0.1,1.7-2.7,1.7S26.6,138,26.6,138z"/>
			<path class="st25" d="M19.5,118.2v16.1c0,0,1.6,2.4,5,4s3.8,1.8,7.1,1.4c3.4-0.4,6.9-3,7.7-4.4s1.2-17,1.2-17h-21V118.2z"/>
			<path class="st26" d="M19.5,137.6v-19.4h21l-1.2,17c0,0,4-0.4,5-2.8c1-2.4,1.6-5,1.6-8.5s-0.4-7.7-1.6-10.7
				c-1.2-3-2.4-5.7-5.7-7.5c-3.4-1.8-8.9-2.6-11.7-2.2s-7.3,2-9.1,4.4s-4.2,4.2-5.2,8.7s-1.4,9.7,0,12.4
				C14,131.7,19.5,137.6,19.5,137.6z"/>
			<line class="st27" x1="21.5" y1="120.5" x2="28.8" y2="123.7"/>
			<line class="st27" x1="31.6" y1="123.7" x2="38.4" y2="120.5"/>
			<path class="st28" d="M22.7,124.2c0,0,1.9-0.7,3.3,0s2.4,2.7,2.4,2.7s-3.5,0.9-4.5,0.6c-0.9-0.3-3-4-3-4L22.7,124.2z"/>
			<path class="st29" d="M37.6,124.5c0,0-1.8-0.7-3.1,0s-2.3,2.7-2.3,2.7s3.4,0.9,4.3,0.6c0.9-0.3,2.8-4,2.8-4L37.6,124.5z"/>
			
				<ellipse transform="matrix(0.824 -0.5666 0.5666 0.824 -66.7775 36.4013)" class="st30" cx="25.2" cy="125.7" rx="1.1" ry="1.1"/>
			<ellipse transform="matrix(0.824 -0.5666 0.5666 0.824 -65.4044 42.0637)" class="st31" cx="35" cy="126.3" rx="1.1" ry="1.1"/>
			<path class="st32" d="M31.2,128.4c0,0-0.2,0.7,0,1.2c0.2,0.4,0.7,1.2,1,1.3s0.5,0.8,0.5,0.8s-1,0.7-2.2,0.7
				c-1.3,0-1.6-1.1-1.6-1.1"/>
			<path class="st32" d="M27.6,135.3c0,0,0.2,0.2,2,0.2s1.9-0.1,2.3-0.2c0.8-0.2,1.1-0.4,1.1-0.4"/>
			<circle class="st33" cx="23.7" cy="131.2" r="2.2"/>
			<circle class="st33" cx="36.7" cy="131.2" r="2.2"/>
			<path class="st34" d="M19.5,135.5c0,0-4.4-3.5-5.4-6.5c-1-3.1-1.4-2.7-0.8-6.9s0.7-4.3,2.2-6.9s5.6-7.1,8.1-7.9s7-1.4,9.7-0.8
				s5.9,3,7.1,4.4c1.2,1.4,3.6,5.5,3.7,8.5c0.1,3,0.7,6.5,0,9s-4.6,6.1-4.6,6.1s1-4.6,1-8.2c0-3.6,0.1-6.9-0.4-8.1s-5.8-0.2-8,0
				s-7.2-0.4-10.4,0c-2.7,0.4-2.4,3.9-2.9,7.6C18.6,127.5,19.5,135.5,19.5,135.5z"/>
			<polygon class="st35" points="30,139.8 28.3,143.2 28.8,148.6 16.6,148.6 17.3,144.7 21.8,142.1 26,140.9 26.6,139.2 			"/>
			<polygon class="st36" points="28.3,118.2 25.3,122.1 24.6,123.7 22.7,124.2 21.5,124.5 23.9,127.4 27.3,127.4 23.7,132.5 
				23.7,135.5 26.6,139.2 19.5,135.5 19.2,122.1 19.9,118 			"/>
			<path class="st37" d="M27.6,135c0,0,0.5-0.6,0.9-0.9c0.4-0.3,0.9-0.5,1.3-0.5c0.5,0,1.3-0.2,1.8,0s0.8,0.6,1,0.9s-2.2,0.6-3,0.5
				C28.9,134.9,27.6,135,27.6,135z"/>
			<path class="st38" d="M27.6,135.5c0,0,0.1,0.6,0.5,0.9c0.4,0.3,0.5,0.4,1.1,0.6s1,0.1,1.5,0s1-0.1,1.4-0.4
				c0.4-0.4,1.1-1.2,1.1-1.2s-0.9,0.4-1.6,0.6C31,135.9,27.6,135.5,27.6,135.5z"/>
		</g>
		<g id="圖層_2">
			<path class="st24" d="M64.9,148.1c0,0-0.3-2.3,0.6-3.4s1.9-2,3.6-2.4s1.6-0.6,2.9-1.2c1.2-0.6,2.2,0,2.2,0l8.1,0.1
				c0,0,2.4,1.2,3.2,1.4c0.8,0.2,1.6,0.1,2.5,0.7c1,0.6,2.5,2.1,2.6,3s0.4,2.2,0.4,2.2H64.8L64.9,148.1z"/>
			<path class="st25" d="M74.8,138l-0.7,3.2c0,0-2.3,0.8-1,2c1.3,1.1,4.3,2.5,5.8,2.5s3.6-1,4.3-1.8c0.7-0.8-1.4-1.3-1.4-2.7
				s-0.4-3.5-0.4-3.5s0.1,1.7-2.7,1.7S74.8,138,74.8,138z"/>
			<path class="st25" d="M67.7,118.2v16.1c0,0,1.6,2.4,5,4s3.8,1.8,7.1,1.4c3.4-0.4,6.9-3,7.7-4.4c0.8-1.4,1.2-17,1.2-17h-21
				C67.7,118.3,67.7,118.2,67.7,118.2z"/>
			<path class="st26" d="M67.7,137.6v-19.4h21l-1.2,17c0,0,4-0.4,5-2.8c1-2.4,1.6-5,1.6-8.5s-0.4-7.7-1.6-10.7s-2.4-5.7-5.7-7.5
				c-3.4-1.8-8.9-2.6-11.7-2.2c-2.8,0.4-7.3,2-9.1,4.4c-1.8,2.4-4.2,4.2-5.2,8.7c-1,4.6-1.4,9.7,0,12.4
				C62.2,131.7,67.7,137.6,67.7,137.6z"/>
			<line class="st27" x1="69.7" y1="120.5" x2="77" y2="123.7"/>
			<line class="st27" x1="79.8" y1="123.7" x2="86.5" y2="120.5"/>
			<path class="st28" d="M70.8,124.2c0,0,1.9-0.7,3.3,0s2.4,2.7,2.4,2.7s-3.5,0.9-4.5,0.6c-0.9-0.3-3-4-3-4L70.8,124.2z"/>
			<path class="st29" d="M85.7,124.5c0,0-1.8-0.7-3.1,0c-1.3,0.7-2.3,2.7-2.3,2.7s3.4,0.9,4.3,0.6c0.9-0.3,2.8-4,2.8-4L85.7,124.5z"
				/>
			
				<ellipse transform="matrix(0.824 -0.5666 0.5666 0.824 -58.3237 63.6455)" class="st30" cx="73.3" cy="125.7" rx="1.1" ry="1.1"/>
			
				<ellipse transform="matrix(0.824 -0.5666 0.5666 0.824 -56.9167 69.3775)" class="st31" cx="83.2" cy="126.3" rx="1.1" ry="1.1"/>
			<path class="st32" d="M79.4,128.4c0,0-0.2,0.7,0,1.2c0.2,0.4,0.7,1.2,1,1.3s0.5,0.8,0.5,0.8s-1,0.7-2.2,0.7
				c-1.3,0-1.6-1.1-1.6-1.1"/>
			<circle class="st33" cx="71.9" cy="131.2" r="2.2"/>
			<circle class="st33" cx="84.8" cy="131.2" r="2.2"/>
			<path class="st34" d="M67.7,135.5c0,0-4.4-3.5-5.4-6.5c-1-3.1-1.4-2.7-0.8-6.9c0.6-4.1,0.7-4.3,2.2-6.9s5.6-7.1,8.1-7.9
				s7-1.4,9.7-0.8s5.9,3,7.1,4.4s3.6,5.5,3.7,8.5s0.7,6.5,0,9s-4.6,6.1-4.6,6.1s1-4.6,1-8.2c0-3.6,0.1-6.9-0.4-8.1s-5.8-0.2-8,0
				s-7.2-0.4-10.4,0c-2.7,0.4-2.4,3.9-2.9,7.6C66.8,127.5,67.7,135.5,67.7,135.5z"/>
			<polygon class="st35" points="78.2,139.8 76.5,143.2 77,148.6 64.8,148.6 65.5,144.7 69.9,142.1 74.2,140.9 74.8,139.2 			"/>
			<polygon class="st36" points="76.5,118.2 73.4,122.1 72.8,123.7 70.8,124.2 69.7,124.5 72,127.4 75.4,127.4 71.9,132.5 
				71.9,135.5 74.8,139.2 67.7,135.5 67.4,122.1 68.1,118 			"/>
			<path class="st37" d="M76,134.5c0,0,0.5-0.6,0.9-0.9c0.4-0.3,0.9-0.5,1.3-0.5s1.3-0.2,1.8,0s0.8,0.6,1,0.9c0.3,0.3-2.2,0.6-3,0.5
				S76,134.5,76,134.5z"/>
			<path class="st38" d="M76,135.1c0,0-0.3,1.5,0.1,1.8s0.5,0.4,1.1,0.6c0.6,0.2,1,0.1,1.5,0s1-0.1,1.4-0.4c0.4-0.4,0.1-1.6,0.1-1.6
				s-0.5,0.7-1.2,0.8C78.5,136.4,76,135.1,76,135.1z"/>
			<path class="st24" d="M117.4,148.1c0,0-0.3-2.3,0.6-3.4s1.9-2,3.6-2.4s1.6-0.6,2.9-1.2c1.2-0.6,2.2,0,2.2,0l8.1,0.1
				c0,0,2.4,1.2,3.2,1.4s1.6,0.1,2.5,0.7c1,0.6,2.5,2.1,2.6,3s0.4,2.2,0.4,2.2h-26.1V148.1z"/>
			<path class="st25" d="M127.4,138l-0.7,3.2c0,0-2.3,0.8-1,2c1.3,1.1,4.3,2.5,5.8,2.5s3.6-1,4.3-1.8s-1.4-1.3-1.4-2.7
				s-0.4-3.5-0.4-3.5s0.1,1.7-2.7,1.7S127.4,138,127.4,138z"/>
			<path class="st25" d="M120.3,118.2v16.1c0,0,1.6,2.4,5,4c3.4,1.6,3.8,1.8,7.1,1.4c3.4-0.4,6.9-3,7.7-4.4s1.2-17,1.2-17h-21V118.2
				z"/>
			<path class="st26" d="M120.3,137.6v-19.4h21l-1.2,17c0,0,4-0.4,5-2.8c1-2.4,1.6-5,1.6-8.5s-0.4-7.7-1.6-10.7
				c-1.2-3-2.4-5.7-5.7-7.5c-3.4-1.8-8.9-2.6-11.7-2.2s-7.3,2-9.1,4.4c-1.8,2.4-4.2,4.2-5.2,8.7c-1,4.6-1.4,9.7,0,12.4
				C114.7,131.7,120.3,137.6,120.3,137.6z"/>
			<line class="st27" x1="122.2" y1="120.5" x2="129.5" y2="123.7"/>
			<line class="st27" x1="132.3" y1="123.7" x2="139.1" y2="120.5"/>
			<path class="st28" d="M123.5,125c0,0,1.8-0.9,3.2-0.4c1.5,0.5,2.7,2.4,2.7,2.4s-1.7-1.8-2.6-2c-1-0.2-5.2-0.5-5.2-0.5L123.5,125z
				"/>
			<path class="st29" d="M138.3,124.5c0,0-1.8-0.7-3.1,0s-2.3,2.7-2.3,2.7s3.4,0.9,4.3,0.6c0.9-0.3,2.8-4,2.8-4L138.3,124.5z"/>
			
				<ellipse transform="matrix(0.824 -0.5666 0.5666 0.824 -47.6859 99.1169)" class="st31" cx="135.7" cy="126.3" rx="1.1" ry="1.1"/>
			<path class="st32" d="M131.9,128.4c0,0-0.2,0.7,0,1.2c0.2,0.4,0.7,1.2,1,1.3s0.5,0.8,0.5,0.8s-1,0.7-2.2,0.7
				c-1.3,0-1.6-1.1-1.6-1.1"/>
			<circle class="st33" cx="124.5" cy="131.2" r="2.2"/>
			<circle class="st33" cx="137.4" cy="131.2" r="2.2"/>
			<path class="st34" d="M120.3,135.5c0,0-4.4-3.5-5.4-6.5c-1-3.1-1.4-2.7-0.8-6.9c0.6-4.1,0.7-4.3,2.2-6.9s5.6-7.1,8.1-7.9
				s7-1.4,9.7-0.8s5.9,3,7.1,4.4c1.2,1.4,3.6,5.5,3.7,8.5c0.1,3,0.7,6.5,0,9s-4.6,6.1-4.6,6.1s1-4.6,1-8.2c0-3.6,0.1-6.9-0.4-8.1
				s-5.8-0.2-8,0s-7.2-0.4-10.4,0c-2.7,0.4-2.4,3.9-2.9,7.6C119.3,127.5,120.3,135.5,120.3,135.5z"/>
			<polygon class="st35" points="130.8,139.8 129,143.2 129.6,148.6 117.4,148.6 118,144.7 122.5,142.1 126.7,140.9 127.4,139.2 			
				"/>
			<polygon class="st36" points="129,118.2 126,122.1 125.3,123.7 123.4,124.2 127.8,125.1 129,126.3 124.5,126.8 124.5,132.5 
				124.5,135.5 127.4,139.2 120.3,135.5 120,122.1 120.7,118 			"/>
			<path class="st24" d="M165.7,148.1c0,0-0.3-2.3,0.6-3.4c0.9-1.1,1.9-2,3.6-2.4s1.6-0.6,2.9-1.2c1.2-0.6,2.2,0,2.2,0l8.1,0.1
				c0,0,2.4,1.2,3.2,1.4s1.6,0.1,2.5,0.7c1,0.6,2.5,2.1,2.6,3s0.4,2.2,0.4,2.2h-26.1V148.1z"/>
			<path class="st25" d="M175.7,138l-0.7,3.2c0,0-2.3,0.8-1,2c1.3,1.1,4.3,2.5,5.8,2.5s3.6-1,4.3-1.8s-1.4-1.3-1.4-2.7
				s-0.4-3.5-0.4-3.5s0.1,1.7-2.7,1.7S175.7,138,175.7,138z"/>
			<path class="st25" d="M168.5,118.2v16.1c0,0,1.6,2.4,5,4s3.8,1.8,7.1,1.4c3.4-0.4,6.9-3,7.7-4.4s1.2-17,1.2-17h-21V118.2z"/>
			<path class="st26" d="M168.5,137.6v-19.4h21l-1.2,17c0,0,4-0.4,5-2.8c1-2.4,1.6-5,1.6-8.5s-0.4-7.7-1.6-10.7
				c-1.2-3-2.4-5.7-5.7-7.5c-3.4-1.8-8.9-2.6-11.7-2.2s-7.3,2-9.1,4.4s-4.2,4.2-5.2,8.7s-1.4,9.7,0,12.4
				C163,131.7,168.5,137.6,168.5,137.6z"/>
			<line class="st27" x1="170.5" y1="120.5" x2="177.8" y2="123.7"/>
			<line class="st27" x1="180.6" y1="123.7" x2="187.4" y2="120.5"/>
			<path class="st28" d="M171.6,125.4c0,0,1.7-1.1,3.2-0.7c1.5,0.3,2,1.1,2,1.1s-1.3-0.7-2.2-0.8c-1-0.1-4.8,0.1-4.8,0.1
				L171.6,125.4z"/>
			<path class="st29" d="M186.6,124.6c0,0-1.8-0.2-3.1,0.5s-1.5,1.5-1.5,1.5s2.1-1.3,3-1.3c2-0.1,3.2-1,3.2-1L186.6,124.6z"/>
			<path class="st32" d="M180.2,128.4c0,0-0.2,0.7,0,1.2c0.2,0.4,0.7,1.2,1,1.3s0.5,0.8,0.5,0.8s-1,0.7-2.2,0.7
				c-1.3,0-1.6-1.1-1.6-1.1"/>
			<path class="st32" d="M175.7,135.1c0,0,2-1.1,3.8-1.1s1.4,0.5,1.9,0.7c0.9,0.3,1.4-0.3,1.3-0.2"/>
			<circle class="st33" cx="172.7" cy="131.2" r="2.2"/>
			<circle class="st33" cx="185.7" cy="131.2" r="2.2"/>
			<path class="st34" d="M168.5,135.5c0,0-4.4-3.5-5.4-6.5c-1-3.1-1.4-2.7-0.8-6.9c0.6-4.1,0.7-4.3,2.2-6.9s5.6-7.1,8.1-7.9
				s7-1.4,9.7-0.8s5.9,3,7.1,4.4c1.2,1.4,3.6,5.5,3.7,8.5s0.7,6.5,0,9s-4.6,6.1-4.6,6.1s1-4.6,1-8.2c0-3.6,0.1-6.9-0.4-8.1
				s-5.8-0.2-8,0s-7.2-0.4-10.4,0c-2.7,0.4-2.4,3.9-2.9,7.6C167.6,127.5,168.5,135.5,168.5,135.5z"/>
			<polygon class="st35" points="179,139.8 177.3,143.2 177.8,148.6 165.6,148.6 166.3,144.7 170.8,142.1 175,140.9 175.7,139.2 			
				"/>
			<polygon class="st36" points="177.3,118.2 174.3,122.1 173.6,123.7 171.7,124.2 174.4,124.6 172.9,127.4 172.3,128.8 
				172.7,132.5 172.7,135.5 175.7,139.2 168.5,135.5 168.2,122.1 168.9,118 			"/>
			<path class="st38" d="M176.6,135.5c0,0,0.1,0.6,0.5,0.9c0.4,0.3,0.5,0.4,1.1,0.6s1,0.1,1.5,0s1-0.1,1.4-0.4s1.1-1.2,1.1-1.2
				s-0.9,0.4-1.6,0.6C180,135.9,176.6,135.5,176.6,135.5z"/>
			<text transform="matrix(0.9681 0.2504 -0.2504 0.9681 159.3544 107.631)" class="st39 st40 st41">ShanLi</text>
			<text transform="matrix(0.9681 0.2504 -0.2504 0.9681 159.3544 107.631)" class="st42 st40 st41">ShanLi</text>
			<text transform="matrix(0.9921 -0.1256 0.1256 0.9921 104.9168 122.1235)" class="st39 st40 st43">ShanLi</text>
			<text transform="matrix(0.9921 -0.1256 0.1256 0.9921 104.9168 122.1235)" class="st42 st40 st43">ShanLi</text>
			<path class="st44" d="M80.3,134.9c0,0-0.5,0.2-1,0.9c-0.2,0.4-0.4,0.4-1.2,0.5c-0.7,0.1-0.7,0.2-1.4-0.3
				c-0.1-0.1-0.7-1.2-0.7-1.2"/>
			<path class="st27" d="M127.5,134.1c0,0,0.8,0.6,2.5,0c0.7-0.2,2.2-0.4,2.7,0c0.7,0.6,1.7,0.1,1.7,0.1"/>
			<path class="st37" d="M128.5,134.5c0,0,0.5-0.6,0.9-0.9c0.4-0.3,0.9-0.5,1.3-0.5s1.3-0.2,1.8,0s0.8,0.6,1,0.9s-2.2,0.6-3,0.5
				C129.9,134.4,128.5,134.5,128.5,134.5z"/>
			<path class="st38" d="M128.8,135.8c0,0-0.3,1.5,0.1,1.8c0.4,0.3,0.5,0.4,1.1,0.6c0.6,0.2,1,0.1,1.5,0s1-0.1,1.4-0.4
				c0.4-0.4,0.1-1.6,0.1-1.6s-1,1.1-1.7,1.2C130.8,137.5,128.8,135.8,128.8,135.8z"/>
			<path class="st38" d="M177.3,136.3c0,0-0.3,1.5,0.1,1.8s0.5,0.4,1.1,0.6c0.6,0.2,1,0.1,1.5,0s1-0.1,1.4-0.4
				c0.4-0.4,0.1-1.6,0.1-1.6s-1,1.1-1.7,1.2C179.2,138.1,177.3,136.3,177.3,136.3z"/>
			<path class="st44" d="M133.4,134.6c0,0-0.6,1.1-1,1.7c-0.2,0.4-0.4,0.6-1.2,0.7c-0.7,0.1-1,0-1.5-0.8c-0.3-0.5-1.1-1.8-1.1-1.8"
				/>
			<path class="st27" d="M75.8,135.3c0,0,0.1-0.3,1.8-0.8c0.7-0.2,2.2-0.4,2.7,0c0.7,0.6,0.5,1,0.5,1"/>
			<path class="st44" d="M176.6,135c0,0,0.2,0.4,0.7,1.2c0.5,0.9,0.9,1.5,2.1,1.4c1.4-0.1,1.5-0.9,1.7-1.4c0.3-0.6,0.3-1.2,0.3-1.2"
				/>
			<path class="st32" d="M179.7,134.9"/>
			<path class="st37" d="M176.6,134.2c0,0,0.5-0.6,0.9-0.9c0.4-0.3,0.9-0.5,1.3-0.5s1.3-0.2,1.8,0s0.8,0.6,1,0.9
				c0.3,0.3-2.2,0.6-3,0.5C177.9,134.2,176.6,134.2,176.6,134.2z"/>
			<polygon class="st44" points="114.4,124.8 112.3,124.6 110.9,126.2 110.5,124.1 108.5,123.3 110.4,122.2 110.5,120.1 
				112.1,121.5 114.2,121 113.3,123 			"/>
			<polygon class="st44" points="113.6,114 112.5,112.3 110.5,112.3 111.7,110.7 111.1,108.8 113,109.5 114.6,108.3 114.6,110.3 
				116.2,111.5 114.3,112.1 			"/>
			<polygon class="st44" points="164.7,112.4 162.4,112.5 161.3,114.5 160.4,112.3 158.1,111.7 159.8,110.2 159.6,107.9 
				161.5,109.2 163.6,108.3 163.1,110.6 			"/>
			<polygon class="st44" points="175.1,105.1 174,103.9 172.3,104.3 173.1,102.7 172.3,101.2 173.9,101.4 175.1,100.1 175.3,101.8 
				176.8,102.5 175.4,103.4 			"/>
			<polygon class="st44" points="174.7,116 174.2,114.2 172.4,113.5 174.1,112.5 174.2,110.6 175.6,111.9 177.4,111.4 176.7,113.1 
				177.8,114.7 175.9,114.6 			"/>
			<text transform="matrix(0.8993 -0.4374 0.4374 0.8993 58.9524 138.0228)" class="st39 st40 st45">ShanLi</text>
			<text transform="matrix(0.8993 -0.4374 0.4374 0.8993 58.9524 138.0228)" class="st42 st40 st45">ShanLi</text>
		</g>
		<g id="圖層_3">
			<g>
				<path class="st25" d="M136.3,140.4c0,0-0.1,1.3,0,1.8c0.1,0.4,0.5,1.2,0.5,1.6c0,0.4,0.4,1.6,0.4,1.9s0,1.5,0,1.5l-0.3,1.3
					l4.9,0.2v-1.9l-3-4.2v-2.7"/>
				<path class="st25" d="M136.3,140.9c0,0-0.3-0.5,0-1.1s1-1.8,2-1.9c1-0.1,2.7-0.3,3.6-0.3c0.9,0.1,2.2,0.3,2.6,0.5
					c0.5,0.2,2.1,0.7,2.4,1.1c0.3,0.4,1,1,1.3,1.3s0.7,1.4,0.7,1.4s-1.6,0.4-2.1,0.4s0.3,0.1,0.6,0.7c0.3,0.6,0.3,1.1,0.3,1.4
					c0,0.3-0.3,1.1-0.4,1.5s-5.1,0.8-5.5,0.7s-2.7-3.1-2.8-3.9s0-2.4,0-2.4"/>
				<path class="st25" d="M141.3,142.5c0,0,1,0.7,1.3,1.3s0.4,1.3,0.4,1.7s-0.3,1.3-0.3,1.3"/>
				<path class="st25" d="M143.9,142.7c0.4,0.5,0.5,0.9,0.6,1.2s0.1,0.8,0.1,1.3s-0.1,0.6-0.2,1"/>
				<path class="st25" d="M145.7,142.9c0,0,0.2,0.4,0.4,0.9s0,0.4,0,0.7c0,0.4-0.1,1.4-0.2,1.6"/>
				<path class="st25" d="M147.2,142.4c0,0-1.5-0.8-1.7-1s-0.6-0.8-0.7-1"/>
			</g>
			<g>
				<path class="st25" d="M126.2,140.5c0,0,0.1,1.3,0,1.8c-0.1,0.4-0.5,1.2-0.5,1.6c0,0.4-0.3,1.6-0.3,1.9s0,1.5,0,1.5l0.2,1.3
					l-4.4,0.2v-1.9l2.7-4.2V140"/>
				<path class="st25" d="M126.2,141c0,0,0.3-0.5,0-1.1s-0.9-1.8-1.8-1.9c-0.9-0.1-2.4-0.3-3.2-0.3c-0.8,0.1-1.9,0.3-2.3,0.5
					s-1.9,0.7-2.2,1.1c-0.3,0.4-0.9,1-1.2,1.3s-0.6,1.4-0.6,1.4s1.5,0.4,1.9,0.4s-0.3,0.1-0.5,0.7c-0.3,0.6-0.3,1.1-0.3,1.4
					c0,0.3,0.3,1.1,0.4,1.5s4.5,0.8,4.9,0.7c0.3-0.1,2.4-3.1,2.5-3.9s0-2.4,0-2.4"/>
				<path class="st25" d="M121.7,142.6c0,0-0.9,0.7-1.1,1.3s-0.4,1.3-0.4,1.7s0.3,1.3,0.3,1.3"/>
				<path class="st25" d="M119.3,142.8c-0.4,0.5-0.4,0.9-0.5,1.2s-0.1,0.8-0.1,1.3s0.1,0.6,0.2,1"/>
				<path class="st25" d="M117.7,143c0,0-0.2,0.4-0.4,0.9s0,0.4,0,0.7c0,0.4,0.1,1.4,0.2,1.6"/>
				<path class="st25" d="M116.4,142.5c0,0,1.4-0.8,1.5-1s0.5-0.8,0.6-1"/>
			</g>
			<g>
				<path class="st25" d="M84.4,141.3c0,0,0.2,0.7,0.9,1.1c0.7,0.4,4.4-0.2,4.9-0.7c0.4-0.5,1-1.3,1.1-1.7s0.6-1.7,0.4-2.2
					c-0.1-0.5-0.2-1.4-0.4-1.9c-0.1-0.5-0.8-1.7-0.8-1.7s-1.2,0.4-1.5,0.6c-0.3,0.2,0.1-0.3-0.3-1c-0.3-0.7-0.7-1.2-0.9-1.5
					c-0.2-0.3-0.6-0.5-1.1-0.9c-0.4-0.4-4.1,2.6-4.2,2.9c-0.1,0.3,0.2,4.5,0.7,5.3S84.4,141.3,84.4,141.3"/>
				<path class="st25" d="M84.5,141.2c0,0,0.2,1.3,0.4,1.7c0.2,0.4,0.7,1.1,0.9,1.4c0.1,0.3,0.7,1.5,0.8,1.8
					c0.1,0.3,0.3,1.5,0.3,1.5v1.3l4.8-0.9l-0.4-1.8l-1.2-3.9l0.2-0.6"/>
				<line class="st27" x1="84.8" y1="137.5" x2="83.9" y2="134.2"/>
				<line class="st27" x1="85" y1="132.9" x2="86.4" y2="137.1"/>
				<line class="st27" x1="86.3" y1="131.6" x2="87.8" y2="135.7"/>
			</g>
			<path class="st25" d="M71.7,141.9c0,0-0.4,0.6-1.2,0.8s-4.3-1.3-4.7-1.9c-0.3-0.6-0.6-1.5-0.6-2c0-0.4-0.1-1.8,0.1-2.3
				c0.3-0.5,0.6-1.3,0.8-1.8c0.3-0.4,1.2-1.4,1.2-1.4s1.1,0.7,1.4,1c0.2,0.3,0-0.3,0.5-0.9c0.5-0.6,1-1,1.3-1.2s0.7-0.3,1.3-0.6
				c0.5-0.2,3.4,3.6,3.5,3.9c0,0.3-1.2,4.3-2,5C72.5,141.2,71.7,141.9,71.7,141.9"/>
			<path class="st25" d="M71.7,141.7c0,0-0.5,1.3-0.8,1.6s-1,0.9-1.2,1.2s-1.1,1.3-1.2,1.6s-0.7,1.3-0.7,1.3l-0.3,1.2l-4.6-2.1
				l0.8-1.7l2.1-3.5l-0.1-0.6"/>
			<line class="st27" x1="72.2" y1="138" x2="74" y2="135.1"/>
			<line class="st27" x1="73.2" y1="133.5" x2="70.7" y2="137.3"/>
			<line class="st27" x1="72.2" y1="131.9" x2="69.7" y2="135.5"/>
			<polygon class="st36" points="86.2,148.6 86.2,143.4 85.5,140.8 84.5,139.3 83.5,137.3 			"/>
		</g>
		<polygon class="st46" points="47.4,162.1 35.9,172.6 33.7,174.8 30,178.4 23.8,174.9 21.6,176.4 21.9,181.9 18.3,186.1 
			18.8,173.9 23.9,170.4 29,172.9 43.8,158.9 		"/>
		<polygon class="st46" points="46,160.9 30.8,177.5 30.2,178.4 34.1,184.2 32.9,186.6 27.5,186.8 23.8,190.9 35.6,189.2 
			38.5,183.7 35.6,178.9 47.8,162.6 		"/>
		<polygon class="st46" points="92.3,162.1 80.8,172.6 78.6,174.8 74.8,178.4 68.6,174.9 66.4,176.4 61.2,181.2 54,180.3 
			63.6,173.9 68.8,170.4 73.8,172.9 88.6,158.9 		"/>
		<polygon class="st46" points="90.8,160.9 75.6,177.5 75.1,178.4 78.9,184.2 77.8,186.6 73.9,190.9 76.5,197.8 80.4,189.2 
			83.3,183.7 80.4,178.9 92.6,162.6 		"/>
		<polygon class="st46" points="138.5,162.1 127,172.6 124.8,174.8 121.1,178.4 114.9,174.9 112.7,176.4 113,181.9 109.4,186.1 
			109.9,173.9 115,170.4 120.1,172.9 134.9,158.9 		"/>
		<polygon class="st46" points="137.1,160.9 121.9,177.5 121.3,178.4 125.2,184.2 124,186.6 118.6,186.8 114.9,190.9 126.7,189.2 
			129.6,183.7 126.7,178.9 138.9,162.6 		"/>
		<polygon class="st46" points="184.2,162.1 172.7,172.6 170.5,174.8 166.8,178.4 160.6,174.9 158.4,176.4 160.7,185 155.1,191.7 
			152.6,175.9 160.7,170.4 165.8,172.9 180.6,158.9 		"/>
		<polygon class="st46" points="182.8,160.9 167.6,177.5 167,178.4 170.9,184.2 169.7,186.6 160.7,185 155.1,191.7 171,191.7 
			175.3,183.7 172.4,178.9 184.6,162.6 		"/>
		<g>
			<g>
				<path class="st25" d="M185.1,135c0,0,1.4-0.7,2.2,0.1s1.1,2.4,1.1,2.4s0.9-1.6,2.1-3.1c1.3-1.5,2.6-1.3,2.6-1.3s1.9,0.1,2.6,0.8
					c0.7,0.7,0.3,3.1,0.3,3.1s-3.4,4.3-3.7,4.9s-1.2,0.4-1.7,1s-0.8,1.8-1,3.3c-0.1,1.4-0.1,4.1-0.1,4.1h-5.4c0,0,1.4-4.5,2.3-6
					c1-1.7,0.4-3.7-0.1-4.9C185.8,138.2,185.1,135,185.1,135z"/>
			</g>
			<line class="st27" x1="192.9" y1="133.7" x2="190.5" y2="136.6"/>
			<line class="st27" x1="194.3" y1="134.3" x2="192.1" y2="136.8"/>
			<line class="st27" x1="195.3" y1="135.5" x2="193" y2="137.7"/>
		</g>
		<g>
			<path class="st25" d="M174.3,135.4c0,0-1.5-0.6-2.3,0.1c-0.8,0.8-1.2,2.3-1.2,2.3s-0.9-1.5-2.2-2.9s-2.7-1.2-2.7-1.2
				s-2,0.1-2.8,0.8c-0.7,0.6-0.3,2.9-0.3,2.9s3.5,4,3.8,4.5c0.4,0.5,1.3,0.3,1.8,0.9c0.5,0.6,0.8,1.7,1,3c0.1,1.3-1.1,5.7-1.1,5.7
				l5.9-1.2c0,0-0.6-4.9-1.5-6.4c-1-1.6-0.4-3.5,0.2-4.6C173.5,138.3,174.3,135.4,174.3,135.4z"/>
			<line class="st27" x1="166.1" y1="134.2" x2="168.6" y2="136.9"/>
			<line class="st27" x1="164.7" y1="134.8" x2="166.9" y2="137"/>
			<line class="st27" x1="163.6" y1="135.9" x2="166" y2="137.9"/>
		</g>
		<g id="圖層_4">
			<polygon class="st47" points="138.6,142.2 139.3,146.2 140.5,148.5 142.1,148.5 141.8,146.7 			"/>
			<polygon class="st47" points="124.5,142.6 123.8,146.6 122.4,149 120.7,149 121,147.1 			"/>
		</g>
		<g id="圖層_6">
			<g>
				<g>
					<path class="st39" d="M70.1,29c-2-1.3-2.7-3-3-5.4c0,1.1,0,2.1,0,3.2c0-0.4,0-0.9,0-1.3c0,0.6,0,1.2,0,1.8
						c0.5-5.2,2.7-10.2,8.7-10.4c4.8-0.2,10.5,3.6,11.4,8.5c-0.3-1.6,0.3-3.4,0-5c-1.6-9-16.3-12.1-19.3-2.4
						c-1.4,4.5-2.2,13,2.2,15.9C69.3,33.5,70.9,29.5,70.1,29L70.1,29z"/>
				</g>
			</g>
			<g>
				<g>
					<path class="st39" d="M167.3,11.1c-4.6,5.9-6,12.3-5.9,19.6c0.1,7.1,2.7,16.1,11.6,14.6c0.3,0-0.2-5,0-5
						c-5.7,0.9-10-3.1-11.1-8.6s2.1-11.5,5.4-15.6C168.1,15.1,166.5,12.1,167.3,11.1L167.3,11.1z"/>
				</g>
			</g>
			<g>
				<g>
					<path class="st39" d="M134.5,38.2c-3,2.9-7.6,2.1-11.4,1.4c-4.4-0.8-9.1-3.2-9.4-8.3c0,1.6,0,3.3,0,4.9c0.3-2.5,1.5-4.4,4-5.1
						c0.5-0.1-0.4-4.9,0-5c-4.5,1.3-4.8,7.7-3.8,11.6c1,4.2,5.4,6.1,9.2,6.8c3.7,0.7,8.4,1.5,11.4-1.4
						C135.3,42.4,133.6,39,134.5,38.2L134.5,38.2z"/>
				</g>
			</g>
		</g>
		<polyline class="st46" points="35.6,178.9 33.7,174.8 29,172.9 		"/>
	</g>
	<path class="st48" d="M341.8,216.7c-2.1-1.8-5.2-1.5-6.9,0.5c-1.2,1.4-1.5,3.3-0.9,4.9l-5.5,2.9c-0.3-0.5-0.7-1-1.2-1.4
		c-1.1-0.9-2.4-1.4-3.7-1.5l-0.6-7.7c0.4-0.3,0.8-0.6,1.1-0.9c1.8-2.1,1.5-5.2-0.5-6.9c-2.1-1.8-5.2-1.5-6.9,0.5
		c-1.8,2.1-1.5,5.2,0.5,6.9c1.1,0.9,2.5,1.3,3.8,1.1l0.5,7.2c-1.2,0.3-2.4,1-3.3,2c-1.6,1.9-1.9,4.4-1.1,6.5l-7.6,4
		c-0.3-0.5-0.6-1-1.1-1.4c-2.1-1.8-5.2-1.5-6.9,0.5c-1.8,2.1-1.5,5.2,0.5,6.9c2.1,1.8,5.2,1.5,6.9-0.5c0.9-1,1.3-2.4,1.2-3.6
		l8.1-4.2c0.2,0.3,0.4,0.5,0.7,0.7c1,0.9,2.2,1.4,3.5,1.5l0.6,7.7c-1.2,0.1-2.4,0.7-3.3,1.7c-1.8,2.1-1.5,5.2,0.5,6.9
		c2.1,1.8,5.2,1.5,6.9-0.5c1.8-2.1,1.5-5.2-0.5-6.9c-0.5-0.4-1-0.7-1.6-0.9l-0.6-8c1.3-0.3,2.5-1,3.5-2.1c1.4-1.6,1.8-3.8,1.3-5.7
		l5.8-3.1c0.1,0.1,0.2,0.2,0.3,0.3c2.1,1.8,5.2,1.5,6.9-0.5C344,221.5,343.8,218.4,341.8,216.7z"/>
	<path class="st48" d="M403.6,232.9c-0.4-2.7-2.8-4.6-5.5-4.2c-1.8,0.3-3.3,1.5-3.9,3.1l-8.2-2c0.1-0.5,0.1-1,0-1.6
		c-0.1-0.7-0.3-1.4-0.7-2l5.7-7.5c0.5,0.1,1,0.1,1.5,0c2.7-0.4,4.6-2.8,4.2-5.5c-0.4-2.7-2.8-4.6-5.5-4.2c-2.7,0.4-4.6,2.8-4.2,5.5
		c0.2,1.4,1,2.6,2.1,3.4l-5.1,6.7c-1.2-1-2.7-1.4-4.3-1.2c-2.1,0.3-3.8,1.7-4.5,3.6l-7.7-1.9c0.1-0.6,0.2-1.1,0.1-1.7
		c-0.4-2.7-2.8-4.6-5.5-4.2c-2.7,0.4-4.6,2.8-4.2,5.5c0.4,2.7,2.8,4.6,5.5,4.2c1.4-0.2,2.5-0.9,3.3-1.9l8.2,2c0,0.2,0,0.5,0,0.7
		c0.2,1.6,1.1,2.9,2.3,3.8l-4.7,6.2c-1-0.7-2.3-1.1-3.6-0.9c-2.7,0.4-4.6,2.8-4.2,5.5s2.8,4.6,5.5,4.2c2.7-0.4,4.6-2.8,4.2-5.5
		c-0.1-0.6-0.3-1.2-0.6-1.8l5.2-6.9c0.7,0.2,1.4,0.2,2.2,0.1c1.8-0.2,3.3-1.4,4.1-2.9l8.5,2.1c0,0.1,0,0.3,0,0.4
		c0.4,2.7,2.8,4.6,5.5,4.2C402.1,238,404,235.6,403.6,232.9z"/>
	<path class="st48" d="M456,234c-1.8-0.3-3.6,0.4-4.7,1.8l-5.8-3.6c0.3-0.6,0.5-1.3,0.7-2c0.2-1.2,0.1-2.4-0.3-3.4l6.4-4.4
		c0.4,0.2,0.9,0.4,1.4,0.5c2.7,0.5,5.2-1.3,5.7-4c0.5-2.7-1.3-5.2-4-5.7c-2.7-0.5-5.2,1.3-5.7,4c-0.3,1.4,0.1,2.8,1,3.9l-5.7,4
		c-1-1.4-2.5-2.5-4.4-2.8c-2.7-0.5-5.2,0.6-6.7,2.7l-6-3.7c0.3-0.5,0.5-1,0.6-1.6c0.5-2.7-1.3-5.2-4-5.7c-2.7-0.5-5.2,1.3-5.7,4
		c-0.5,2.7,1.3,5.2,4,5.7c1.4,0.2,2.7-0.1,3.7-0.8l6.4,4c-0.1,0.4-0.2,0.7-0.3,1.1c-0.3,1.8,0.1,3.6,1.1,5l-5.5,3.8
		c-0.7-1-1.8-1.7-3.1-2c-2.7-0.5-5.2,1.3-5.7,4c-0.5,2.7,1.3,5.2,4,5.7c2.7,0.5,5.2-1.3,5.7-4c0.1-0.6,0.1-1.3,0-1.9l6-4.2
		c0.9,0.7,1.9,1.2,3.2,1.5c2.3,0.4,4.6-0.4,6.1-2l6,3.7c0,0.1-0.1,0.3-0.1,0.4c-0.5,2.7,1.3,5.2,4,5.7c2.7,0.5,5.2-1.3,5.7-4
		C460.5,237.1,458.7,234.5,456,234z"/>
	<path class="st48" d="M283.5,238c-0.5-2.7-3.1-4.4-5.8-3.8c-0.6,0.1-1.2,0.4-1.7,0.7l-6.9-4.6c0.3-0.9,0.3-1.9,0.1-2.9
		c-0.4-2-1.7-3.5-3.3-4.3l1.4-7.7c0.1,0,0.3,0,0.4,0c2.7-0.5,4.4-3.1,3.8-5.8s-3.1-4.4-5.8-3.8s-4.4,3.1-3.8,5.8
		c0.4,1.8,1.7,3.2,3.4,3.7l-1.3,7.2c-0.7-0.1-1.4-0.1-2.1,0.1c-1,0.2-1.9,0.6-2.6,1.2l-6.9-4.6c0.1-0.5,0.1-1,0-1.5
		c-0.5-2.7-3.1-4.4-5.8-3.8s-4.4,3.1-3.8,5.8s3.1,4.4,5.8,3.8c1.4-0.3,2.6-1.2,3.2-2.3l6.2,4.1c-0.8,1.3-1.2,3-0.9,4.6
		c0.5,2.5,2.4,4.3,4.7,4.8l-1.4,7.6c-0.6-0.1-1.1-0.1-1.7,0c-2.7,0.5-4.4,3.1-3.8,5.8s3.1,4.4,5.8,3.8c2.7-0.5,4.4-3.1,3.8-5.8
		c-0.3-1.3-1.1-2.5-2.2-3.1l1.5-8.2c0.2,0,0.4-0.1,0.7-0.1c1.6-0.3,3-1.3,3.9-2.6l6.3,4.2c-0.7,1-0.9,2.3-0.7,3.6
		c0.5,2.7,3.1,4.4,5.8,3.8C282.4,243.2,284.1,240.6,283.5,238z"/>
	<path class="st48" d="M166.6,221.1c-2.2-1.5-5.3-1-6.8,1.3c-0.4,0.5-0.6,1.1-0.7,1.7l-8,1.5c-0.4-0.9-1.1-1.7-2-2.4
		c-1.7-1.1-3.7-1.3-5.5-0.5l-4.4-6.5c0.1-0.1,0.2-0.2,0.3-0.3c1.5-2.2,1-5.3-1.3-6.8s-5.3-1-6.8,1.3c-1.5,2.2-1,5.3,1.3,6.8
		c1.5,1,3.5,1.1,5,0.3l4.3,6.3c-0.3,0.3-0.6,0.6-0.8,0.9c-0.6,0.9-0.9,1.9-1,2.9l-9,1.7c-0.3-0.4-0.6-0.7-1.1-1
		c-2.2-1.5-5.3-1-6.8,1.3c-1.5,2.2-1,5.3,1.3,6.8c2.2,1.5,5.3,1,6.8-1.3c0.8-1.2,1-2.6,0.7-3.9l8.3-1.6c0.4,1.2,1.1,2.3,2.3,3.1
		c1.7,1.2,3.8,1.3,5.5,0.5l4.8,7.1c-0.5,0.3-0.9,0.7-1.2,1.2c-1.5,2.2-1,5.3,1.3,6.8c2.2,1.5,5.3,1,6.8-1.3s1-5.3-1.3-6.8
		c-1.1-0.8-2.5-1-3.7-0.8l-5-7.4c0.3-0.3,0.5-0.6,0.7-0.9c0.8-1.1,1.1-2.4,1-3.7l7.5-1.4c0.2,1.2,0.9,2.3,2,3.1
		c2.2,1.5,5.3,1,6.8-1.3C169.4,225.7,168.8,222.7,166.6,221.1z"/>
	<path class="st48" d="M226.7,228.2c-1.6-2.2-4.7-2.6-6.9-0.9c-0.5,0.4-0.9,0.9-1.2,1.4l-8.5-1.2c-0.1-1-0.5-1.9-1.1-2.8
		c-1.1-1.5-2.9-2.3-4.7-2.2l-2.1-7.6c0.1-0.1,0.2-0.1,0.3-0.2c2.2-1.6,2.6-4.7,0.9-6.9c-1.6-2.2-4.7-2.6-6.9-0.9
		c-2.2,1.6-2.6,4.7-0.9,6.9c1.1,1.5,2.9,2.1,4.6,1.9l2,7.3c-0.4,0.2-0.9,0.4-1.3,0.7c-0.8,0.6-1.4,1.4-1.8,2.3l-8.9-1.2
		c-0.2-0.5-0.4-0.9-0.7-1.3c-1.6-2.2-4.7-2.6-6.9-0.9c-2.2,1.6-2.6,4.7-0.9,6.9c1.6,2.2,4.7,2.6,6.9,0.9c1.2-0.9,1.8-2.2,1.9-3.5
		l8.2,1.1c0,1.3,0.3,2.5,1.1,3.6c1.3,1.7,3.3,2.4,5.3,2.2l2.4,8.4c-0.5,0.2-1.1,0.4-1.5,0.8c-2.2,1.6-2.6,4.7-0.9,6.9
		c1.6,2.2,4.7,2.6,6.9,0.9c2.2-1.6,2.6-4.7,0.9-6.9c-0.8-1.1-2-1.7-3.3-1.9l-2.5-8.9c0.2-0.1,0.5-0.3,0.7-0.4c1.1-0.8,1.7-1.9,2-3.1
		l8,1.1c-0.1,1.2,0.2,2.5,1,3.6c1.6,2.2,4.7,2.6,6.9,0.9C227.9,233.5,228.4,230.4,226.7,228.2z"/>
	<path class="st48" d="M107.1,219.4c-2.4-1.3-5.4-0.5-6.7,1.9c-0.3,0.6-0.5,1.2-0.6,1.8l-7.7,2.1c-0.5-0.9-1.2-1.7-2.2-2.2
		c-1.8-1-4-0.9-5.6,0l-4.9-6.1c0.1-0.1,0.2-0.2,0.2-0.3c1.3-2.4,0.5-5.4-1.9-6.7s-5.4-0.5-6.7,1.9c-1.3,2.4-0.5,5.4,1.9,6.7
		c1.6,0.9,3.5,0.8,5-0.1l4.9,6c-0.2,0.3-0.4,0.5-0.6,0.8c-0.5,0.9-0.8,2-0.7,3l-9,2.5c-0.3-0.4-0.7-0.7-1.2-0.9
		c-2.4-1.3-5.4-0.5-6.7,1.9c-1.3,2.4-0.5,5.4,1.9,6.7c2.4,1.3,5.4,0.5,6.7-1.9c0.7-1.3,0.8-2.7,0.4-4l8.3-2.3
		c0.5,1.1,1.3,2.1,2.5,2.8c1.7,1,3.7,0.9,5.3,0.1l5.5,6.8c-0.4,0.4-0.8,0.8-1.1,1.3c-1.3,2.4-0.5,5.4,1.9,6.7s5.4,0.5,6.7-1.9
		c1.3-2.4,0.5-5.4-1.9-6.7c-1.2-0.7-2.6-0.8-3.8-0.4l-5.7-7c0.3-0.3,0.6-0.7,0.8-1.1c0.6-1.1,0.8-2.4,0.7-3.6l7.2-2
		c0.4,1.2,1.1,2.2,2.3,2.9c2.4,1.3,5.4,0.5,6.7-1.9S109.5,220.7,107.1,219.4z"/>
	<path class="st49" d="M44.6,234c-1.4-0.2-2.7,0.1-3.7,0.8l-6.8-4.2c0.2-0.4,0.3-0.9,0.4-1.4c0.3-1.6-0.1-3.2-0.8-4.5l5.6-3.9
		c0.7,1,1.8,1.7,3.1,2c2.7,0.5,5.2-1.3,5.7-4c0.5-2.7-1.3-5.2-4-5.7c-2.7-0.5-5.2,1.3-5.7,4c-0.1,0.6-0.1,1.3,0,1.9l-6.1,4.2
		c-0.9-0.7-1.9-1.3-3.1-1.5c-2.3-0.4-4.5,0.5-6,2.1L17,220c0-0.1,0.1-0.3,0.1-0.4c0.5-2.7-1.3-5.2-4-5.7c-2.7-0.5-5.2,1.3-5.7,4
		s1.3,5.2,4,5.7c1.8,0.3,3.6-0.4,4.7-1.8l6.1,3.7c-0.2,0.5-0.4,0.9-0.4,1.5c-0.2,1.2-0.1,2.3,0.3,3.4l-7,4.8
		c-0.4-0.2-0.9-0.4-1.4-0.5c-2.7-0.5-5.2,1.3-5.7,4c-0.5,2.7,1.3,5.2,4,5.7c2.7,0.5,5.2-1.3,5.7-4c0.3-1.4-0.1-2.8-1-3.9l6.3-4.4
		c0.9,1.2,2.3,2.1,3.9,2.4c2.3,0.4,4.6-0.5,6-2.2l6.5,4c-0.3,0.5-0.5,1-0.6,1.6c-0.5,2.7,1.3,5.2,4,5.7c2.7,0.5,5.2-1.3,5.7-4
		S47.2,234.5,44.6,234z"/>
	<polygon class="st50" points="23,296.4 24.2,291.7 30.9,291.7 31.6,296.4 	"/>
	<path class="st50" d="M16.3,284.7c0,0,5.4,5.8,6,6.3s1.6,1.1,2.1,1.3c0.5,0.2,1.5,0.8,2.1,0.9c0.9,0.2,1.9,0.5,2.8,0.1
		c2.2-0.8,2.5-1.3,3.7-2.1c1.3-0.9,3.1-2.4,3.7-3.1c0.6-0.8,2.4-2.5,3-4.2s1.4-4.3,1.5-6.4s0.2-2.4,0-4.7c-0.2-2.3-1.3-2.6-2.2-4.3
		s-1.5-1.8-2.8-1.9s-3-0.2-5,0s-2.5,0.2-4.4,0.2s-2.9,0-4.2-0.1s-2.5-0.4-3.6,0s-1.5,0.6-2.1,1.4s-1.8,1-1.9,2.7
		c-0.1,1.6-0.9,2.6-0.7,4.3c0.2,1.7,0.1,2.6,0.6,4.2s0.8,2.9,0.9,3.5C15.9,283.6,16.3,284.7,16.3,284.7z"/>
	<path class="st51" d="M19.7,269.6h17.9c0,0,1.5,7.4,1.4,9.1s-1.1,4.1-1.2,4.8c-0.1,0.6-0.8,1.8-1.2,2.8s-1.5,3.5-1.5,3.5
		s4.9-1.4,7.4-3.2c1-0.7,2.3-1.5,3.8-5.2c0.8-2,1.4-6.2,1.4-8s-1.4-7.1-1.4-7.1s-1.1-3.2-2.2-5c-1-1.8-2.9-3.6-4.9-4.6
		s-3.7-1.7-5.6-2.1c-1.9-0.4-6.4-1-8.4-0.8s-5.9,0.4-7.9,1.1c-2.1,0.7-4.4,1.7-5.2,3.2s-2.9,5.4-3.2,8.5c-0.3,3.1,0.1,10,1.1,12.3
		c0.9,2.3,0.9,2.6,2.1,4.7s5.8,4.6,6.5,4.9c0.7,0.3,1.5,0.8,1.5,0.8s-2.4-6.9-2.7-9.2c-0.3-3.1-0.3-3.1,0.2-5.8
		C17.9,273.1,19.7,269.6,19.7,269.6z"/>
	<path class="st52" d="M19.5,288.3c0,0-3.5-1.5-5.1-3.5s-1.7-1.1-2.8-4.7s-2.1-7.2-1.8-10.6c0.3-3.4,2.4-10.6,3.9-11.5
		s5-2.6,7.3-2.7c2.3-0.1,5.3-0.8,7.7-0.2c2.4,0.5,4.6,0.3,7.2,1.4c2.6,1,3.2,1.8,4.8,3.1s2.4,2.1,3.3,4.2s2,4.4,2.2,7s0.4,4.7,0,6.9
		S45,282,44,283.4s-2.4,2.4-3.3,2.8s-4,2.4-4,2.4s1.4-2.7,2.2-4.3c0.8-1.6,0.8-2.5,1.3-4.6c0.5-2,0.2-2.7,0.2-4s0.4-2.2-0.3-4
		s-0.5-1.4-1.1-2.2c-0.6-0.8-1.1-1.5-3-1.1s-3,0.4-4.5,0.4s-2.2,0.2-4-0.1c-1.8-0.3-1.6,0.1-3.2-0.2s-2.1-0.1-3.2-0.3
		c-1.1-0.1-1.7,0.2-2.1,0.3c-1.1,0.4-1.4,1.4-1.5,2.6c-0.1,1.6-1,1.6-0.8,4.1s-0.1,3,0.3,4.9c0.4,1.8,0.4,2.2,0.9,3.4s0.6,2.2,0.9,3
		C18.9,287.4,19.5,288.3,19.5,288.3z"/>
	<line class="st53" x1="19.7" y1="275.5" x2="26.4" y2="276.2"/>
	<line class="st53" x1="29" y1="276.2" x2="35.9" y2="275.5"/>
	<path class="st53" d="M19.1,277.5c0,0,2.1,1.3,3.4,1.4s3.1-0.1,3.6-0.3s0.4-0.1,0.4-0.1"/>
	<path class="st53" d="M29.3,278.3c0,0,1.8,1.1,2.8,1.1s1.4,0.2,2.3,0s2-0.9,2.3-1.1c0.4-0.2,0.7-0.7,0.7-0.7"/>
	<path class="st54" d="M27.5,280.8c0,0,0.2,0.2,0,0.5s-0.1,0.6-0.6,1s-1.4,1.1-1.4,1.1s-0.5,0,0,0.6c0.5,0.7,0.2,0.8,1.1,1.1
		s1.7,0,2.1,0s0.6-0.3,0.6-0.3"/>
	<path class="st54" d="M24.6,288.1c0,0,1.6-0.3,3.2-0.3s3.2,0.3,3.2,0.3"/>
	<path class="st52" d="M21.5,295l-1.6,3.7c0,0,5.8,0,8.5,0s5.4,0,5.4,0l-0.9-3.7H21.5z"/>
	<path class="st52" d="M9.3,303.9c0,0,6.6-0.6,9.1-0.6s5.4-0.1,8.9,0s8.8,0,11.7,0.6s6.7,1,7.8,1.7s2.8,3.1,3.1,4.1s0.9,4.8,1.1,5.8
		s-7,3.9-7,3.9s-0.1,4.4-0.1,5.5s0.3,4.1,0.1,6.4s-0.3,5.3-0.3,6.1s-0.2,1.6-0.2,2.5s-6.4,1.4-7.9,1.6s-6.6,0.1-8.6,0
		s-6.5-0.1-8.8-0.3s-6.1-0.6-6.6-0.9s0.6-14.8,0.9-16.6s0.8-4.9,0.8-4.9s-4.1-2.2-4.9-2.9S6,313.3,6,313.3s-0.3-4.6,0.6-6.4
		S9.3,303.9,9.3,303.9z"/>
	<path class="st55" d="M15.1,313.4c0,0,0.5,0.2,0,0.9s-1.3,1.8-1.3,2.4s-0.9,1.2-0.6,3.1c0.3,1.9,0.3,3,0.9,3.6s1.3,1.6,2.3,2
		c2,0.8,3.2,1.6,4.2,1.5c3.5-0.2,4.3-0.3,5.6-1.7c1.5-1.6,1.7-2.4,1.9-3.8c0.2-1.4,0.9-4.7,0.8-5.4"/>
	<path class="st56" d="M28.5,316c0,0-0.5,2.9,0,4.4s-0.7,2.3-0.4,3.2c0.4,1.1,0.6,1.4,2.6,2.6c1.4,0.9,2,0.9,3.8,1
		c1.9,0.1,3.6,0.2,4.9-0.3c1.4-0.5,2.7-1.2,3.2-2.5s0.9-1.2,1-3.3s-0.5-3.4-0.8-4.1s-1.4-0.9-1.7-1.9s-0.7-2-0.7-2"/>
	<path class="st57" d="M26.9,365.3c0.1,0,1.8-5.4,3.2-10.2c1.4-4.7,1.4-7.8,1.4-7.8l-8.8-1.1c0,0-2.4,9.1-2.7,12.9s0,4.9,0,4.9"/>
	<path class="st57" d="M71.9,365.3c-0.1,0-1.8-5.4-3.2-10.1c-1.4-4.7-1.4-7.8-1.4-7.8l8.7-1.1c0,0,2.3,9,2.7,12.9
		c0.4,3.8,0,4.9,0,4.9"/>
	<path class="st57" d="M26.9,370.5c0,0,0.4,3.8-0.4,7s-3.4,11.3-3.4,11.3l-5.6-2.3c0,0,0-4.8,0-7s2.2-11,2.2-11"/>
	<path class="st57" d="M71,368.4c0,0-0.3,3.8,0.4,7s3.2,11.3,3.2,11.3l5.2-2.3c0,0,0-4.8,0-7s-2.1-11-2.1-11"/>
	<polygon class="st52" points="62.9,265.5 92.6,265.5 92.6,277.9 77.5,284.8 59.4,277.3 60.1,265.5 	"/>
	<path class="st52" d="M59.4,283l15.9,4.8c0,0,0.1,8.2-0.8,13.4c-0.9,5.3-3.3,10.6-3.8,11.8c-0.5,1.2-1.3,2.9-1.5,3.9
		s-8.4,2.3-9.8,1s-3.9-3.5-3.9-4.6s0.8-15.1,2-19.9S59.4,283,59.4,283z"/>
	<path class="st52" d="M113.2,267.5l9.6,2.2c0,0-0.3,4.3-0.9,8.6c-0.6,4.3-4.5,8.9-4.9,9.8s-2.1,6.1-2.3,7s-3.3,0.5-4.6-0.4
		s-3.5-1.8-3.5-2.7s2.9-11.9,3.8-15.8S113.2,267.5,113.2,267.5z"/>
	<path class="st52" d="M139.7,267.7l-7.8,1.8c0,0-0.8,3.8,0,8s3.7,7.4,4.2,8.3c0.4,0.9-0.1,5,0.1,5.8c0.2,0.8,6.3,1.5,7.3,0.5
		c1-1.1,0.6-5.3,0.6-6.2c0-0.9-0.4-7.5-1.5-11.3C141.5,270.7,139.7,267.7,139.7,267.7z"/>
	<path class="st52" d="M80,288.6l14-5.6c0,0,3.5,8.5,3.5,11s0.8,5.8,1,9.3s0,9.4,0,9.4s-1.5,2.4-4.5,4s-7.1,0.7-8.3-1.1
		s-1.3-3.1-2.4-7.1C82.3,304.5,80,288.6,80,288.6z"/>
	<path class="st52" d="M110.3,303.3c0,0-4,8.2-3.8,11.4c0.2,3.3,5.3,5.3,6.6,5.4s5.4,0.5,6.5-2.6s-1.1-12.1-1.1-12.1l-1.3-2.2h-6.9
		V303.3z"/>
	<path class="st52" d="M144.1,303.3c0,0,3.6,8.2,3.4,11.4c-0.2,3.3-4.8,5.3-6,5.4s-4.9,0.5-5.9-2.6s1-12.1,1-12.1l1.2-2.2h6.3V303.3
		z"/>
	<path class="st57" d="M108.1,347.6c0,0-4.2,10.4-4.4,12.6c-0.2,2.3,0.2,5.3,0.2,5.3l2.6-5.6c0,0-1.6,4.8-1.4,6.7s1.3,5.1,1.3,5.1
		s1.3-6,2.2-7.8c0.9-1.8-0.3,5.8,0.2,7.7c0.6,2,2,5,2,5s0.5-5.5,1.2-8.1c0.7-2.5,0.7-2.5,0.7-2.5l0.7-2.8c0,0,0.2,6,0.1,7.7
		c-0.1,1.8,0.1,3.2,0.1,3.2s2.7-6.7,3.1-9s2.2-6.4,1.8-8.4c-0.4-2-0.9-0.7-0.4-2s0.5-1.3,0.5-1.3l-0.3-6.2L108.1,347.6z"/>
	<path class="st57" d="M116,353.3l4,4.5c0,0,0.5,5.8,0,7.5s-4-8-4-8V353.3z"/>
</g>
<g id="圖層_2_1_">
</g>
</svg>
